<svg xmlns="http://www.w3.org/2000/svg" width="177.279" height="150" viewBox="0 0 177.279 150"><defs><style>.cls-5{fill:#d3e9ff}.cls-11{fill:#fcffff}.cls-12{fill:#268aed}</style><linearGradient id="linear-gradient" x1="1" y1=".5" x2="0" y2=".5" gradientUnits="objectBoundingBox"><stop offset="0" stop-color="#4da5f7"/><stop offset="1" stop-color="#47a2f7"/></linearGradient><filter x="22.914" y="78.146" width="45.09" height="45.09" filterUnits="userSpaceOnUse"><feOffset dy="1"/><feGaussianBlur stdDeviation="1.5" result="blur"/><feFlood flood-color="#b40808" flood-opacity=".216"/><feComposite operator="in" in2="blur"/><feComposite in="SourceGraphic"/></filter></defs><g id="_4" data-name="4" transform="translate(-1400.656 331)"><path id="_1" data-name="1" transform="translate(1422 -331)" fill="transparent" d="M0 0h150v150H0z"/><g id="_3" data-name="3" transform="translate(1296 -483.984)"><rect id="_copy_3" data-name="copy 3" width="129.279" height="76.759" rx="7" transform="translate(128.657 197.082)" opacity=".6" fill="url(#linear-gradient)"/><rect id="_copy_4" data-name="copy 4" width="134.591" height="79.914" rx="7" transform="rotate(-7 1630.903 -988.9)" fill="#6bb2f7" opacity=".1"/><path d="M7.36 0h119.87a7.36 7.36 0 0 1 7.36 7.36v65.193a7.36 7.36 0 0 1-7.36 7.36H7.36A7.36 7.36 0 0 1 0 72.553V7.36A7.36 7.36 0 0 1 7.36 0z" transform="translate(126 188.67)" fill="#4d75de"/><rect id="-2" class="cls-5" width="42.06" height="4.206" rx="2" transform="translate(139.669 211.803)"/><rect id="_copy" data-name="copy" class="cls-5" width="42.06" height="4.206" rx="2" transform="translate(139.669 226.524)"/><rect id="_copy_2" data-name="copy 2" class="cls-5" width="53.626" height="4.206" rx="2" transform="translate(139.669 242.296)"/><g transform="translate(132.071 234.63)"><path id="_4" data-name="4" d="M0 .485v12.424l7.929-2.854 7.535 2.854V0z" transform="translate(11.279 32.683)" fill="#f6bf15"/><g transform="translate(-27.41 -81.65)" filter="url(#)"><path id="-2" d="M19.923 36.025a2.088 2.088 0 0 0-2.209 0l-.734.457a2.09 2.09 0 0 1-2.777-.521l-.52-.693a2.091 2.091 0 0 0-2.06-.8l-.849.16a2.1 2.1 0 0 1-2.4-1.493l-.239-.835A2.1 2.1 0 0 0 6.5 30.806l-.85-.159a2.1 2.1 0 0 1-1.7-2.263l.08-.864a2.105 2.105 0 0 0-.985-1.985l-.735-.456a2.107 2.107 0 0 1-.773-2.728l.386-.776a2.11 2.11 0 0 0-.2-2.208l-.523-.691a2.109 2.109 0 0 1 .261-2.824l.639-.584a2.108 2.108 0 0 0 .6-2.133l-.235-.835a2.1 2.1 0 0 1 1.26-2.538l.806-.313A2.1 2.1 0 0 0 5.862 7.68l.079-.864A2.1 2.1 0 0 1 8.029 4.9h.864a2.094 2.094 0 0 0 1.878-1.167l.385-.777a2.092 2.092 0 0 1 2.635-1.025l.806.314a2.089 2.089 0 0 0 2.171-.407l.638-.585a2.089 2.089 0 0 1 2.826 0l.638.585a2.089 2.089 0 0 0 2.171.407l.806-.314a2.092 2.092 0 0 1 2.635 1.025l.385.777A2.094 2.094 0 0 0 28.745 4.9h.864A2.1 2.1 0 0 1 31.7 6.816l.079.864a2.1 2.1 0 0 0 1.331 1.769l.806.313a2.1 2.1 0 0 1 1.256 2.538l-.237.834a2.108 2.108 0 0 0 .6 2.133l.639.584a2.109 2.109 0 0 1 .261 2.824l-.521.692a2.11 2.11 0 0 0-.2 2.208l.386.776a2.107 2.107 0 0 1-.773 2.728l-.735.456a2.106 2.106 0 0 0-.985 1.985l.081.864a2.1 2.1 0 0 1-1.7 2.263l-.85.159A2.1 2.1 0 0 0 29.5 32.3l-.236.835a2.1 2.1 0 0 1-2.4 1.493l-.849-.16a2.091 2.091 0 0 0-2.06.8l-.52.693a2.09 2.09 0 0 1-2.777.521z" transform="translate(26.64 80.94)" fill="#fff"/></g><path d="M13.669 0A13.669 13.669 0 1 1 0 13.669 13.669 13.669 0 0 1 13.669 0z" transform="translate(4.444 4.513)" fill="#ffa205"/><path id="_3" data-name="3" d="M11.279 17.038l5.622 5.35 8.047-8.412" fill="none" stroke="#fff" stroke-linecap="round" stroke-linejoin="round" stroke-miterlimit="10" stroke-width="2"/></g><path id="-2" d="M44.875 11.862C42.323 5.042 33.254 0 22.458 0 11.607 0 2.5 5.095 0 11.967c-.44 1.219 45.343 1.145 44.875-.105z" transform="translate(201.856 239.668)" fill="#e8f3ff"/><path class="cls-11" d="M0 0h8.412a36.731 36.731 0 0 0-.4 3.924 24.312 24.312 0 0 0 .4 3.436H0a28.579 28.579 0 0 0 .44-3.68A28.579 28.579 0 0 0 0 0z" transform="translate(220.635 234.936)"/><path id="_2" data-name="2" class="cls-12" d="M5.727 1.251L3.807 0S0 2.44 0 3.436.945 6.58 1.732 6.58s3.995-5.329 3.995-5.329z" transform="translate(224.841 238.86)"/><path id="_2_copy" data-name="2 copy" class="cls-12" d="M-5.447 1.251L-3.526 0S.28 2.44.28 3.436-.664 6.58-1.451 6.58s-3.996-5.329-3.996-5.329z" transform="translate(224.504 238.86)"/><ellipse id="_1" data-name="1" class="cls-11" cx="11.566" cy="14.169" rx="11.566" ry="14.169" transform="translate(213.274 208.649)"/><path d="M14 0c14.324 0 14 14.665 12.107 17.406 0 0-1.376-4.232-1.779-5.038 0 0-1.728 2.164-2.53 2.239a37.146 37.146 0 0 0-.594-3.829c-.164-.182-5.363 4.732-9.264 5.254 0 0 1.033-3.927.565-4.545 0 0-5.056 4.338-6.026 4.246 0 0 .436-1.885.026-2.014S4.04 18.8 2.524 18.8 0 13.852 0 12.669-.328 0 14 0z" transform="translate(210.704 205.265)" fill="#2e3552"/></g></g></svg>