<svg xmlns="http://www.w3.org/2000/svg" xmlns:xlink="http://www.w3.org/1999/xlink" width="690" height="132" viewBox="0 0 690 132">
  <defs>
    <style>
      .cls-1 {
        fill: #31d7a3;
      }

      .cls-2 {
        fill: #fff;
      }

      .cls-26, .cls-28, .cls-3 {
        fill: #ffc144;
      }

      .cls-4 {
        fill: url(#pattern);
      }

      .cls-5 {
        fill: #e2b89c;
      }

      .cls-6 {
        fill: #ce9671;
      }

      .cls-7 {
        fill: #ffaf0e;
      }

      .cls-8 {
        fill: #e6a89f;
      }

      .cls-9 {
        fill: #edb8b0;
      }

      .cls-10 {
        fill: #e09489;
      }

      .cls-11 {
        fill: #fed6d7;
      }

      .cls-12 {
        fill: #ff4c00;
      }

      .cls-13 {
        fill: #515151;
      }

      .cls-14 {
        fill: #fdbbbb;
      }

      .cls-15 {
        fill: #f7a9a9;
      }

      .cls-16 {
        fill: #24136d;
      }

      .cls-17 {
        fill: #ff4b00;
      }

      .cls-18, .cls-31 {
        fill: none;
      }

      .cls-18 {
        stroke: #ffa984;
        stroke-linecap: round;
        stroke-linejoin: round;
        stroke-width: 2.261px;
      }

      .cls-19 {
        fill: rgba(255,255,255,0.9);
      }

      .cls-20 {
        fill: rgba(255,71,71,0.9);
      }

      .cls-21 {
        fill: rgba(255,255,255,0.5);
      }

      .cls-22 {
        fill: #e1ff14;
      }

      .cls-23 {
        fill: rgba(255,255,255,0.7);
      }

      .cls-24 {
        fill: url(#radial-gradient);
      }

      .cls-25 {
        fill: #5a5a5a;
        stroke: #707070;
        opacity: 0.23;
      }

      .cls-26, .cls-28 {
        stroke: #ffe29b;
      }

      .cls-26 {
        stroke-width: 6px;
      }

      .cls-27 {
        fill: #ffe29b;
      }

      .cls-28 {
        stroke-width: 4px;
      }

      .cls-29, .cls-30 {
        stroke: none;
      }

      .cls-30 {
        fill: #6ee6af;
      }
    </style>
    <pattern id="pattern" preserveAspectRatio="none" width="100%" height="100%" viewBox="0 0 0 0">
      <image/>
    </pattern>
    <radialGradient id="radial-gradient" cx="0.5" cy="0.5" r="0.5" gradientTransform="translate(-0.095) scale(1.19 1)" gradientUnits="objectBoundingBox">
      <stop offset="0" stop-color="#ffbf16"/>
      <stop offset="1" stop-color="#ffd144"/>
    </radialGradient>
  </defs>
  <g id="组_3000" data-name="组 3000" transform="translate(-30 -480)">
    <g id="组_3048" data-name="组 3048">
      <g id="路径_27574" data-name="路径 27574" class="cls-1" transform="translate(30 492)">
        <path class="cls-29" d="M 630 117 L 60 117 C 52.30372619628906 117 44.83927154541016 115.4933624267578 37.81390762329102 112.5219116210938 C 34.43709182739258 111.093635559082 31.17990875244141 109.3256378173828 28.1328182220459 107.26708984375 C 25.11400032043457 105.2275466918945 22.27499961853027 102.8851852416992 19.69490814208984 100.3050918579102 C 17.11481857299805 97.72499847412109 14.77245426177979 94.88600158691406 12.73290920257568 91.86717987060547 C 10.67436408996582 88.82009124755859 8.906363487243652 85.56291198730469 7.478090763092041 82.18608856201172 C 4.506636142730713 75.16072845458984 3 67.69627380371094 3 60 C 3 52.30372619628906 4.506636142730713 44.83927154541016 7.478090763092041 37.81390762329102 C 8.906363487243652 34.43709182739258 10.67436408996582 31.17990875244141 12.73290920257568 28.1328182220459 C 14.77245426177979 25.11400032043457 17.11481857299805 22.27499961853027 19.69490814208984 19.69490814208984 C 22.27499961853027 17.11481857299805 25.11400032043457 14.77245426177979 28.1328182220459 12.73290920257568 C 31.17990875244141 10.67436408996582 34.43709182739258 8.906363487243652 37.81390762329102 7.478090763092041 C 44.83927154541016 4.506636142730713 52.30372619628906 3 60 3 L 630 3 C 637.6962890625 3 645.1607055664063 4.506636142730713 652.1860961914063 7.478090763092041 C 655.5629272460938 8.906363487243652 658.820068359375 10.67436408996582 661.8671875 12.73290920257568 C 664.885986328125 14.77245426177979 667.7249755859375 17.11481857299805 670.3051147460938 19.69490814208984 C 672.8851928710938 22.27499961853027 675.2275390625 25.11400032043457 677.26708984375 28.1328182220459 C 679.3256225585938 31.17990875244141 681.0936279296875 34.43709182739258 682.5219116210938 37.81390762329102 C 685.4933471679688 44.83927154541016 687 52.30372619628906 687 60 C 687 67.69627380371094 685.4933471679688 75.16072845458984 682.5219116210938 82.18608856201172 C 681.0936279296875 85.56291198730469 679.3256225585938 88.82009124755859 677.26708984375 91.86717987060547 C 675.2275390625 94.88600158691406 672.8851928710938 97.72499847412109 670.3051147460938 100.3050918579102 C 667.7249755859375 102.8851852416992 664.885986328125 105.2275466918945 661.8671875 107.26708984375 C 658.820068359375 109.3256378173828 655.5629272460938 111.093635559082 652.1860961914063 112.5219116210938 C 645.1607055664063 115.4933624267578 637.6962890625 117 630 117 Z"/>
        <path class="cls-30" d="M 60 6 C 30.2242431640625 6 6 30.22427368164063 6 60 C 6 89.77572631835938 30.2242431640625 114 60 114 L 630 114 C 659.7757568359375 114 684 89.77572631835938 684 60 C 684 30.22427368164063 659.7757568359375 6 630 6 L 60 6 M 60 0 L 630 0 C 663.1370849609375 0 690 26.86290740966797 690 60 C 690 93.13709259033203 663.1370849609375 120 630 120 L 60 120 C 26.8629150390625 120 0 93.13709259033203 0 60 C 0 26.86290740966797 26.8629150390625 0 60 0 Z"/>
      </g>
      <path id="路径_27636" data-name="路径 27636" class="cls-2" d="M17.16-4.532h5.368l5.764-16.72h8.36L30.888-4.532h5.94l-.572,4.18H1.144l.572-4.18H8.8L6.556-21.3h8.36ZM18.392-27.94l.22-1.672L17.16-31.284H27.192l-.484,3.344H39.292l-.616,4.18H5.236l.616-4.18Zm40.04,17.16L58.608-.352H52.36L52.316-2.42,40.216-.352l4.224-30.1H62.832L60.368-12.892H48.224l-.88,6.424,4.84-.792-.044-3.52ZM74.4-26.268H70.62L66.88.4H60.632l4.312-30.844h16.28L77.88-6.688a3.385,3.385,0,0,1-1.144,2.134,3.28,3.28,0,0,1-2.244.858H68.684L71.676-6.82Zm-19.668,9.2.352-2.508h-5.9l-.352,2.508Zm-4.62-9.2-.352,2.508h5.9l.352-2.508ZM97.592-17.82l.22-1.452h-3.96L95.26-29.3H98.6l.572-1.012-.836-.924h6.644L103.84-29.3h4.62l-1.408,10.032h-4l-.22,1.452h4.444l-.44,3.344H99.616l-.4.968h7.524l-.836,5.852a2.717,2.717,0,0,1-.968,1.738,3.105,3.105,0,0,1-2.112.726h-4.4l1.98-1.584.528-3.652h-2.86L96.14-5.28H92.708l3.036.748H118.58l-.572,4.18H92.664L88.22-1.628,87.428-.4H80.872l2.9-4.312L85.844-19.58H84.436l.572-4.18h7.92L90.42-5.852l1.056.264,3.432-8.888h-2.2l.44-3.344ZM117.3-31.24l-1.32,3.256h5.544l-.572,4.092H119.68l-.836,5.984-3.124,5.236,2.992,7.3H114.4l-1.54-3.916-2.244,3.916h-4.4l4.4-7.524-2.728-7h4.928L113.564-18l.968-1.628.572-4.268h-.792l-1.144,2.9h-5.192l3.96-10.252Zm-24.64.792.66,5.016h-6.6l-.66-5.016Zm6.512,4.84H103.4l.176-1.056H99.352Zm3.7,3.828.132-.968H98.78l-.132.968ZM147.356.264l1.98-2.42.308-2.376h-8.756l-.66,4.8h-7.216l2.332-16.5h23.188L156.6-2.64A4.4,4.4,0,0,1,155.8-.55a2.122,2.122,0,0,1-1.8.814ZM144.32-24.86l.132-1.1h-7.876l.44-3.3h7.92l.044-.308L143.4-31.2h9.46l-.308,1.936h7.964l-.44,3.3h-7.964l-.176,1.1h6.6l-.484,3.344h-6.556l-.176,1.1h8.624l-.484,3.344H134.332l.484-3.344h8.844l.176-1.1h-6.952l.484-3.344ZM122.848.264l2.6-18.656h-2.376l.616-4.312H133.5L131.208-6.292l2.156-.616-.66,4.532Zm9.724-30.712,1.1,5.456h-6.908l-1.1-5.456ZM141.328-7.48h8.756l.176-1.276H141.5ZM141.9-11.7h8.756l.176-1.188h-8.756Z" transform="translate(194 545)"/>
      <path id="路径_27637" data-name="路径 27637" class="cls-3" d="M4.572-21.816l.54-3.78h5.472l-.54,3.78h1.008l.54-3.744h5.472l-.54,3.744h1.368l-.468,3.42h-1.4L14.544-7.812,11.016-4.5,14.76.324h-5.8L7.632-1.332,5.868.324H.072L5.184-4.464,2.592-7.812,4.068-18.4H2.736l.468-3.42ZM21.6-13.968l.288-2.052,4.428-5.472H18.9l.468-3.42h13.68l-.684,4.788-3.708,4.608-.216,1.548h4.428l-.468,3.42H27.972l-1.188,8.5a2.749,2.749,0,0,1-.99,1.71A2.837,2.837,0,0,1,23.94.324H16.848l3.24-3.348,1.044-7.524H16.668l.468-3.42ZM9.144-8.172,10.584-18.4H9.576L8.136-8.172l.432.54ZM47.628.252l8.1-6.516L51.12-10.332,46.8.252H39.78l7.956-19.62H43.2l.468-3.2h5.364l.792-1.908-.612-1.008h8.1l-1.188,2.916h15.66l-.468,3.2H54.792l-1.044,2.592H70.164L69.588-12.6,62.64-6.516l7.308,6.8h-6.7L59.04-3.384,54.9.252Zm4.716-13.608-.5,1.26h4.824L59.58-9.36l3.96-3.2.108-.792Zm52.2-5.436-2.3,4.824h7.236l-.468,3.42h-4.32L108.252.288H102.42L99.576-8.388l-4.14,8.6H89.6l5.148-10.764H91.44l.468-3.42h4.5l2.3-4.824ZM80.568.324l3.24-3.348.18-1.4h-5l5.652-4.536.252-1.98H79.812l5.04-3.816-2.736-3.924h6.336l.864,1.548h4.032L90.5-14.976l.54.9L89.316-2.052a2.781,2.781,0,0,1-.972,1.71,2.768,2.768,0,0,1-1.836.666Zm6.8-21.276H81.936l.4-3.06H87.8l.036-.216L86.688-25.6h7.524l-.252,1.584h5.472l.036-.216L98.316-25.6h7.524l-.252,1.584h5.472l-.4,3.06h-5.508l-.108.9H98.892l.108-.9H93.528l-.108.9H87.264Zm18.036,2.232h4.1l.108,4h-4.1ZM129.6-15.336l1.188-8.568-.864-1.008H149.4l-1.332,9.576Zm9.576,4.788.144-1.008H128.376l.4-2.736h19.836l-.4,2.736h-2.736l-.144,1.008h3.42l-.4,2.736h-3.42l-.792,5.76a2.781,2.781,0,0,1-.972,1.71,2.768,2.768,0,0,1-1.836.666h-6.444l3.2-3.312.684-4.824H127.836l.4-2.736Zm-11.2-5.472L125.676.324H119.16l2.124-15.012-2.088.4.576-4.1,8.784-1.728Zm.792-5.472-8.82,1.728.576-4.1,8.82-1.728ZM135.216-6.8l.792,4.1h-6.156l-.792-4.1Zm1.476-15.372-.144,1.044H142.7l.144-1.044Zm5.58,4.1.144-1.008H136.26l-.144,1.008Zm45.576,7.56h-15.12l1.836-13-.864-1.44h16.2ZM172.44-21.6l-3.42.288-.4,2.988h3.888l-.5,3.672h-3.924L166,.324h-4.932l2.088-14.976h-4.068l.5-3.672h4.1l.36-2.556-3.852.324.5-3.672,12.24-1.044ZM176.292.216h-5.364l3.42-9.432h5.076Zm10.584.072h-5.04l-.684-9.468h5.04ZM167.04-.972l1.224-12.672h3.348L170.352-.972Zm-9.9,0,2.34-12.672h3.348L160.452-.972Zm26.208-13,1.044-7.524h-5.184l-1.044,7.524ZM197.28.324l6.336-11.2h-3.384l.5-3.456H225.36L223.632-2.052a2.644,2.644,0,0,1-.954,1.692,2.792,2.792,0,0,1-1.854.684H213.7l3.24-3.348,1.08-7.848h-7.56L204.12.324Zm7.7-15.66h-6.84l7.6-9.432-.684-.828h8.208ZM222.84-25.6l5.4,10.26H221.4L216-25.6Z" transform="translate(194 589)"/>
      <g id="组_24_副本" data-name="组 24 副本" transform="translate(461.905 493.517)">
        <rect id="图层_2" data-name="图层 2" class="cls-4" transform="translate(0.095 0.483)"/>
        <g id="组_24_副本-2" data-name="组 24 副本" transform="translate(25.614 23.935)">
          <path id="Rounded_Rectangle_10" data-name="Rounded Rectangle 10" class="cls-5" d="M.671,131.993l6.951-10.676a4.05,4.05,0,1,1,6.777,4.434L7.449,136.428a4.05,4.05,0,1,1-6.777-4.434Z" transform="translate(-0.013 -55.503)"/>
          <path id="Rectangle_10" data-name="Rectangle 10" class="cls-6" d="M4.385,130.649l6.963-9.963,6.428,4.144-6.788,10.089Z" transform="translate(-2.044 -56.064)"/>
          <path id="Rounded_Rectangle_10_副本" data-name="Rounded Rectangle 10 副本" class="cls-5" d="M129.1,2.771l3.881,11.982a4.04,4.04,0,0,1-2.57,5.072,3.977,3.977,0,0,1-5.04-2.552L121.492,5.291a4.039,4.039,0,0,1,2.57-5.072A3.977,3.977,0,0,1,129.1,2.771Z" transform="translate(-56.346 -0.015)"/>
          <path id="Rectangle_10_副本" data-name="Rectangle 10 副本" class="cls-6" d="M130.257,9.8l3.326,11.551-7.171,2.428L122.88,12.283Z" transform="translate(-57.082 -4.558)"/>
          <path id="形状_14" data-name="形状 14" class="cls-7" d="M35.755,99.1V66.651s-12.862.435-23.7,16.805L2.226,78.241S11.042,53.613,45,53.9h9.249c-4.336,1.738,19.8-19.7,11.562-39.406L76.8,11.6S86.916,38.691,65.815,61.436c0,0,4.625,14.343,1.734,37.667Z" transform="translate(-1.041 -5.395)"/>
          <g id="组_23" data-name="组 23" transform="translate(33.612 7.174)">
            <path id="Ellipse_24" data-name="Ellipse 24" class="cls-8" d="M0,12.611A4.013,4.013,0,0,1,2.045,9.274V0H8.433V8.991a4.173,4.173,0,0,1,2.548,3.62c0,2.367-2.458,4.286-5.49,4.286S0,14.978,0,12.611Z" transform="translate(9.452 31.965)"/>
            <ellipse id="Ellipse_23" data-name="Ellipse 23" class="cls-9" cx="13.668" cy="14.885" rx="13.668" ry="14.885" transform="translate(1.02 6.737)"/>
            <path id="形状_13" data-name="形状 13" class="cls-10" d="M67.2,33.452s4.642,4.378,16.137,3.032c4.249-.576,7.033-1.669,8.108-4.049,1.122-2.484-.636-6.512-1.158-6.942-1.022-.841-15.424-.366-15.424-.366Z" transform="translate(-64.832 -18.791)"/>
            <path id="形状_15" data-name="形状 15" d="M71.189,19.385l15.266,1.523s7.815,3.212,3.312,9.272c-10.22,5.1-22.526,3.209-25.532-.464S63.091,17.9,67.5,17.284C67.5,17.284,67.081,18.773,71.189,19.385Z" transform="translate(-62.766 -17.284)"/>
            <path id="路径_27566" data-name="路径 27566" d="M38.255,9.611S43.4,17.853,40.3,22.1c.088-.112-2,3.259-2.045,3.315-3.188,3.974-.968-5.726-.968-5.726l-5.3-5.381Z" transform="translate(-9.905 -0.893)"/>
            <path id="路径_27567" data-name="路径 27567" d="M1.593,14.468s-2.884,8.057-.431,11.673c1.227,1.808.741-3.932,1.515-7.363.679-3,2.618-3.7,2.618-3.7Z" transform="translate(-0.084 -2.392)"/>
          </g>
        </g>
      </g>
      <g id="组_24_副本_2" data-name="组 24 副本 2" transform="translate(584.879 517.714)">
        <rect id="图层_2-2" data-name="图层 2" class="cls-4" transform="translate(0.121 0.286)"/>
        <g id="组_24_副本_2-2" data-name="组 24 副本 2" transform="translate(0 0.363)">
          <path id="Rounded_Rectangle_10-2" data-name="Rounded Rectangle 10" class="cls-5" d="M.671,131.993l6.951-10.676a4.05,4.05,0,1,1,6.777,4.434L7.449,136.428a4.05,4.05,0,1,1-6.777-4.434Z" transform="translate(-0.013 -55.503)"/>
          <path id="Rectangle_10-2" data-name="Rectangle 10" class="cls-6" d="M4.385,130.649l6.963-9.963,6.428,4.144-6.788,10.089Z" transform="translate(-2.044 -56.064)"/>
          <path id="Rounded_Rectangle_10_副本-2" data-name="Rounded Rectangle 10 副本" class="cls-11" d="M129.1,2.771l3.881,11.982a4.04,4.04,0,0,1-2.57,5.072,3.977,3.977,0,0,1-5.04-2.552L121.492,5.291a4.039,4.039,0,0,1,2.57-5.072A3.977,3.977,0,0,1,129.1,2.771Z" transform="translate(-56.346 -0.015)"/>
          <path id="Rectangle_10_副本-2" data-name="Rectangle 10 副本" class="cls-6" d="M130.257,9.8l3.326,11.551-7.171,2.428L122.88,12.283Z" transform="translate(-57.083 -4.558)"/>
          <path id="形状_14-2" data-name="形状 14" class="cls-12" d="M35.755,99.1V66.651s-12.862.435-23.7,16.805L2.226,78.241S11.042,53.613,45,53.9h9.249c-4.336,1.738,19.8-19.7,11.562-39.406L76.8,11.6S86.916,38.691,65.816,61.436c0,0,4.625,14.343,1.734,37.667Z" transform="translate(-1.041 -5.395)"/>
          <g id="组_23-2" data-name="组 23" transform="translate(29.121 7.933)">
            <path id="矩形_1297" data-name="矩形 1297" class="cls-13" d="M18.5,0h0A18.5,18.5,0,0,1,37,18.5V31a0,0,0,0,1,0,0H0a0,0,0,0,1,0,0V18.5A18.5,18.5,0,0,1,18.5,0Z" transform="translate(0 -0.01)"/>
            <path id="Ellipse_24-2" data-name="Ellipse 24" class="cls-14" d="M0,12.611A4.013,4.013,0,0,1,2.045,9.274V0H8.433V8.991a4.173,4.173,0,0,1,2.548,3.62c0,2.367-2.458,4.286-5.49,4.286S0,14.978,0,12.611Z" transform="translate(13.944 31.206)"/>
            <ellipse id="Ellipse_23-2" data-name="Ellipse 23" class="cls-11" cx="13.668" cy="14.885" rx="13.668" ry="14.885" transform="translate(5.511 5.978)"/>
            <path id="形状_13-2" data-name="形状 13" class="cls-15" d="M66.119,35.234s3.576,4.121,15.07,2.775c8.685-1.177,6.9-10.512,5.875-11.352s-13.282.252-13.282.252Z" transform="translate(-59.839 -20.174)"/>
            <path id="形状_13_副本" data-name="形状 13 副本" class="cls-13" d="M64.688,32.845s3.321,3.28,15.837,1.766c9.2-1.261,7.152-11.268,6.13-12.109s-14.049,1.009-14.049,1.009Z" transform="translate(-59.174 -18.29)"/>
          </g>
        </g>
      </g>
      <g id="组_24" data-name="组 24" transform="translate(513.755 480.381)">
        <rect id="图层_2-3" data-name="图层 2" class="cls-4" transform="translate(0.245 -0.381)"/>
        <g id="组_24-2" data-name="组 24" transform="translate(0.746 0.756)">
          <path id="Rounded_Rectangle_10-3" data-name="Rounded Rectangle 10" class="cls-5" d="M2,142.519l9.746-14.909a5.671,5.671,0,0,1,9.5,6.192L11.5,148.711A5.671,5.671,0,0,1,2,142.519Z" transform="translate(-1.074 -35.7)"/>
          <path id="Rectangle_10-3" data-name="Rectangle 10" class="cls-6" d="M5.657,140.214,15.42,126.3l9.013,5.787-9.517,14.09Z" transform="translate(-2.374 -36.058)"/>
          <path id="Rounded_Rectangle_10_副本-3" data-name="Rounded Rectangle 10 副本" class="cls-11" d="M139.134,4.182l5.442,16.733a5.618,5.618,0,0,1-10.671,3.519L128.464,7.7a5.618,5.618,0,0,1,10.671-3.519Z" transform="translate(-37.124 -0.333)"/>
          <path id="Rectangle_10_副本-3" data-name="Rectangle 10 副本" class="cls-6" d="M140.192,10.544l4.663,16.131L134.8,30.066l-4.952-16.05Z" transform="translate(-37.595 -3.229)"/>
          <path id="形状_14-3" data-name="形状 14" class="cls-16" d="M50.4,134.625H41.512s.113-5.839,2.336-17.168S50.4,89.306,50.4,89.306s-18.034.607-33.231,23.469L3.394,105.491S15.755,71.1,63.373,71.5H76.341c-6.079,2.428,27.76-27.515,16.21-55.03l15.4-4.046s14.184,37.833-15.4,69.6c0,0,6.484,20.029,2.432,52.6Z" transform="translate(-1.732 -3.763)"/>
          <g id="组_23-3" data-name="组 23" transform="translate(42.997 12.714)">
            <path id="形状_11" data-name="形状 11" class="cls-17" d="M98.889,26.553S98.531,17.628,87.07,18.1s-23.4,12.213-22.2,26.775c0,0-4.775,2.936-3.581,13.74,1.148,10.393,8.862,14.02,14.527,14.377,0,0,9.65,1.124,9.827,1.124,4.656,0-18.086,1.458-11.282-10.873-.1-13.532,30.338-6.33,30.338-6.33s3.769-8.847,3.441-12.083C107.553,39.054,105.537,29.667,98.889,26.553Z" transform="translate(-61.093 -18.08)"/>
            <path id="Ellipse_24-3" data-name="Ellipse 24" class="cls-14" d="M0,17.618a5.6,5.6,0,0,1,2.87-4.664V0h8.956V12.56A5.833,5.833,0,0,1,15.4,17.618c0,3.307-3.447,5.988-7.7,5.988S0,20.925,0,17.618Z" transform="translate(17.379 41.94)"/>
            <ellipse id="Ellipse_23-3" data-name="Ellipse 23" class="cls-11" cx="19.161" cy="20.782" rx="19.161" ry="20.782" transform="translate(5.562 6.713)"/>
            <path id="形状_13-3" data-name="形状 13" class="cls-15" d="M70.359,40.235s5.014,5.754,21.13,3.875c12.177-1.644,9.67-14.679,8.237-15.854s-18.623.352-18.623.352Z" transform="translate(-63.721 -20.84)"/>
            <path id="形状_13_副本-2" data-name="形状 13 副本" class="cls-12" d="M68.859,38.329s4.656,4.58,22.2,2.466c12.893-1.762,10.028-15.736,8.6-16.911s-19.7,1.409-19.7,1.409Z" transform="translate(-63.295 -19.639)"/>
            <path id="形状_16" data-name="形状 16" class="cls-18" d="M97.535,24.163s-12.644-8.295-25.126,11.33" transform="translate(-64.302 -19.311)"/>
          </g>
        </g>
      </g>
    </g>
    <g id="组_2826" data-name="组 2826" transform="translate(338.637 127.043)">
      <path id="xing4" class="cls-19" d="M729.326,578.828l1.256,5.349,4.083,1.888-3.768,1.258-1.884,6.293-1.57-6.293-3.454-1.258,3.768-1.573Z" transform="translate(-578 -133.763)"/>
      <path id="xing4_拷贝_2" data-name="xing4 拷贝 2" class="cls-20" d="M620.24,658.177l1.165,4.961,3.786,1.751-3.495,1.167-1.747,5.836-1.456-5.836-3.2-1.167,3.495-1.459Z" transform="translate(-292.775 -191.061)"/>
      <path id="xing3" class="cls-21" d="M318.767,486.3l-1.747.875-1.165,3.5-.874-3.794-2.621-.584,2.039-.875,1.747-3.5.874,2.918Z" transform="translate(-103.803 -74.856)"/>
      <path id="xing2" class="cls-2" d="M261.961,368.489l1.165,4.086,2.912.875-2.912,1.459-1.165,4.086L260.8,375.2l-2.33-1.167,2.33-1.167Z" transform="translate(-70.175 -0.307)"/>
      <path id="xing2_拷贝_3" data-name="xing2 拷贝 3" class="cls-2" d="M306.478,338.125l1.256,4.405,3.14.944-3.14,1.573-1.256,4.405-1.256-4.091L302.71,344.1l2.512-1.259Z" transform="translate(-86.494 29.921)"/>
      <path id="xing2_拷贝_4" data-name="xing2 拷贝 4" class="cls-22" d="M183.134,465.707l1.165,4.086,2.912.875-2.912,1.459-1.165,4.086-1.165-3.794-2.33-1.167,2.33-1.167Z" transform="translate(-21.105 -64.245)"/>
      <path id="xing2_拷贝" data-name="xing2 拷贝" class="cls-23" d="M299.924,428.734l.582,1.928,1.456.413-1.456.688-.582,1.928-.582-1.79-1.165-.551,1.165-.551Z" transform="translate(-94.961 -39.848)"/>
      <path id="xing2_拷贝_2" data-name="xing2 拷贝 2" class="cls-23" d="M549.6,515.963l.583,1.928,1.456.413-1.456.688-.583,1.928-.582-1.79-1.165-.551,1.165-.551Z" transform="translate(-250.484 -97.077)"/>
      <path id="xing1" class="cls-24" d="M539.639,414.257l.874,1.751,1.456.876-1.456.875-.582,2.043-.874-1.751-1.747-1.167,1.747-.584Z" transform="translate(-244.165 -29.011)"/>
    </g>
    <g id="组_3050" data-name="组 3050" transform="translate(3.241 1.75)">
      <g id="椭圆_170" data-name="椭圆 170" class="cls-25" transform="translate(71.759 578.25)">
        <ellipse class="cls-29" cx="46.5" cy="6" rx="46.5" ry="6"/>
        <ellipse class="cls-31" cx="46.5" cy="6" rx="46" ry="5.5"/>
      </g>
      <g id="组_2846" data-name="组 2846" transform="translate(72 512)">
        <g id="椭圆_135" data-name="椭圆 135" class="cls-26" transform="translate(-0.241 0.25)">
          <circle class="cls-29" cx="34.5" cy="34.5" r="34.5"/>
          <circle class="cls-31" cx="34.5" cy="34.5" r="31.5"/>
        </g>
        <path id="多边形_1" data-name="多边形 1" class="cls-27" d="M10,0l3.25,6.67L20,8.021l-4.741,5.474L16.18,21,10,17.713,3.82,21l.922-7.505L0,8.021,6.75,6.67Z" transform="translate(24.759 24.25)"/>
      </g>
      <g id="组_3050-2" data-name="组 3050" transform="translate(117.792 541.905)">
        <g id="椭圆_135-2" data-name="椭圆 135" class="cls-28" transform="translate(-0.033 0.345)">
          <ellipse class="cls-29" cx="23.5" cy="23" rx="23.5" ry="23"/>
          <ellipse class="cls-31" cx="23.5" cy="23" rx="21.5" ry="21"/>
        </g>
        <path id="多边形_1-2" data-name="多边形 1" class="cls-27" d="M6.5,0,8.84,4.092,13,5.348,10.286,9.132,10.517,14,6.5,12.247,2.483,14l.231-4.868L0,5.348,4.16,4.092Z" transform="translate(16.967 16.345)"/>
      </g>
    </g>
  </g>
</svg>
