<svg xmlns="http://www.w3.org/2000/svg" width="36" height="36" viewBox="0 0 36 36">
  <defs>
    <style>
      .cls-1 {
        fill: #fff;
        stroke: #707070;
        opacity: 0;
      }

      .cls-2 {
        fill: #76797e;
      }

      .cls-3 {
        stroke: none;
      }

      .cls-4 {
        fill: none;
      }
    </style>
  </defs>
  <g id="ic_jilu" transform="translate(-70 -1242)">
    <g id="矩形_1323" data-name="矩形 1323" class="cls-1" transform="translate(70 1242)">
      <rect class="cls-3" width="36" height="36"/>
      <rect class="cls-4" x="0.5" y="0.5" width="35" height="35"/>
    </g>
    <path id="路径_28344" data-name="路径 28344" class="cls-2" d="M164.636,117.333h24.727a4.57,4.57,0,0,1,4.636,4.5v27a4.57,4.57,0,0,1-4.636,4.5H164.636a4.57,4.57,0,0,1-4.636-4.5v-27A4.57,4.57,0,0,1,164.636,117.333Zm0,3a1.523,1.523,0,0,0-1.545,1.5v27a1.523,1.523,0,0,0,1.545,1.5h24.727a1.523,1.523,0,0,0,1.545-1.5v-27a1.523,1.523,0,0,0-1.545-1.5Zm5.152,15.005a1.5,1.5,0,1,1,0-3h14.424a1.5,1.5,0,1,1,0,3Zm0,8a1.5,1.5,0,1,1,0-3h14.424a1.5,1.5,0,1,1,0,3Z" transform="translate(-89 1124.667)"/>
  </g>
</svg>
