<svg xmlns="http://www.w3.org/2000/svg" width="750" height="380" viewBox="0 0 750 380"><defs><style>.cls-2{opacity:.502;fill:url(#linear-gradient)}</style><linearGradient id="linear-gradient" y1=".789" x2="1" y2=".211" gradientUnits="objectBoundingBox"><stop offset="0" stop-color="#34d6dc"/><stop offset="1" stop-color="#f7dafa"/></linearGradient></defs><g id="_283" data-name="283"><path id="_5" data-name="5" d="M0-2h750v380c-249-81-500-78-750 0V-2z" transform="translate(0 2)" fill="#1f8efa"/><circle id="_9__2" data-name="9 2" class="cls-2" cx="16" cy="16" r="16" transform="translate(543 134)"/><circle id="_9__3" data-name="9 3" class="cls-2" cx="27.5" cy="27.5" r="27.5" transform="translate(402 93)"/><path id="_4" data-name="4" d="M-6219.626 6544.26a14 14 0 0 1-9.14-3.4 13.906 13.906 0 0 1-4.816-9.571 13.906 13.906 0 0 1 3.362-10.174l41.982-48.663 36.928.059-57.71 66.895a14 14 0 0 1-10.606 4.854z" transform="translate(6740 -6472.13)" fill="#79b5f0" opacity=".65"/></g></svg>