<svg xmlns="http://www.w3.org/2000/svg" width="90" height="90" viewBox="0 0 90 90"><defs><linearGradient id="a" x1=".812" y1="1" x2=".188" gradientUnits="objectBoundingBox"><stop offset="0" stop-color="#fe7e13"/><stop offset="1" stop-color="#ffaf06"/></linearGradient><linearGradient id="b" x1=".5" x2=".5" y2="1.248" gradientUnits="objectBoundingBox"><stop offset="0" stop-color="#fff"/><stop offset="1" stop-color="#ffe0c0"/></linearGradient></defs><g data-name="2831"><path data-name="3 3" d="M45 0A45 45 0 1 1 0 45 45 45 0 0 1 45 0z" fill="url(#a)"/><path data-name="27443" d="M30.771 17.331a19.3 19.3 0 0 0-1.079-6.394c-2.255-6.441-7.808-11-14.307-11C6.889-.064 0 7.722 0 17.331c0 8.7 5.651 15.911 13.029 17.192l-1 2.867h2.292l-.639 2.372a3.032 3.032 0 0 0 .75 2.9 1.2 1.2 0 0 1 .175 1.444l-2.114 3.635a.922.922 0 0 0 .369 1.278.993.993 0 0 0 1.324-.356l2.114-3.634a3.03 3.03 0 0 0-.439-3.641 1.2 1.2 0 0 1-.3-1.152l.661-2.452a.907.907 0 0 0 .015-.393h2.827l-1.02-2.935a14.359 14.359 0 0 0 5.909-2.676 18.075 18.075 0 0 0 6.819-14.448zM10.764 9.385c-3.2.442-3.657 4.741-3.663 4.784a1.168 1.168 0 0 1-2.317-.227c.025-.252.664-6.17 5.657-6.865a1.168 1.168 0 0 1 .323 2.3zM51.4 24.853c0-8.051-5.771-14.574-12.89-14.574a11.554 11.554 0 0 0-5.285 1.284 19.372 19.372 0 0 1 1.075 6.392 18.074 18.074 0 0 1-6.815 14.451 12.97 12.97 0 0 0 8.933 6.822l-.433 1.244h1.49l-.246.906a2.09 2.09 0 0 0 .519 2 .86.86 0 0 1 .123 1.042L36.4 46.956a.615.615 0 0 0 .249.854.664.664 0 0 0 .882-.24L39 45.032a2.09 2.09 0 0 0-.3-2.507.867.867 0 0 1-.215-.83l.332-1.226h1l-.378-1.085C46.122 38.85 51.4 32.551 51.4 24.853zM40.957 35.012a1.168 1.168 0 0 1-.32-2.3c3.2-.446 3.657-4.744 3.66-4.787a1.166 1.166 0 0 1 2.32.227c-.025.252-.664 6.173-5.657 6.865z" transform="translate(20.401 19.996)" fill="url(#b)"/></g></svg>