<svg xmlns="http://www.w3.org/2000/svg" width="90" height="90" viewBox="0 0 90 90"><defs><linearGradient id="a" x1=".812" y1="1" x2=".188" gradientUnits="objectBoundingBox"><stop offset="0" stop-color="#06b2fc"/><stop offset="1" stop-color="#53defd"/></linearGradient><linearGradient id="b" x1=".5" x2=".5" y2="1" gradientUnits="objectBoundingBox"><stop offset="0" stop-color="#fff"/><stop offset="1" stop-color="#aee8ff"/></linearGradient></defs><g data-name="2830"><path data-name="3" d="M288 409a45 45 0 0 1 0 90 45 45 0 0 1 0-90z" fill="url(#a)" transform="translate(-243 -409)"/><path data-name="27444" d="M44.05 49.658H5.3A5.1 5.1 0 0 1 0 44.541V24.984h49.35v19.374a5.205 5.205 0 0 1-5.118 5.3h-.182zm-.183-9.138H32.9v3.655h10.967V40.52zM0 17.674a5.308 5.308 0 0 1 5.12-5.483h38.93a5.3 5.3 0 0 1 5.3 5.3v3.838H0v-3.655z" transform="translate(20.679 13.919)" fill="url(#b)"/></g></svg>