<svg xmlns="http://www.w3.org/2000/svg" width="90" height="90" viewBox="0 0 90 90"><defs><linearGradient id="a" x1=".5" y1="1" x2=".5" gradientUnits="objectBoundingBox"><stop offset="0" stop-color="#06dda1"/><stop offset="1" stop-color="#3cfbd9"/></linearGradient><linearGradient id="b" x1=".5" x2=".5" y2="1" gradientUnits="objectBoundingBox"><stop offset="0" stop-color="#fff"/><stop offset="1" stop-color="#a9ffea"/></linearGradient></defs><g data-name="2829"><path data-name="3" d="M45 0A45 45 0 1 1 0 45 45 45 0 0 1 45 0z" fill="url(#a)"/><path data-name="27430" d="M185.424 123.95l-33.317.647a3.654 3.654 0 0 1-3.627-3.711V91.561a3.672 3.672 0 0 1 3.627-3.711h6.86a3.63 3.63 0 0 1 2.98 1.574c.366.506.562.843.815 1.125a8.124 8.124 0 0 0 11.3-.056 7.856 7.856 0 0 0 .956-1.125 3.626 3.626 0 0 1 2.952-1.546h6.8a3.654 3.654 0 0 1 3.627 3.711v29.325c.003 2.08-.949 3.092-2.973 3.092zm-4.161-24.32a1.906 1.906 0 0 0-2.671-.112l-11.134 11.3-7.9-7.282a1.968 1.968 0 0 0-2.783 2.783l8.041 7.788c1.04.928 1.35 1.378 2.615 1.321a3.134 3.134 0 0 0 2.615-1.321l11.273-11.807a1.852 1.852 0 0 0-.056-2.67zm-8.435-12.005a6.119 6.119 0 0 1-4.386 1.884 6.025 6.025 0 0 1-4.414-1.884 5.932 5.932 0 0 1-.928-1.237v-.028h-.028v-.028l-.028-.028a6.409 6.409 0 0 1-.815-3.149 6.265 6.265 0 0 1 6.214-6.354 6.184 6.184 0 0 1 4.386 1.828 6.52 6.52 0 0 1 1.828 4.527 6.132 6.132 0 0 1-1.829 4.469z" transform="translate(-123.922 -57.498)" fill="url(#b)"/></g></svg>