<svg xmlns="http://www.w3.org/2000/svg" width="90" height="90" viewBox="0 0 90 90"><defs><linearGradient id="a" x1=".812" y1="1" x2=".188" gradientUnits="objectBoundingBox"><stop offset="0" stop-color="#fe4848"/><stop offset="1" stop-color="#ff7e7e"/></linearGradient><linearGradient id="b" x1=".5" x2=".5" y2="1.551" gradientUnits="objectBoundingBox"><stop offset="0" stop-color="#fff"/><stop offset="1" stop-color="#fcc"/></linearGradient></defs><g data-name="33"><path data-name="3 2" d="M45 0A45 45 0 1 1 0 45 45 45 0 0 1 45 0z" fill="url(#a)"/><g data-name="2842"><path data-name="23" d="M-1691 3651h-10v-21.775h18v13.439q0 .4-.037.791a4.033 4.033 0 0 1 .037.545v3a4 4 0 0 1-4 4zm-25.715 0H-1721a4 4 0 0 1-4-4v-3a4.038 4.038 0 0 1 .037-.545q-.037-.391-.037-.792v-13.437h18V3651zm-8.285-26.748v-5.874a3.067 3.067 0 0 1 3.094-3.041h6.351c-1.861-2.42-1.994-5.39-.119-7.106a5.058 5.058 0 0 1 3.466-1.232 8.341 8.341 0 0 1 5.5 2.255 10.816 10.816 0 0 1 2.709 4.026 10.826 10.826 0 0 1 2.71-4.026 8.339 8.339 0 0 1 5.5-2.255 5.058 5.058 0 0 1 3.466 1.232c1.877 1.711 1.744 4.684-.122 7.106h6.354a3.069 3.069 0 0 1 3.094 3.041v5.874zm25.792-12.8a7.486 7.486 0 0 0-2.206 3.885h4.293a8.109 8.109 0 0 0 1.587-1.1 4.117 4.117 0 0 0 1.5-2.831 1.178 1.178 0 0 0-.376-.969 2.1 2.1 0 0 0-1.379-.427 5.3 5.3 0 0 0-3.418 1.441zm-14.382-1.021a1.2 1.2 0 0 0-.371.97 4.114 4.114 0 0 0 1.494 2.831 8.116 8.116 0 0 0 1.588 1.1h4.293a7.486 7.486 0 0 0-2.206-3.885 5.3 5.3 0 0 0-3.415-1.446 2.116 2.116 0 0 0-1.382.429z" transform="translate(1748 -3584)" fill="url(#b)"/></g></g></svg>