<svg xmlns="http://www.w3.org/2000/svg" width="48" height="48" viewBox="0 0 48 48"><defs><style>.cls-3{fill:none;stroke:#fff;stroke-linecap:round;stroke-width:3px}</style></defs><g id="_3007" data-name="3007" transform="translate(-67 -650)"><path id="_1003" data-name="1003" transform="translate(67 650)" fill="none" d="M0 0h48v48H0z"/><g id="_3005" data-name="3005" transform="translate(-4979.982 1478.908)"><g id="_3005-2" data-name="3005" transform="translate(5050.377 -826.663)"><path id="_21" data-name="21" d="M-4442.692 2760.251a37.507 37.507 0 0 0-10.1-1.1v-38.645a79.123 79.123 0 0 1 10.1 1.033 80.991 80.991 0 0 1 9.9 2.516 80.9 80.9 0 0 1 9.9-2.516 79.107 79.107 0 0 1 10.1-1.033v38.645a37.5 37.5 0 0 0-10.1 1.1 45.55 45.55 0 0 0-9.9 4.26 45.59 45.59 0 0 0-9.9-4.26z" transform="translate(4452.396 -2720.755)" fill="#f3951c"/></g><g id="_3006" data-name="3006" transform="translate(5069.625 -812.843)"><path id="_5" data-name="5" class="cls-3" transform="translate(.042)" d="M0 0v10.457"/><path id="_6" data-name="6" class="cls-3" transform="scale(-1) rotate(-69.03 -13.111 -1.626)" d="M0 0v7.393"/></g></g></g></svg>