<svg xmlns="http://www.w3.org/2000/svg" width="48" height="48" viewBox="0 0 48 48"><defs><style>.cls-3{fill:#fff}.cls-2{fill:#1c89f3}.cls-3{stroke:#fff;stroke-width:.5px}</style></defs><g id="_3018" data-name="3018" transform="translate(-67 -650)"><path id="_27539" data-name="27539" d="M0 0h48v48H0z" transform="translate(67 650)" fill="#fff"/><g id="_3009" data-name="3009" transform="translate(-1)"><path id="_1291" data-name="1291" class="cls-2" transform="translate(72 652)" d="M0 0h40v39H0z"/></g><path id="_311" data-name="311" class="cls-3" d="M473.323 426.1a1.6 1.6 0 0 0-1.6 1.6v11.446a1.6 1.6 0 1 0 3.2 0V427.7a1.6 1.6 0 0 0-1.6-1.6z" transform="translate(-382.323 242.568)"/><path id="_312" data-name="312" class="cls-3" d="M440.43399999999997 213.653a2.822 2.822 0 1 0 2.822-2.823 2.822 2.822 0 0 0-2.822 2.823z" transform="translate(-352.257 449.426)"/><path id="_27543" data-name="27543" class="cls-2" d="M11 .6V8H0z" transform="rotate(180 41 348.5)"/></g></svg>