<svg xmlns="http://www.w3.org/2000/svg" width="48" height="48" viewBox="0 0 48 48"><g data-name="3653"><g data-name="3658"><g data-name="3009"><path data-name="1291" fill="#ffc729" d="M5 5h38v38H5z"/></g><g data-name="3654" transform="translate(27 9.103)" fill="#fff"><rect data-name="1507" width="12" height="3" rx="1.5" transform="translate(0 -.104)"/><rect data-name="1506" width="12" height="3" rx="1.5" transform="rotate(90 6.052 5.948)"/></g><g data-name="3657"><rect data-name="1506" width="4" height="3" rx="1.5" transform="rotate(-90 37.5 1.5)" fill="#fff"/></g><g data-name="3655" transform="translate(9 9.103)" fill="#fff"><rect data-name="1507" width="12" height="3" rx="1.5" transform="translate(0 -.104)"/><rect data-name="1509" width="12" height="3" rx="1.5" transform="translate(0 8.896)"/><rect data-name="1506" width="12" height="3" rx="1.5" transform="rotate(90 6.052 5.948)"/><rect data-name="1508" width="12" height="3" rx="1.5" transform="rotate(90 1.552 1.448)"/></g><g data-name="3656" transform="translate(9 27.571)" fill="#fff"><rect data-name="1507" width="12" height="3" rx="1.5" transform="translate(0 8.43)"/><rect data-name="1506" width="11" height="3" rx="1.5" transform="rotate(-90 5.715 5.715)"/><rect data-name="1510" width="4" height="3" rx="1.5" transform="rotate(-90 16.715 -5.285)"/><rect data-name="1511" width="4" height="3" rx="1.5" transform="rotate(-90 14.215 -2.785)"/></g></g></g></svg>