<svg xmlns="http://www.w3.org/2000/svg" width="48" height="48" viewBox="0 0 48 48"><g data-name="3021"><g data-name="3020"><path data-name="1292" fill="#fff" d="M10 8h29v16H10z"/><path data-name="27542" d="M42 10.165A6.08 6.08 0 0 0 36 4H12a6.084 6.084 0 0 0-6 6.165l-2 27.67A6.081 6.081 0 0 0 10 44h28a6.084 6.084 0 0 0 6-6.165q-.656-9.02-.978-13.527L42 10.165zm-5.5 1.366a11.576 11.576 0 0 1-3.295 8.049 12.3 12.3 0 0 1-15.911 0A9.373 9.373 0 0 1 14 12.531V12.5h3.763v.031c0 4.143 2.808 6.509 7.487 6.509s7.478-2.371 7.482-6.509v-.027L36.5 12.5z" fill="#31d7a3"/></g></g></svg>