<svg xmlns="http://www.w3.org/2000/svg" width="752" height="264" viewBox="0 0 752 264"><defs><style>.cls-3{fill:transparent}.cls-3,.cls-5,.cls-7{stroke:#cbd6e3}.cls-3,.cls-5,.cls-7,.cls-8{stroke-linejoin:round;stroke-width:4px}.cls-4,.cls-6{fill:#cbd6e3}.cls-5{fill:transparent}.cls-6{opacity:.302}.cls-7{fill:transparent}.cls-8{fill:none;stroke:#c5d0dd;stroke-linecap:round}</style></defs><g id="_illustration1" data-name="illustration1" opacity=".361"><g id="_illustration" data-name="illustration" transform="translate(2 2)"><rect id="_16" data-name="16" width="740" height="4" rx="2" transform="translate(10 258)" fill="#ced8e5"/><g id="city_illustration" data-name="city illustration"><g id="1" transform="translate(28 100)"><rect id="_6" data-name="6" class="cls-3" width="60" height="160" rx="4"/><rect id="_6__2" data-name="6 2" class="cls-3" width="12" height="16" rx="2" transform="translate(12 14)"/><rect id="_6__3" data-name="6 3" class="cls-3" width="12" height="16" rx="2" transform="translate(36 14)"/><rect id="_6__4" data-name="6 4" class="cls-3" width="12" height="16" rx="2" transform="translate(12 42)"/><rect id="_6__4-2" data-name="6 4" class="cls-3" width="12" height="16" rx="2" transform="translate(36 42)"/><rect id="_6__5" data-name="6 5" class="cls-3" width="12" height="16" rx="2" transform="translate(12 70)"/><rect id="_6__5-2" data-name="6 5" class="cls-3" width="12" height="16" rx="2" transform="translate(36 70)"/><rect id="_6__6" data-name="6 6" class="cls-3" width="12" height="16" rx="2" transform="translate(12 98)"/><rect id="_6__6-2" data-name="6 6" class="cls-3" width="12" height="16" rx="2" transform="translate(36 98)"/><rect id="_6__7" data-name="6 7" class="cls-3" width="28" height="34" rx="2" transform="translate(16 126)"/><rect id="_7" data-name="7" class="cls-4" width="40" height="4" rx="2" transform="translate(10 124)"/></g><g id="1_copy" data-name="1 copy" transform="translate(240.85 100)"><rect id="_6-2" data-name="6" class="cls-3" width="60" height="160" rx="4" transform="translate(.15)"/><rect id="_6__2-2" data-name="6 2" class="cls-3" width="12" height="16" rx="2" transform="translate(12.15 14)"/><rect id="_6__3-2" data-name="6 3" class="cls-3" width="12" height="16" rx="2" transform="translate(36.15 14)"/><rect id="_6__4-3" data-name="6 4" class="cls-3" width="12" height="16" rx="2" transform="translate(12.15 42)"/><rect id="_6__4-4" data-name="6 4" class="cls-3" width="12" height="16" rx="2" transform="translate(36.15 42)"/><rect id="_6__5-3" data-name="6 5" class="cls-3" width="12" height="16" rx="2" transform="translate(12.15 70)"/><rect id="_6__5-4" data-name="6 5" class="cls-3" width="12" height="16" rx="2" transform="translate(36.15 70)"/><rect id="_6__6-3" data-name="6 6" class="cls-3" width="12" height="16" rx="2" transform="translate(12.15 98)"/><rect id="_6__6-4" data-name="6 6" class="cls-3" width="12" height="16" rx="2" transform="translate(36.15 98)"/><rect id="_6__7-2" data-name="6 7" class="cls-3" width="28" height="34" rx="2" transform="translate(16.15 126)"/><rect id="_7-2" data-name="7" class="cls-4" width="40" height="4" rx="2" transform="translate(10.15 124)"/></g><g id="1_copy_2" data-name="1 copy 2" transform="translate(304.604 100)"><rect id="_6-3" data-name="6" class="cls-3" width="60" height="160" rx="4" transform="translate(.396)"/><rect id="_6__2-3" data-name="6 2" class="cls-3" width="12" height="16" rx="2" transform="translate(12.396 14)"/><rect id="_6__3-3" data-name="6 3" class="cls-3" width="12" height="16" rx="2" transform="translate(36.396 14)"/><rect id="_6__4-5" data-name="6 4" class="cls-3" width="12" height="16" rx="2" transform="translate(12.396 42)"/><rect id="_6__4-6" data-name="6 4" class="cls-3" width="12" height="16" rx="2" transform="translate(36.396 42)"/><rect id="_6__5-5" data-name="6 5" class="cls-3" width="12" height="16" rx="2" transform="translate(12.396 70)"/><rect id="_6__5-6" data-name="6 5" class="cls-3" width="12" height="16" rx="2" transform="translate(36.396 70)"/><rect id="_6__6-5" data-name="6 6" class="cls-3" width="12" height="16" rx="2" transform="translate(12.396 98)"/><rect id="_6__6-6" data-name="6 6" class="cls-3" width="12" height="16" rx="2" transform="translate(36.396 98)"/><rect id="_6__6_copy" data-name="6 6 copy" class="cls-3" width="12" height="16" rx="2" transform="translate(12.396 128)"/><rect id="_6__6_copy-2" data-name="6 6 copy" class="cls-3" width="12" height="16" rx="2" transform="translate(36.396 128)"/></g><g id="2" transform="translate(104 40)"><rect id="_6-4" data-name="6" class="cls-3" width="60" height="220" rx="4"/><rect id="_8" data-name="8" class="cls-5" width="44" height="8" rx="2" transform="translate(8 8)"/><rect id="_8_" data-name="8" class="cls-5" width="44" height="8" rx="2" transform="translate(8 24)"/><rect id="_8__2" data-name="8 2" class="cls-5" width="44" height="8" rx="2" transform="translate(8 40)"/><rect id="_8__2-2" data-name="8 2" class="cls-5" width="44" height="8" rx="2" transform="translate(8 56)"/><rect id="_8__3" data-name="8 3" class="cls-5" width="44" height="8" rx="2" transform="translate(8 72)"/><rect id="_8__3-2" data-name="8 3" class="cls-5" width="44" height="8" rx="2" transform="translate(8 88)"/><rect id="_8__3-3" data-name="8 3" class="cls-5" width="44" height="8" rx="2" transform="translate(8 104)"/><rect id="_8__3-4" data-name="8 3" class="cls-5" width="44" height="8" rx="2" transform="translate(8 120)"/><rect id="_8__4" data-name="8 4" class="cls-5" width="44" height="8" rx="2" transform="translate(8 136)"/><rect id="_8__4-2" data-name="8 4" class="cls-5" width="44" height="8" rx="2" transform="translate(8 152)"/><rect id="_8__4-3" data-name="8 4" class="cls-5" width="44" height="8" rx="2" transform="translate(8 168)"/><path id="_1" data-name="1" class="cls-6" d="M156.27 226.026L158 234l-22 22v-10z" transform="translate(-106 -42)"/><rect id="_8__4-4" data-name="8 4" class="cls-5" width="44" height="36" rx="2" transform="translate(8 184)"/><rect id="_9" data-name="9" class="cls-4" width="4" height="36" rx="2" transform="translate(28 184)"/></g><g id="2_copy" data-name="2 copy" transform="translate(425.029 40)"><rect id="_6-5" data-name="6" class="cls-3" width="60" height="220" rx="4" transform="translate(-.029)"/><rect id="_8-2" data-name="8" class="cls-5" width="44" height="8" rx="2" transform="translate(7.971 8)"/><rect id="_8_-2" data-name="8" class="cls-5" width="44" height="8" rx="2" transform="translate(7.971 24)"/><rect id="_8__2-3" data-name="8 2" class="cls-5" width="44" height="8" rx="2" transform="translate(7.971 40)"/><rect id="_8__2-4" data-name="8 2" class="cls-5" width="44" height="8" rx="2" transform="translate(7.971 56)"/><rect id="_8__3-5" data-name="8 3" class="cls-5" width="44" height="8" rx="2" transform="translate(7.971 72)"/><rect id="_8__3-6" data-name="8 3" class="cls-5" width="44" height="8" rx="2" transform="translate(7.971 88)"/><rect id="_8__3-7" data-name="8 3" class="cls-5" width="44" height="8" rx="2" transform="translate(7.971 104)"/><rect id="_8__3-8" data-name="8 3" class="cls-5" width="44" height="8" rx="2" transform="translate(7.971 120)"/><rect id="_8__4-5" data-name="8 4" class="cls-5" width="44" height="8" rx="2" transform="translate(7.971 136)"/><rect id="_8__4-6" data-name="8 4" class="cls-5" width="44" height="8" rx="2" transform="translate(7.971 152)"/><rect id="_8__4-7" data-name="8 4" class="cls-5" width="44" height="8" rx="2" transform="translate(7.971 168)"/><path id="_1-2" data-name="1" class="cls-6" d="M450.27 226.026L452 234l-22 22v-10z" transform="translate(-400.58 -42)"/><rect id="_8__4-8" data-name="8 4" class="cls-5" width="44" height="36" rx="2" transform="translate(7.971 184)"/><rect id="_9-2" data-name="9" class="cls-4" width="4" height="36" rx="2" transform="translate(27.971 184)"/></g><g transform="translate(322.14 101.004)"><g id="_7" data-name="7"><path id="_8" data-name="8" class="cls-7" d="M574 168c14.359 0 26 22.327 26 40s-11.641 24-26 24-26-6.327-26-24 11.641-40 26-40z" transform="translate(-282.014 -103.004)"/><path id="_21" data-name="21" class="cls-4" d="M4 27V11.359L.134 7.515A1.011 1.011 0 0 1 .5 6.139a1 1 0 0 1 1.366.369L4 8.629V1a1 1 0 1 1 2 0v6.229l2.134-3.721A1 1 0 0 1 9.5 3.139a1.01 1.01 0 0 1 .366 1.375L6 11.257V27a1 1 0 1 1-2 0z"/></g><g id="_7_" data-name="7" transform="translate(225.986 104.996)"><path id="_8-2" data-name="8" class="cls-7" d="M524 208c8.837 0 16 13.257 16 23.75S532.837 246 524 246s-16-3.757-16-14.25S515.163 208 524 208z" transform="translate(-508 -208)"/><rect id="_21-2" data-name="21" class="cls-4" width="4" height="24" rx="2" transform="translate(13.874 30)"/></g></g><g id="sun" transform="translate(313.146 5)"><circle id="_1" data-name="1" class="cls-5" cx="14" cy="14" r="14" transform="translate(288.854 23)"/><path id="_15" data-name="15" class="cls-4" d="M13.98 28.966v-2a1 1 0 1 1 2 0v2a1 1 0 0 1-2 0zm10.18-3.389l-1.414-1.414a1 1 0 0 1 1.414-1.415l1.415 1.415a1 1 0 0 1-1.415 1.414zm-19.775 0a1 1 0 0 1 0-1.414L5.8 22.748a1 1 0 1 1 1.414 1.415L5.8 25.577a1 1 0 0 1-1.415 0zm22.577-9.594a1 1 0 0 1 0-2h2a1 1 0 1 1 0 2zM1 15.98a1 1 0 0 1 0-2h2a1 1 0 0 1 0 2zm21.746-8.764a1 1 0 0 1 0-1.414l1.414-1.414A1 1 0 0 1 25.574 5.8L24.16 7.216a1 1 0 0 1-1.414 0zm-16.946 0L4.385 5.8A1 1 0 0 1 5.8 4.388L7.214 5.8A1 1 0 1 1 5.8 7.216zM13.98 3V1a1 1 0 0 1 2 0v2a1 1 0 0 1-2 0z"/></g><path id="_4" data-name="4" class="cls-8" d="M2 16h56m18 0h10" transform="translate(-2 -2)"/><path id="_4_" data-name="4" class="cls-8" d="M624 84h29.179m18.439 0H680m12 0h4" transform="translate(40.126 -2)"/><path id="_4__2" data-name="4 2" class="cls-8" d="M536 2h-17.179m-12.439 0H498m-12 0h-4" transform="translate(29.594 -2)"/></g></g></g></svg>