<svg xmlns="http://www.w3.org/2000/svg" width="106" height="106" viewBox="0 0 106 106">
  <g id="组_1" data-name="组 1" transform="translate(-126 -410.5)">
    <rect id="矩形_4" data-name="矩形 4" width="106" height="106" transform="translate(126 410.5)" fill="#fff" opacity="0"/>
    <g id="Group_2" data-name="Group 2" transform="translate(29.351 325.536)">
      <g id="Group" transform="translate(97.344 115.798)">
        <path id="Path" d="M0,5.781,35.524,0V33.632L1.772,31.865,0,5.781Z" transform="translate(12.862 10.265)" fill="#b1b1b1"/>
        <path id="Path-2" data-name="Path" d="M0,0,42.6,3.188,40.243,32.456,0,33.632V0Z" transform="translate(48.386 10.265)" fill="#a7a7a7"/>
        <path id="Path-3" data-name="Path" d="M13.1,0,0,10.265l42.6,3.188,6.962-10.5L13.1,0Z" transform="translate(48.386)" fill="#d1d1d1"/>
        <path id="Path-4" data-name="Path" d="M0,3.894,31.981,0,48.386,9.324,12.862,15.1,0,3.894Z" transform="translate(0 0.941)" fill="#d1d1d1"/>
        <path id="Path-5" data-name="Path" d="M43.311,2.953V48.935L26.67,47.228l-7.239-.738-2.205-.231-7.234-.743L0,44.492V0L35.519,2.417l7.792.535Z" transform="translate(12.862 16.046)" fill="#e9e9e9"/>
        <path id="Path-6" data-name="Path" d="M34.813,0V44.843L21.476,47.4l-6.487,1.246L0,51.528V5.545L34.813,0Z" transform="translate(56.174 13.453)" fill="#d1d1d1"/>
        <path id="Path-7" data-name="Path" d="M0,9.679,12.862,0,56.174,2.953,49.8,13.693,0,9.679Z" transform="translate(0 16.046)" fill="#d1d1d1"/>
        <path id="Path-8" data-name="Path" d="M34.813,0,0,5.545,11.331,15.7,48.621,9.439,34.813,0Z" transform="translate(56.174 13.453)" fill="#bfbcbc"/>
      </g>
      <rect id="矩形_1" data-name="矩形 1" width="4" height="12" rx="2" transform="translate(184.178 100.167) rotate(42)" fill="#d1d1d1"/>
      <rect id="矩形_2" data-name="矩形 2" width="4" height="12" rx="2" transform="translate(146.649 94.964)" fill="#d1d1d1"/>
      <rect id="矩形_3" data-name="矩形 3" width="4" height="12" rx="2" transform="translate(112.204 103.748) rotate(-41)" fill="#d1d1d1"/>
    </g>
  </g>
</svg>
