<svg xmlns="http://www.w3.org/2000/svg" width="192" height="192" viewBox="0 0 192 192"><defs><style>.cls-2{fill:#fff}.cls-3{fill:#fe7474}.cls-4{fill:#ffe019}</style></defs><g id="logo_xiaoyou_g" transform="translate(2556 4016)"><path id="_1445" data-name="1445" transform="translate(-2556 -4016)" fill="#31d7a3" d="M0 0h192v192H0z"/><g id="_3184" data-name="3184" transform="translate(-848.559 -65.504)"><g id="_3182" data-name="3182" transform="translate(-1626.553 -3915)"><path id="_27735" data-name="27735" class="cls-2" d="M15.112 0a15.112 15.112 0 0 1 15.112 15.112v46.226H0V15.112A15.112 15.112 0 0 1 15.112 0z" transform="translate(0 37.336)"/><rect id="_1439" data-name="1439" class="cls-2" width="30" height="31" rx="15" transform="translate(.112 -.496)"/><rect id="_1442" data-name="1442" class="cls-2" width="30" height="31" rx="15" transform="translate(.112 89.504)"/><path id="_1443" data-name="1443" class="cls-2" transform="translate(.112 92.504)" d="M0 0h30v12H0z"/></g><g id="_3183" data-name="3183" transform="translate(-1663 -3897.221)"><rect id="_1441" data-name="1441" class="cls-3" width="22" height="22" rx="11" transform="translate(-.441 -.275)"/><path id="_1437" data-name="1437" class="cls-3" d="M31 0v37A31 31 0 0 1 0 68V31A31 31 0 0 1 31 0z" transform="translate(-.441 21.725)"/></g><g id="_3181" data-name="3181" transform="translate(-1590.106 -3897.221)"><rect id="_1440" data-name="1440" class="cls-4" width="22" height="22" rx="11" transform="translate(8.665 -.275)"/><path id="_1438" data-name="1438" class="cls-4" d="M0 0a31 31 0 0 1 31 31v37A31 31 0 0 1 0 37V0z" transform="translate(-.335 21.725)"/></g></g></g></svg>