<svg xmlns="http://www.w3.org/2000/svg" width="325" height="326" viewBox="0 0 325 326"><defs><style>.cls-9{fill:#fff}</style><filter id="Mask" x="18.34" y="18.41" width="288.32" height="289.18" filterUnits="userSpaceOnUse"><feOffset dy="10"/><feGaussianBlur stdDeviation="10" result="blur"/><feFlood flood-color="#9b68ff" flood-opacity=".302"/><feComposite operator="in" in2="blur"/><feComposite in="SourceGraphic"/></filter><filter id="Mask_Copy" x="0" y="0" width="325" height="326" filterUnits="userSpaceOnUse"><feOffset dy="10"/><feGaussianBlur stdDeviation="10" result="blur-2"/><feFlood flood-color="#9b68ff" flood-opacity=".302"/><feComposite operator="in" in2="blur-2"/><feComposite in="SourceGraphic"/></filter><filter id="Mask-2" x="36.69" y="36.83" width="252.16" height="252.88" filterUnits="userSpaceOnUse"><feOffset dy="10"/><feGaussianBlur stdDeviation="10" result="blur-3"/><feFlood flood-color="#41e78f" flood-opacity=".302"/><feComposite operator="in" in2="blur-3"/><feComposite in="SourceGraphic"/></filter><clipPath id="clip-path"><ellipse id="vectorMask" cx="130.18" cy="130.34" rx="130.18" ry="130.34" fill="none"/></clipPath></defs><g id="Group_2" data-name="Group 2" transform="translate(30 20)"><g transform="translate(-30 -20)" filter="url(#Mask)"><ellipse id="Mask-3" data-name="Mask" cx="114.16" cy="114.59" rx="114.16" ry="114.59" transform="translate(48.34 38.41)" opacity=".2" fill="#feaf32"/></g><g transform="translate(-30 -20)" filter="url(#Mask_Copy)"><ellipse id="Mask_Copy-2" data-name="Mask Copy" cx="132.5" cy="133" rx="132.5" ry="133" transform="translate(30 20)" opacity=".102" fill="#feaf32"/></g><g id="Page_1" data-name="Page 1" transform="translate(2.49 3.06)"><g transform="translate(-32.49 -23.06)" filter="url(#Mask-2)"><path id="Mask-4" data-name="Mask" d="M96.08 0c53.064 0 96.08 43.178 96.08 96.44s-43.016 96.44-96.08 96.44S0 149.7 0 96.44 43.016 0 96.08 0z" transform="translate(66.69 56.83)" fill="rgba(254,175,50,.7)"/></g><g id="Mask_by_Mask" data-name="Mask by Mask" clip-path="url(#clip-path)"><path id="Stroke_24" data-name="Stroke 24" stroke="#e5fffb" stroke-linecap="round" stroke-linejoin="round" stroke-width="2.976" fill="none" d="M230.73 109.599l-9.11-9.101"/><path id="Fill_7" data-name="Fill 7" d="M59.658 110.9H28.9a3.5 3.5 0 0 1 0-7h11.884V71a54 54 0 0 1-9.764-1.515 49.891 49.891 0 0 1-8.98-3.185 44.272 44.272 0 0 1-7.87-4.72 38.411 38.411 0 0 1-6.435-6.115C1.112 47.472-1.326 37.534.685 26.723A60.88 60.88 0 0 1 12.443 1.342 3.464 3.464 0 0 1 15.191 0h58.17a3.467 3.467 0 0 1 2.749 1.342 60.914 60.914 0 0 1 11.759 25.381c2.012 10.807-.425 20.744-7.048 28.738a38.432 38.432 0 0 1-6.436 6.116 44.281 44.281 0 0 1-7.87 4.721 49.888 49.888 0 0 1-8.98 3.187A53.987 53.987 0 0 1 47.769 71v32.9h11.889a3.5 3.5 0 0 1 0 7zm5.506-87.825l9.564 4.193 9.859 6.307v-10.5C84.513 22.92 76.742 7 74.729 2.966h-54.4L15.91 4.67 7.961 16.256c-.036.1-3.616 9.9-3.951 11.01s1.343 5.13 1.36 5.171h3.049l9.191-6.976 7.8-1.708 5.123 2.254 8.5 6.43h9.945l7.394-5.171 8.8-4.193z" transform="translate(85.475 91.292)" fill="transparent"/><ellipse id="_3" data-name="3" cx="70" cy="70.005" rx="70" ry="70.005" transform="translate(62.01 62.435)" fill="#feaf32"/><g id="_2920" data-name="2920" transform="translate(2 -5)"><rect id="_1206" data-name="1206" class="cls-9" width="55" height="13" rx="6.5" transform="rotate(90 19.285 116.725)"/><rect id="_1207" data-name="1207" class="cls-9" width="13" height="13" rx="6.5" transform="rotate(90 -14.215 150.225)"/></g></g></g></g></svg>