<svg xmlns="http://www.w3.org/2000/svg" width="325" height="325.98" viewBox="0 0 325 325.98"><defs><style></style><filter id="Mask" x="18.34" y="18.41" width="288.32" height="289.16" filterUnits="userSpaceOnUse"><feOffset dy="10"/><feGaussianBlur stdDeviation="10" result="blur"/><feFlood flood-color="#9b68ff" flood-opacity=".302"/><feComposite operator="in" in2="blur"/><feComposite in="SourceGraphic"/></filter><filter id="Mask_Copy" x="0" y="0" width="325" height="325.98" filterUnits="userSpaceOnUse"><feOffset dy="10"/><feGaussianBlur stdDeviation="10" result="blur-2"/><feFlood flood-color="#9b68ff" flood-opacity=".302"/><feComposite operator="in" in2="blur-2"/><feComposite in="SourceGraphic"/></filter><filter id="Mask-2" x="36.69" y="36.83" width="252.16" height="252.86" filterUnits="userSpaceOnUse"><feOffset dy="10"/><feGaussianBlur stdDeviation="10" result="blur-3"/><feFlood flood-color="#41e78f" flood-opacity=".302"/><feComposite operator="in" in2="blur-3"/><feComposite in="SourceGraphic"/></filter><clipPath id="clip-path"><ellipse id="vectorMask" cx="130.18" cy="130.33" rx="130.18" ry="130.33" transform="translate(244.99 356.57)" fill="none"/></clipPath></defs><g id="Group_2" data-name="Group 2" transform="translate(-212.5 -333.51)"><g transform="translate(212.5 333.51)" filter="url(#Mask)"><ellipse id="Mask-3" data-name="Mask" cx="114.16" cy="114.58" rx="114.16" ry="114.58" transform="translate(48.34 38.41)" opacity=".2" fill="#31d7a3"/></g><g transform="translate(212.5 333.51)" filter="url(#Mask_Copy)"><path id="Mask_Copy-2" data-name="Mask Copy" d="M132.5 0C205.678 0 265 59.542 265 132.99s-59.322 132.99-132.5 132.99S0 206.438 0 132.99 59.322 0 132.5 0z" transform="translate(30 20)" opacity=".102" fill="#31d7a3"/></g><g id="Page_1" data-name="Page 1"><g transform="translate(212.5 333.51)" filter="url(#Mask-2)"><path id="Mask-4" data-name="Mask" d="M96.08 0c53.064 0 96.08 43.173 96.08 96.43s-43.016 96.43-96.08 96.43S0 149.687 0 96.43 43.016 0 96.08 0z" transform="translate(66.69 56.83)" fill="rgba(49,215,163,.7)"/></g><g id="Mask_by_Mask" data-name="Mask by Mask" clip-path="url(#clip-path)"><g id="Mask_by_Mask-2" data-name="Mask by Mask"><g id="Page_1-2" data-name="Page 1"><g id="Group_4" data-name="Group 4"><g id="Group_3" data-name="Group 3"><path id="Fill_7" data-name="Fill 7" d="M390.123 558.744H359.36a3.5 3.5 0 0 1 0-7h11.889v-32.893a54 54 0 0 1-9.764-1.515 49.891 49.891 0 0 1-8.98-3.186 44.271 44.271 0 0 1-7.87-4.719 38.41 38.41 0 0 1-6.435-6.114c-6.624-7.992-9.062-17.93-7.052-28.74a60.873 60.873 0 0 1 11.76-25.377 3.464 3.464 0 0 1 2.748-1.342h58.171a3.467 3.467 0 0 1 2.749 1.342 60.907 60.907 0 0 1 11.758 25.379c2.012 10.806-.425 20.743-7.048 28.736a38.43 38.43 0 0 1-6.436 6.116 44.28 44.28 0 0 1-7.87 4.721 49.888 49.888 0 0 1-8.98 3.187 53.987 53.987 0 0 1-9.765 1.515v32.894h11.889a3.5 3.5 0 0 1 0 7zm5.506-87.818l9.564 4.193 9.859 6.306v-10.5c-.074-.152-7.845-16.07-9.859-20.105h-54.4l-4.419 1.7-7.949 11.585c-.036.1-3.616 9.9-3.951 11.009s1.343 5.13 1.36 5.17h3.049l9.191-6.975 7.8-1.708 5.123 2.254 8.5 6.43h9.945l7.394-5.17 8.8-4.193z" fill="transparent"/><circle id="_3" data-name="3" cx="70" cy="70" r="70" transform="translate(307 419)" fill="#31d7a3"/><path id="_1" data-name="1" d="M368.9 519.958a10.4 10.4 0 0 1-7.611-3.336l-21.745-23.839a5.2 5.2 0 0 1 .3-7.34 5.147 5.147 0 0 1 7.309.3l21.747 23.782 38.658-48.952a5.211 5.211 0 1 1 8.154 6.49l-38.778 48.952a10.172 10.172 0 0 1-7.731 3.882.45.45 0 0 1-.3.061z" fill="#fff"/></g></g></g></g></g></g></g></svg>