<svg xmlns="http://www.w3.org/2000/svg" xmlns:xlink="http://www.w3.org/1999/xlink" width="690" height="208" viewBox="0 0 690 208">
  <defs>
    <style>
      .cls-1 {
        fill: #fff;
      }

      .cls-2 {
        fill: #0290fe;
      }

      .cls-24, .cls-26, .cls-29, .cls-3, .cls-33, .cls-34, .cls-36, .cls-37, .cls-40, .cls-56 {
        fill: none;
      }

      .cls-4 {
        fill: #ff6e81;
      }

      .cls-5 {
        fill: #fc5151;
      }

      .cls-6 {
        fill: url(#linear-gradient);
      }

      .cls-7 {
        fill: #306fb3;
      }

      .cls-8 {
        fill: #a6feff;
      }

      .cls-9 {
        fill: url(#linear-gradient-2);
      }

      .cls-10 {
        clip-path: url(#clip-path);
      }

      .cls-11 {
        fill: #31d7a3;
      }

      .cls-12 {
        clip-path: url(#clip-path-2);
      }

      .cls-13 {
        opacity: 0.59;
      }

      .cls-14 {
        fill: #6ec4f4;
        opacity: 0.68;
      }

      .cls-14, .cls-26, .cls-30, .cls-40, .cls-41 {
        mix-blend-mode: multiply;
      }

      .cls-14, .cls-24, .cls-26, .cls-29, .cls-30, .cls-34, .cls-37, .cls-40, .cls-41 {
        isolation: isolate;
      }

      .cls-15 {
        fill: #ff602d;
      }

      .cls-16 {
        fill: #2a5199;
      }

      .cls-17 {
        fill: #3daeff;
      }

      .cls-18 {
        clip-path: url(#clip-path-3);
      }

      .cls-19 {
        fill: #89f4ab;
      }

      .cls-20 {
        opacity: 0.69;
      }

      .cls-21 {
        fill: #cbcbcb;
      }

      .cls-22 {
        fill: #e5e5e5;
      }

      .cls-23 {
        clip-path: url(#clip-path-4);
      }

      .cls-24 {
        stroke: #ff6e81;
      }

      .cls-24, .cls-26, .cls-29, .cls-33, .cls-34, .cls-36, .cls-37, .cls-40 {
        stroke-miterlimit: 10;
      }

      .cls-24, .cls-26, .cls-33, .cls-34, .cls-36, .cls-37, .cls-40 {
        stroke-width: 0.752px;
      }

      .cls-24, .cls-29, .cls-34, .cls-37 {
        mix-blend-mode: screen;
      }

      .cls-25 {
        clip-path: url(#clip-path-5);
      }

      .cls-26 {
        stroke: #fc5151;
      }

      .cls-27 {
        opacity: 0.73;
      }

      .cls-28 {
        clip-path: url(#clip-path-6);
      }

      .cls-29 {
        stroke: #707070;
        stroke-width: 1.002px;
      }

      .cls-30 {
        fill: #9d73ff;
      }

      .cls-30, .cls-40, .cls-41 {
        opacity: 0.5;
      }

      .cls-31 {
        opacity: 0.41;
      }

      .cls-32 {
        clip-path: url(#clip-path-7);
      }

      .cls-33, .cls-34 {
        stroke: #134f8f;
      }

      .cls-35 {
        clip-path: url(#clip-path-8);
      }

      .cls-36, .cls-37 {
        stroke: #e3ffff;
        opacity: 0.65;
      }

      .cls-38 {
        opacity: 0.09;
      }

      .cls-39 {
        clip-path: url(#clip-path-9);
      }

      .cls-40 {
        stroke: #ff7569;
      }

      .cls-41 {
        fill: #ff7569;
      }

      .cls-42 {
        fill: #ffaf0e;
      }

      .cls-43 {
        fill: url(#pattern);
      }

      .cls-44 {
        fill: #e2b89c;
      }

      .cls-45 {
        fill: #ce9671;
      }

      .cls-46 {
        fill: #e6a89f;
      }

      .cls-47 {
        fill: #edb8b0;
      }

      .cls-48 {
        fill: #e09489;
      }

      .cls-49 {
        fill: #fed6d7;
      }

      .cls-50 {
        fill: #ff4c00;
      }

      .cls-51 {
        fill: #515151;
      }

      .cls-52 {
        fill: #fdbbbb;
      }

      .cls-53 {
        fill: #f7a9a9;
      }

      .cls-54 {
        fill: #24136d;
      }

      .cls-55 {
        fill: #ff4b00;
      }

      .cls-56 {
        stroke: #ffa984;
        stroke-linecap: round;
        stroke-linejoin: round;
        stroke-width: 2.261px;
      }
    </style>
    <linearGradient id="linear-gradient" x1="-23.864" y1="31.892" x2="-24.37" y2="31.025" gradientUnits="objectBoundingBox">
      <stop offset="0.001" stop-color="#ff9eab"/>
      <stop offset="1" stop-color="#c35cff"/>
    </linearGradient>
    <linearGradient id="linear-gradient-2" x1="-37.326" y1="18.595" x2="-36.523" y2="18.595" gradientUnits="objectBoundingBox">
      <stop offset="0.001" stop-color="#ff9306"/>
      <stop offset="1" stop-color="#ff9901"/>
    </linearGradient>
    <clipPath id="clip-path">
      <rect id="矩形_280" data-name="矩形 280" class="cls-1" width="690" height="208" transform="translate(9952 1742.918)"/>
    </clipPath>
    <clipPath id="clip-path-2">
      <rect id="矩形_279" data-name="矩形 279" class="cls-2" width="690" height="165.971"/>
    </clipPath>
    <clipPath id="clip-path-3">
      <ellipse id="椭圆_31" data-name="椭圆 31" class="cls-3" cx="26.248" cy="26.689" rx="26.248" ry="26.689"/>
    </clipPath>
    <clipPath id="clip-path-4">
      <path id="路径_264" data-name="路径 264" class="cls-4" d="M547.62,198.035l-11.208-14.143a.6.6,0,0,1,.621-.963l24.323,6.818a3.54,3.54,0,0,1,1.9,1.325l10.323,14.141Z" transform="translate(-536.277 -182.906)"/>
    </clipPath>
    <clipPath id="clip-path-5">
      <path id="路径_267" data-name="路径 267" class="cls-5" d="M566,238.132a20.023,20.023,0,0,1-1.534,5.95,17.486,17.486,0,0,1-2.809,3.549l25.961,7.178.047.034s6.528-2.467,4.344-9.5l-25.961-7.178" transform="translate(-561.657 -238.132)"/>
    </clipPath>
    <clipPath id="clip-path-6">
      <path id="路径_446" data-name="路径 446" class="cls-6" d="M639.52,522.627l-10.19,20.54a7.607,7.607,0,0,1-10.267,3.439l-21.079-10.812a7.857,7.857,0,0,1-3.382-10.44l10.19-20.54a7.607,7.607,0,0,1,10.268-3.439l21.079,10.812A7.858,7.858,0,0,1,639.52,522.627Z" transform="translate(-593.786 -500.546)"/>
    </clipPath>
    <clipPath id="clip-path-7">
      <path id="路径_220" data-name="路径 220" class="cls-7" d="M189.1,382.572,169.847,389c-1.534.512-3.063-.876-3.416-3.1l-6.7-42.209c-.353-2.224.6-4.443,2.137-4.955l19.254-6.432c1.534-.512,3.063.875,3.416,3.1l6.7,42.209C191.592,379.841,190.635,382.06,189.1,382.572Z" transform="translate(-159.655 -332.202)"/>
    </clipPath>
    <clipPath id="clip-path-8">
      <path id="路径_227" data-name="路径 227" class="cls-8" d="M221.612,425.624l-20.831,6.959-6.3-39.689,20.831-6.959Z" transform="translate(-194.479 -385.935)"/>
    </clipPath>
    <clipPath id="clip-path-9">
      <path id="路径_454" data-name="路径 454" class="cls-9" d="M155.138,1004.247l10.1,9.308a4.751,4.751,0,0,1,.318,6.613L156,1030.88a4.564,4.564,0,0,1-6.5.323l-10.1-9.308a4.751,4.751,0,0,1-.318-6.613l9.553-10.712A4.564,4.564,0,0,1,155.138,1004.247Z" transform="translate(-137.894 -1003.039)"/>
    </clipPath>
    <pattern id="pattern" preserveAspectRatio="none" width="100%" height="100%" viewBox="0 0 0 0">
      <image/>
    </pattern>
  </defs>
  <g id="img_capsule_home" class="cls-10" transform="translate(-9952 -1742.918)">
    <g id="组_923" data-name="组 923" transform="translate(9952 1742.844)">
      <rect id="矩形_278" data-name="矩形 278" class="cls-11" width="690" height="165.971" rx="82.986" transform="translate(0 42.103)"/>
      <g id="蒙版组_2" data-name="蒙版组 2" class="cls-12" transform="translate(0 42.103)">
        <g id="组_915" data-name="组 915" transform="translate(-6.397 -17.594)">
          <g id="组_828" data-name="组 828" class="cls-13" transform="translate(313.415 42.638)">
            <path id="路径_204" data-name="路径 204" class="cls-1" d="M659.636,1134.4s2.288-3.067-3.45-7.842-12.01-1.315-16.568-3.72-3.458-3.573-6.283-6.326-8.357-2.847-7.3,3.273,6.657,9.337,10.911,11.853-2.306,2.234,5.524,9.048S658.459,1141.4,659.636,1134.4Z" transform="translate(-563.619 -996.516)"/>
            <path id="路径_205" data-name="路径 205" class="cls-1" d="M118.087,136.833c.916-2.752-.776-5.851.437-8.674,2.075-4.828,2.108-11.638-3.7-14.142s-18.677.512-14.762,18.143c1.15,5.178,4.745,9.62,10.535,8.85,2.134-.284,5.246-.8,6.754-2.782A4.778,4.778,0,0,0,118.087,136.833Z" transform="translate(-99.33 -113.249)"/>
          </g>
          <g id="组_829" data-name="组 829" transform="translate(467.984 26.106)">
            <path id="路径_206" data-name="路径 206" class="cls-14" d="M728.863-26.685s-13.839.723-11.161,9.8c1.338,4.536,6.588,2.913,9.637,5.29s6.454,8.99,11.535,6.923S741.16-28.752,728.863-26.685Z" transform="translate(-680.326 26.822)"/>
            <path id="路径_207" data-name="路径 207" class="cls-14" d="M414.573,1052.16s2.2-4.677-.368-8.5-9.285-2.742-9.914-8.5,17.793-8.841,16.493,8.546S414.573,1052.16,414.573,1052.16Z" transform="translate(-404.276 -905.825)"/>
          </g>
        </g>
      </g>
      <g id="组_846" data-name="组 846" transform="translate(105.906 71.253)">
        <path id="路径_245" data-name="路径 245" class="cls-15" d="M418.177,756.431l1.905,14.107,10.412-16.569Zm3,2.4,4.155-.831-3.512,5.59Z" transform="translate(-418.177 -753.968)"/>
      </g>
      <g id="组_922" data-name="组 922" transform="translate(17.064 137.655)">
        <path id="路径_246" data-name="路径 246" class="cls-16" d="M211.32,723.71,170.768,674.3l1.977-1.678L213.3,722.032Z" transform="translate(-165.234 -666.057)"/>
        <path id="路径_247" data-name="路径 247" class="cls-16" d="M287.894,799.554c1.172,1.427-2.057,6.131-7.213,10.506s-10.284,6.765-11.456,5.338,2.057-6.131,7.213-10.507S286.723,798.127,287.894,799.554Z" transform="translate(-231.1 -750.99)"/>
        <ellipse id="椭圆_30" data-name="椭圆 30" class="cls-17" cx="26.248" cy="26.689" rx="26.248" ry="26.689" transform="translate(0 4.371)"/>
        <path id="路径_248" data-name="路径 248" class="cls-16" d="M213.233,707.376l-1.666-2A28.667,28.667,0,0,0,218.4,670.84a27.788,27.788,0,0,0-37.6-12.511,28.113,28.113,0,0,0-5.438,3.662l-1.662-2a30.688,30.688,0,0,1,5.936-4,30.346,30.346,0,0,1,41.061,13.662A31.3,31.3,0,0,1,213.233,707.376Z" transform="translate(-167.198 -652.641)"/>
        <g id="组_850" data-name="组 850" transform="translate(0 4.371)">
          <g id="组_849" data-name="组 849" class="cls-18" transform="translate(0)">
            <g id="组_848" data-name="组 848" transform="translate(3.573 -2.098)">
              <path id="路径_249" data-name="路径 249" class="cls-19" d="M213.509,660.719s-2.244,4.68-4.147,6.286-2.308,1.883-1.954,3.134-.071,2.57.8,4.322,1.739,2.283,3.082,2.081a8.112,8.112,0,0,1,3.527.261c1.082.3,3.5-.948,4.4-.8s1.627,1.363,2.634,1.455,1.862.839,2.128-.075a7.5,7.5,0,0,0-.177-3.01c-.15-1.024-.614-2.171.415-3.027s1.479-1.619,2.536-1.185,2.981,1.154,2.556,2.474a8.209,8.209,0,0,0-.359,4.588c.349,2.388-1.351-1.261-2.783-.033a12.7,12.7,0,0,0-2.528,2.893c-.914,1.224-2.327,4.981-.565,5.378s-.48,4.406,2.057,4.126,5.6-2.519,6.9-2.331.538,1.8,3.031,1.5a7.2,7.2,0,0,1,4.489.622c1.226.469,2.76,1.857,3.052,1.718s1.646-11.844,1.646-11.844l-5.43-9.51-9.026-7.622-6.425-2.559Z" transform="translate(-193.3 -659.554)"/>
              <path id="路径_250" data-name="路径 250" class="cls-19" d="M199.581,746.614c-1.408-.469-5.214-2.108-7.047-2.256s-2.166,1.95-3.356.77-2.166-2-2.188-2.858.478-2-.9-3.677-2.332-4.12-3.941-4.8a11.476,11.476,0,0,0-6.081-.089c-1.28.415-3.044,1.515-4.055,1.845,0,0-4.366,1.272-5.53,2.85s-1.892,2.529-1.611,4.3,1.368,6.123,1.392,6.894-1.025,2.046.274,2.721,3.936.417,6.141.015,5.663.261,7.24-.919a58.624,58.624,0,0,0,4.472-4.506c.92-.841,1.875-1.822,2.213-1.385s.019,2.787-1.44,3.914a17.962,17.962,0,0,0-2.658,2.478c-.661.708-3.053,1.941-.413,2.17s5.974.712,6.519,1.287-.7,2.253,1.176,2.359a26.475,26.475,0,0,0,4.99.169c2.352-.191,3.588,1.967,5.528,2.009s2.511-.344,3.7-.236,1.185.558,1-.9a5.713,5.713,0,0,1-.992-4.081C204.41,752.442,200.446,746.9,199.581,746.614Z" transform="translate(-164.812 -709.086)"/>
              <g id="组_847" data-name="组 847" transform="translate(0.681 4.381)">
                <path id="路径_251" data-name="路径 251" class="cls-1" d="M199.567,738.565c-11.4-.982-20.009-5.182-25.576-12.48-9.5-12.458-6.748-29.864-6.719-30.039l.847.145c-.028.171-2.717,17.213,6.555,29.364,5.413,7.095,13.813,11.179,24.965,12.14Z" transform="translate(-166.88 -688.433)"/>
                <path id="路径_252" data-name="路径 252" class="cls-1" d="M233.17,709.932l-.858-.018c.235-10.9-2.75-19.568-8.871-25.772-10.549-10.688-27.011-10.391-27.176-10.387l-.021-.872c.168,0,16.985-.316,27.8,10.636C230.339,689.9,233.41,698.784,233.17,709.932Z" transform="translate(-186.571 -672.882)"/>
                <path id="路径_253" data-name="路径 253" class="cls-1" d="M222.082,720.206l-.855.076c-2.32-27.011-34.635-39.924-34.962-40.052l.308-.814C186.905,679.544,219.716,692.657,222.082,720.206Z" transform="translate(-179.881 -677.268)"/>
                <path id="路径_254" data-name="路径 254" class="cls-1" d="M211.253,729.954c-26.6-6.978-34.347-42.215-34.421-42.57l.839-.184c.074.35,7.708,35.068,33.8,41.91Z" transform="translate(-173.554 -682.494)"/>
                <path id="路径_255" data-name="路径 255" class="cls-1" d="M215.387,724.414l-35.841-41.8.646-.574,35.841,41.8Z" transform="translate(-175.374 -679.032)"/>
              </g>
            </g>
          </g>
        </g>
      </g>
      <g id="组_921" data-name="组 921" class="cls-20" transform="translate(497.122 58.876)">
        <path id="路径_256" data-name="路径 256" class="cls-4" d="M520.309,245.952c-.26.349-1.576-.327-1.947-.565l-13.522-8.06a.861.861,0,0,1-.262-1.176.83.83,0,0,1,1.157-.267l14.242,9.127a.861.861,0,0,1,.262,1.176C520.226,246.208,520.323,245.932,520.309,245.952Z" transform="translate(-504.448 -221.309)"/>
        <path id="路径_257" data-name="路径 257" class="cls-21" d="M512.66,233.519l13.148,9.9a.556.556,0,0,0,.217.1c1.865.42,25.312,5.7,25.412,5.524s-17.5-10.515-18.669-11.2a.534.534,0,0,0-.135-.056l-19.474-5.323A.593.593,0,0,0,512.66,233.519Z" transform="translate(-510.237 -218.905)"/>
        <path id="路径_258" data-name="路径 258" class="cls-22" d="M515.512,228.038l13.379,10.322a.582.582,0,0,0,.234.108l23.4,4.957a.59.59,0,0,0,.668-.784l-2.362-6.605a.587.587,0,0,0-.408-.373l-34.417-8.673A.593.593,0,0,0,515.512,228.038Z" transform="translate(-512.311 -214.926)"/>
        <path id="路径_259" data-name="路径 259" class="cls-1" d="M518.811,214.691,532.07,227a.582.582,0,0,0,.3.148l25.242,4.056a.592.592,0,0,0,.58-.91l-7.813-12.211a.584.584,0,0,0-.413-.265l-30.688-4.152A.594.594,0,0,0,518.811,214.691Z" transform="translate(-514.737 -205.253)"/>
        <path id="路径_260" data-name="路径 260" class="cls-22" d="M525.031,200.112l13.561,13.671a.585.585,0,0,0,.256.151l23.108,6.478a.591.591,0,0,0,.645-.9l-9.014-14.087a.585.585,0,0,0-.366-.257l-27.655-6.062A.593.593,0,0,0,525.031,200.112Z" transform="translate(-519.266 -194.671)"/>
        <path id="路径_261" data-name="路径 261" class="cls-21" d="M542.192,207.317l-12.4-13.921a.592.592,0,0,1,.577-.974l27.022,7.006a.584.584,0,0,1,.318.213l8.116,10.718a.593.593,0,0,1-.557.948l-22.737-3.8A.581.581,0,0,1,542.192,207.317Z" transform="translate(-522.737 -189.806)"/>
        <g id="组_853" data-name="组 853" transform="translate(8.719 0)">
          <path id="路径_262" data-name="路径 262" class="cls-4" d="M547.62,198.035l-11.208-14.143a.6.6,0,0,1,.621-.963l24.323,6.818a3.54,3.54,0,0,1,1.9,1.325l10.323,14.141Z" transform="translate(-536.277 -182.906)"/>
          <g id="组_852" data-name="组 852" class="cls-23" transform="translate(0 0)">
            <path id="路径_263" data-name="路径 263" class="cls-24" d="M536.416,169.408a142.486,142.486,0,0,1,37.052,14.74" transform="translate(-536.378 -173.097)"/>
          </g>
        </g>
        <g id="组_855" data-name="组 855" transform="translate(15.671 15.095)">
          <path id="路径_265" data-name="路径 265" class="cls-5" d="M566,238.132a20.023,20.023,0,0,1-1.534,5.95,17.486,17.486,0,0,1-2.809,3.549l25.961,7.178.047.034s6.528-2.467,4.344-9.5l-25.961-7.178" transform="translate(-561.657 -238.132)"/>
          <g id="组_854" data-name="组 854" class="cls-25" transform="translate(0 0)">
            <path id="路径_266" data-name="路径 266" class="cls-26" d="M536.992,288.023C558,286.78,579.2,295.4,599.8,291" transform="translate(-543.748 -274.296)"/>
          </g>
        </g>
      </g>
      <g id="组_916" data-name="组 916" class="cls-27" transform="translate(594.864 138.354)">
        <g id="组_904" data-name="组 904" transform="translate(0.235)">
          <path id="路径_439" data-name="路径 439" class="cls-6" d="M639.52,522.627l-10.19,20.54a7.607,7.607,0,0,1-10.267,3.439l-21.079-10.812a7.857,7.857,0,0,1-3.382-10.44l10.19-20.54a7.607,7.607,0,0,1,10.268-3.439l21.079,10.812A7.858,7.858,0,0,1,639.52,522.627Z" transform="translate(-593.786 -500.546)"/>
          <g id="组_903" data-name="组 903" class="cls-28" transform="translate(0 0)">
            <path id="路径_440" data-name="路径 440" class="cls-29" d="M596.513,466.568a490.247,490.247,0,0,0-33.07,49.695" transform="translate(-575.542 -480.087)"/>
            <path id="路径_441" data-name="路径 441" class="cls-29" d="M620.663,482.18a156.543,156.543,0,0,0-21.419,27.792" transform="translate(-597.068 -489.488)"/>
            <path id="路径_442" data-name="路径 442" class="cls-29" d="M614.544,488.181a125.194,125.194,0,0,1,35.685,12.06" transform="translate(-606.267 -493.101)"/>
            <path id="路径_443" data-name="路径 443" class="cls-29" d="M611.651,507.385a84.411,84.411,0,0,1,40.229,13.18" transform="translate(-604.527 -504.664)"/>
            <path id="路径_444" data-name="路径 444" class="cls-29" d="M608.347,488.986a268.992,268.992,0,0,1-24.459,40.628" transform="translate(-587.835 -493.586)"/>
            <path id="路径_445" data-name="路径 445" class="cls-29" d="M616.211,481.817,590.3,521.824" transform="translate(-591.693 -489.269)"/>
          </g>
        </g>
        <path id="路径_447" data-name="路径 447" class="cls-30" d="M638.333,534.287a7.17,7.17,0,0,1,1.149,8.016l-10.82,21.811a6.909,6.909,0,0,1-9.328,3.124l-22.329-11.453a7.112,7.112,0,0,1-3.782-6.943l28.079,14.4a2.359,2.359,0,0,0,3.2-1.071Z" transform="translate(-593.196 -520.862)"/>
        <path id="路径_448" data-name="路径 448" class="cls-1" d="M636.612,528.3c-1.644,1.437-3.271,2.9-4.831,4.421-.933.913-.876.97-2.136.525-.895-.33-1.783-.671-2.695-.966a14.719,14.719,0,0,0-2.448-.638c-1.244-.165-1.89.795-1.3,1.931a13.3,13.3,0,0,0,1.233,1.866c1.014,1.367,2.058,2.7,2.994,3.945-.983,2.522-1.926,4.907-2.847,7.3a4.054,4.054,0,0,0-.234,1.1c-.048.751.306,1.118,1.05,1.012a5.842,5.842,0,0,0,1.652-.515c1.49-.7,2.945-1.444,4.5-2.211.69.627,1.336,1.259,2.038,1.806,1.258.99,2.494,2,3.826,2.866,1.135.726,1.637.453,2.222-.782a4.032,4.032,0,0,0,.094-2.834c-.467-1.76-.968-3.508-1.48-5.349.7-.244,1.342-.459,1.98-.72,1.331-.522,2.679-1.021,3.954-1.658a4.148,4.148,0,0,0,1.542-1.318c.9-1.274.683-2.088-.757-2.6a48.766,48.766,0,0,0-4.744-1.272c-.54-.134-1.115-.2-1.649-.286.1-1.6.236-3.035.286-4.472.019-.607.286-1.4-.411-1.76C637.725,527.311,637.109,527.87,636.612,528.3Zm.238,6.089c-.09,1.489-.05,1.523,1.346,1.751,1.666.281,3.327.631,4.976.974a4.831,4.831,0,0,1,.917.456c-1.021.437-1.788.761-2.555,1.056-1.128.454-2.3.817-3.407,1.322a2.455,2.455,0,0,0-1.436,3.294c.4,1.278.825,2.546,1.215,3.836.15.493.233,1.009.338,1.508-.09.068-.186.148-.277.216-1.039-.863-2.129-1.68-3.122-2.605-2.9-2.691-2.381-2.053-5.134-.683-1.128.569-2.257,1.138-3.713,1.882a12.748,12.748,0,0,1,.36-1.465c.829-1.87,1.63-3.74,2.548-5.563a1.892,1.892,0,0,0-.267-2.446c-1.268-1.425-2.423-2.964-3.875-4.785.833.169,1.311.228,1.767.362,1.373.388,2.751.795,4.107,1.217a1.336,1.336,0,0,0,1.545-.413c1.176-1.176,2.4-2.282,3.617-3.395a15.265,15.265,0,0,1,1.3-.94C637.006,531.719,636.945,533.064,636.85,534.393Z" transform="translate(-611.105 -516.817)"/>
      </g>
      <g id="组_919" data-name="组 919" class="cls-31" transform="translate(175.8 62.97)">
        <g id="组_834" data-name="组 834" transform="translate(0 0)">
          <path id="路径_212" data-name="路径 212" class="cls-7" d="M189.1,382.572,169.847,389c-1.534.512-3.063-.876-3.416-3.1l-6.7-42.209c-.353-2.224.6-4.443,2.137-4.955l19.254-6.432c1.534-.512,3.063.875,3.416,3.1l6.7,42.209C191.592,379.841,190.635,382.06,189.1,382.572Z" transform="translate(-159.655 -332.202)"/>
          <g id="组_833" data-name="组 833" class="cls-32">
            <path id="路径_213" data-name="路径 213" class="cls-33" d="M218.164,681.426c7.867.332,15.337-5.161,21.62-12.037,4.683-5.124,9.153-11.67,10.23-20.033" transform="translate(-214.688 -622.536)"/>
            <path id="路径_214" data-name="路径 214" class="cls-33" d="M583.09,282.42q4.67,33.971,10.031,67.731" transform="translate(-557.933 -286.63)"/>
            <path id="路径_215" data-name="路径 215" class="cls-33" d="M574.1,345.392q6.25,27.167,11.04,54.982" transform="translate(-549.472 -344.277)"/>
            <path id="路径_216" data-name="路径 216" class="cls-33" d="M148.217,472.449c2.2,16.22,3.716,32.633,4.542,49.119" transform="translate(-148.897 -460.589)"/>
            <path id="路径_217" data-name="路径 217" class="cls-34" d="M131.432,313.471q13.319-6.356,26.771-12.1" transform="translate(-133.109 -303.974)"/>
            <path id="路径_218" data-name="路径 218" class="cls-34" d="M139.708,403.878q1.336,22.217,3.077,44.377" transform="translate(-140.893 -397.817)"/>
            <path id="路径_219" data-name="路径 219" class="cls-34" d="M151.646,418.548q1.29,25.024,4.144,49.809" transform="translate(-152.122 -411.246)"/>
          </g>
        </g>
        <g id="组_836" data-name="组 836" transform="translate(2.069 4.544)">
          <path id="路径_221" data-name="路径 221" class="cls-8" d="M221.612,425.624l-20.831,6.959-6.3-39.689,20.831-6.959Z" transform="translate(-194.479 -385.935)"/>
          <g id="组_835" data-name="组 835" class="cls-35" transform="translate(0 0)">
            <path id="路径_222" data-name="路径 222" class="cls-36" d="M1299.622,825.443v.257" transform="translate(-1233.963 -788.276)"/>
            <path id="路径_223" data-name="路径 223" class="cls-37" d="M208.875,847.136a129.953,129.953,0,0,0,9.587,12.447c1.868,2.137,3.868,4.235,6.2,4.927" transform="translate(-208.02 -808.135)"/>
            <path id="路径_224" data-name="路径 224" class="cls-37" d="M135.834,663.149c4.7,6.663,9.7,12.97,15.4,17.714s12.149,7.882,18.719,7.837" transform="translate(-139.318 -639.706)"/>
            <path id="路径_225" data-name="路径 225" class="cls-37" d="M221.52,730.833q12.267,8.433,24.21,17.815" transform="translate(-219.913 -701.667)"/>
            <path id="路径_226" data-name="路径 226" class="cls-37" d="M241.352,851.355c-.1-.074-.038-.315.067-.353s.212.049.3.133l14.349,13.032" transform="translate(-238.521 -811.665)"/>
          </g>
        </g>
        <path id="路径_228" data-name="路径 228" class="cls-38" d="M194.479,392.894l20.831-6.959,6.3,39.689Z" transform="translate(-192.41 -381.391)"/>
        <g id="组_837" data-name="组 837" transform="translate(9.295 4.533)">
          <path id="路径_229" data-name="路径 229" class="cls-1" d="M316.826,405.06a.568.568,0,0,1-.273.634c-.2.065-.392-.112-.437-.4a.568.568,0,0,1,.273-.634C316.585,404.6,316.781,404.776,316.826,405.06Z" transform="translate(-316.106 -403.057)"/>
          <path id="路径_230" data-name="路径 230" class="cls-1" d="M340.8,386.448l-4.214,1.408c-.12.04-.24-.069-.268-.243a.348.348,0,0,1,.168-.389l4.213-1.408c.12-.04.24.069.268.243A.348.348,0,0,1,340.8,386.448Z" transform="translate(-335.114 -385.808)"/>
        </g>
        <path id="路径_231" data-name="路径 231" class="cls-1" d="M471.811,915.324c-.11-.7-.589-1.129-1.068-.969a1.387,1.387,0,0,0-.668,1.549c.11.7.589,1.129,1.068.969A1.387,1.387,0,0,0,471.811,915.324Z" transform="translate(-451.611 -865.095)"/>
      </g>
      <g id="组_918" data-name="组 918" transform="translate(653.078 122.111)">
        <g id="组_908" data-name="组 908" transform="translate(0 0.177)">
          <path id="路径_451" data-name="路径 451" class="cls-9" d="M155.138,1004.247l10.1,9.308a4.751,4.751,0,0,1,.318,6.613L156,1030.88a4.564,4.564,0,0,1-6.5.323l-10.1-9.308a4.751,4.751,0,0,1-.318-6.613l9.553-10.712A4.564,4.564,0,0,1,155.138,1004.247Z" transform="translate(-137.894 -1003.039)"/>
          <g id="组_907" data-name="组 907" class="cls-39" transform="translate(0 0)">
            <path id="路径_452" data-name="路径 452" class="cls-40" d="M173.663,974.137a179.48,179.48,0,0,1,22.663,27.806" transform="translate(-165.072 -981.064)"/>
            <path id="路径_453" data-name="路径 453" class="cls-40" d="M202.452,1052.644q-6.888,14.87-13.182,30.015" transform="translate(-176.93 -1040.755)"/>
          </g>
        </g>
        <path id="路径_455" data-name="路径 455" class="cls-41" d="M188.566,1002.792a4.139,4.139,0,0,1,4.761.607l10.72,9.884a4.315,4.315,0,0,1,.289,6.008l-10.119,11.347a4.151,4.151,0,0,1-4.571,1.12l12.725-14.269a1.473,1.473,0,0,0-.1-2.058Z" transform="translate(-176.396 -1002.302)"/>
        <path id="路径_456" data-name="路径 456" class="cls-1" d="M179.538,1050.183q-2.213,2.236-4.428,4.469a4.792,4.792,0,0,1-.645.534c-.794.556-1.152.482-1.7-.351a5.038,5.038,0,0,1-.4-.742c-1.106-2.536-2.264-5.051-3.29-7.619-.935-2.34-.389-3.01,2-2.518,2.719.559,5.419,1.22,8.124,1.846a4.029,4.029,0,0,1,.916.322,1.467,1.467,0,0,1,.61,2.31c-.382.587-.82,1.137-1.233,1.7Z" transform="translate(-161.26 -1033.857)"/>
      </g>
      <g id="组_3035" data-name="组 3035" transform="translate(148)">
        <path id="路径_27630" data-name="路径 27630" class="cls-1" d="M16.632-17.82l.22-1.452h-3.96L14.3-29.3h3.344l.572-1.012-.836-.924h6.644L22.88-29.3H27.5L26.092-19.272h-4l-.22,1.452h4.444l-.44,3.344H18.656l-.4.968h7.524l-.836,5.852a2.717,2.717,0,0,1-.968,1.738,3.105,3.105,0,0,1-2.112.726h-4.4l1.98-1.584.528-3.652h-2.86L15.18-5.28H11.748l3.036.748H37.62l-.572,4.18H11.7L7.26-1.628,6.468-.4H-.088l2.9-4.312L4.884-19.58H3.476l.572-4.18h7.92L9.46-5.852l1.056.264,3.432-8.888h-2.2l.44-3.344ZM36.344-31.24l-1.32,3.256h5.544L40-23.892H38.72l-.836,5.984L34.76-12.672l2.992,7.3H33.44L31.9-9.284,29.656-5.368h-4.4l4.4-7.524-2.728-7h4.928L32.6-18l.968-1.628.572-4.268h-.792l-1.144,2.9H27.016l3.96-10.252Zm-24.64.792.66,5.016h-6.6L5.1-30.448Zm6.512,4.84H22.44l.176-1.056H18.392Zm3.7,3.828.132-.968H17.82l-.132.968ZM67.5.264l1.98-2.42.308-2.376H61.028l-.66,4.8H53.152l2.332-16.5H78.672L76.736-2.64a4.4,4.4,0,0,1-.792,2.09,2.122,2.122,0,0,1-1.8.814ZM64.46-24.86l.132-1.1H56.716l.44-3.3h7.92l.044-.308L63.536-31.2H73l-.308,1.936h7.964l-.44,3.3H72.248l-.176,1.1h6.6l-.484,3.344H71.632l-.176,1.1H80.08L79.6-17.072H54.472l.484-3.344H63.8l.176-1.1H57.024l.484-3.344ZM42.988.264l2.6-18.656H43.208l.616-4.312h9.812L51.348-6.292,53.5-6.908l-.66,4.532Zm9.724-30.712,1.1,5.456H46.9l-1.1-5.456ZM61.468-7.48h8.756L70.4-8.756H61.644ZM62.04-11.7H70.8l.176-1.188H62.216Zm26.708-14.96.66-4.62H96.1l-.66,4.62h1.232l.66-4.576h6.688l-.66,4.576h1.672l-.572,4.18H102.74l-1.8,12.936L96.624-5.5,101.2.4H94.116L92.488-1.628,90.332.4H83.248L89.5-5.456,86.328-9.548l1.8-12.936H86.5l.572-4.18Zm20.812,9.592.352-2.508,5.412-6.688H106.26l.572-4.18h16.72l-.836,5.852-4.532,5.632-.264,1.892h5.412l-.572,4.18h-5.412L115.9-2.508a3.36,3.36,0,0,1-1.21,2.09A3.468,3.468,0,0,1,112.42.4h-8.668l3.96-4.092,1.276-9.2h-5.456l.572-4.18ZM94.336-9.988l1.76-12.5H94.864L93.1-9.988l.528.66ZM134.992.308l9.9-7.964-5.632-4.972L133.98.308H125.4l9.724-23.98H129.58l.572-3.916h6.556l.968-2.332-.748-1.232h9.9l-1.452,3.564h19.14l-.572,3.916h-20.2L142.472-20.5h20.064l-.7,5.1L153.34-7.964,162.272.352h-8.184L148.94-4.136,143.88.308Zm5.764-16.632-.616,1.54h5.9L149.6-11.44l4.84-3.916.132-.968Zm66.22-12.452L203.016-.528h-15.84l3.96-28.248Zm-34.056,5.9h-3.036l.616-4.268h3.7l.616-2.112-1.32-1.54h8.976l-1.056,3.652H189.6L186.164-2.6a3.468,3.468,0,0,1-1.188,2.068,3.33,3.33,0,0,1-2.244.836h-7.26l3.872-4.048,2.684-19.14H180.18L173.492.308h-7.3ZM196.988-5.368l2.6-18.612h-2.376l-2.6,18.612Zm34.936-20.9H220.176l2.332-4.576h16.28L246.532.4h-8.36Zm-1.232,2.508L218.108.4h-8.36L222.332-23.76ZM38.412,27.992,37.8,32.48H2.068l.616-4.488Zm12.98-8.976.22-1.584L50.248,15.76H59l-.484,3.256h4.268L62.216,22.8H57.992l-.44,3.3H62.92l-.572,4.18h-4l-.44,2.992h3.872L61.16,37.76H57.288l-.66,4.664h22l-.616,4.224H55.484l-7.656-2.684L47.08,47H42.064L45.54,33.052l-1.276-1.5h6.688L49.06,39.124l1.144.44,1.32-9.284H44.44l.572-4.18H50.38l.44-3.3H46.6l.572-3.784Zm22.22,6.732L74.36,20.6H65.34l.528-3.96H81.576L79.728,29.708H70.664L69.7,36.88H77.22l1.936-1.672-.836,5.94H62.392l2.156-15.4Zm35.772,21.56,2.376-16.94h-.924L103.928,47.4h-6.6l6.864-17.028H100.98l.572-4.18h20.856l-.572,4.18h-3.344l-1.848,13.244H119.2l1.98-2.9-.924,6.6Zm-19.8-19.492L90.6,20.6H87.56l.572-3.96h13.2l-.572,3.96H97.5l-1.012,7.216h2.86l-.616,4.532h-2.9l-1.144,8.14,3.476-.616-.616,4.268L83.732,46.516l.572-4.18,3.3-.572,1.32-9.416H85.8l.616-4.532Zm33.44-11.308-.572,4.18H103.18l.572-4.18Zm27.72,22,1.012,1.012,3.608-2.9h-11.44l2.376-5.852h-2.728l.572-4.136h3.828l1.32-3.256h-3.08l.572-4.048h4.136l1.012-2.508-1.1-1.1h8.36l-1.364,3.608h6.6l-.572,4.048h-7.568L155.1,26.628h9.372l-.572,4.136H153.516l-.748,2.024h9.5l-.792,5.236-6.116,5.06,4.356,4.268H151.8l-8.492-8.844Zm-22.44-9.2,2.508-6.292h-2.244l.572-4.092h3.3l.748-1.848-.88-1.32h6.248l-1.276,3.168h7.92l-.572,4.092h-8.976l-2.6,6.556h1.98l.748-5.1h5.456l-.7,5.1H143l-.528,3.916h-2.508l-.484,3.388,3.3-.44-.616,4.4-3.3.44-.836,6.028h-6.6l.7-5.1-6.644.88.616-4.4,6.644-.88.616-4.312h-5.632Z" transform="translate(159 123.074)"/>
        <path id="路径_27631" data-name="路径 27631" class="cls-42" d="M21.208-22.924H27.28l-3.124,4.972h1.188l1.98,3.3L30.36-18h1.98l-1.32-4.928h5.9l1.76,6.6h-2.6L30.316-9.768,36.52.352H29.128L25.916-4.8,21.384.352H13.728L22.88-9.768,18.92-16.28H17.16ZM7.216-21.692H3.3l.572-4.18h3.96L8.4-29.92,7.3-31.2h7.832l-.748,5.324h3.74l-.572,4.18H13.772L10.692.4H4.136Zm19.228-6.336.22-1.54L25.388-31.24h8.844l-.484,3.212h6.644l-.572,4.18H19.052l.572-4.18ZM.044-1.188l3.476-19.1H6.468L2.992-1.188ZM12.452-3.7l1.584-16.588h2.948L15.444-3.7Zm39.38,4,9.9-7.964L56.1-12.628,50.82.308H42.24l9.724-23.98H46.42l.572-3.916h6.556l.968-2.332-.748-1.232h9.9l-1.452,3.564h19.14l-.572,3.916h-20.2L59.312-20.5H79.376l-.7,5.1L70.18-7.964,79.112.352H70.928L65.78-4.136,60.72.308ZM57.6-16.324l-.616,1.54h5.9L66.44-11.44l4.84-3.916.132-.968ZM118.008-.352H84.568l4-28.468-1.408-1.628h35.068Zm-4.18-24.816-1.584,2.244h.836l-.4,2.728h-7.92l-.836,1.1H113.3l-.44,2.948h-2.772L112.86-11.4l2.112-14.872H94.908L91.828-4.532h20.064l.968-6.776h-3.608l-.132.924a1.49,1.49,0,0,1-.726,1.078,3.618,3.618,0,0,1-1.166.374h-4.752l1.408-1.364.176-1.5h-3.124l-.484,3.564h8.8l1.408-.836-.528,3.74H94.512l.836-6.028H92.84l3.7-4.8H94.2l.44-2.948h4.18l.88-1.1H95.436l.4-2.728h.836l-.7-2.288h5.06l.572,2.288h.22l2.2-2.816h5.1l-2.2,2.816h.748l1.716-2.244ZM100.5-14.74h5.456l-.88-1.408H101.6Z" transform="translate(328 169.074)"/>
      </g>
      <g id="组_24_副本" data-name="组 24 副本" transform="translate(-10 37.213)">
        <rect id="图层_2" data-name="图层 2" class="cls-43" transform="translate(0.001 -0.138)"/>
        <g id="组_24_副本-2" data-name="组 24 副本" transform="translate(37.05 34.483)">
          <path id="Rounded_Rectangle_10" data-name="Rounded Rectangle 10" class="cls-44" d="M.965,137.581,11.02,122.139a5.858,5.858,0,1,1,9.8,6.414L10.769,144a5.858,5.858,0,1,1-9.8-6.414Z" transform="translate(-0.013 -26.941)"/>
          <path id="Rectangle_10" data-name="Rectangle 10" class="cls-45" d="M4.385,135.1l10.072-14.411,9.3,5.994-9.818,14.594Z" transform="translate(-0.999 -27.213)"/>
          <path id="Rounded_Rectangle_10_副本" data-name="Rounded Rectangle 10 副本" class="cls-44" d="M132.588,4,138.2,21.333a5.843,5.843,0,0,1-3.718,7.337,5.752,5.752,0,0,1-7.291-3.692L121.58,7.647A5.843,5.843,0,0,1,125.3.31,5.752,5.752,0,0,1,132.588,4Z" transform="translate(-27.349 -0.015)"/>
          <path id="Rectangle_10_副本" data-name="Rectangle 10 副本" class="cls-45" d="M133.55,9.8,138.361,26.5l-10.372,3.513L122.88,13.393Z" transform="translate(-27.707 -2.219)"/>
          <path id="形状_14" data-name="形状 14" class="cls-42" d="M50.725,138.17V91.23s-18.6.629-34.283,24.308L2.226,107.994S14.978,72.37,64.1,72.789H77.482c-6.271,2.515,28.639-28.5,16.723-57L110.093,11.6s14.633,39.187-15.887,72.087c0,0,6.689,20.746,2.509,54.484Z" transform="translate(-0.512 -2.626)"/>
          <g id="组_23" data-name="组 23" transform="translate(48.574 13.377)">
            <path id="Ellipse_24" data-name="Ellipse 24" class="cls-46" d="M0,18.241a5.8,5.8,0,0,1,2.958-4.827V0H12.2V13.006a6.036,6.036,0,0,1,3.686,5.236c0,3.424-3.556,6.2-7.941,6.2S0,21.666,0,18.241Z" transform="translate(13.717 43.236)"/>
            <ellipse id="Ellipse_23" data-name="Ellipse 23" class="cls-47" cx="19.77" cy="21.53" rx="19.77" ry="21.53" transform="translate(1.52 6.744)"/>
            <path id="形状_13" data-name="形状 13" class="cls-48" d="M67.2,37.228s6.715,6.332,23.341,4.386c6.146-.833,10.173-2.415,11.728-5.857,1.623-3.593-.921-9.42-1.675-10.041-1.478-1.216-22.31-.529-22.31-.529Z" transform="translate(-63.731 -19.022)"/>
            <path id="形状_15" data-name="形状 15" d="M74.95,20.323l22.082,2.2s11.3,4.646,4.79,13.412c-14.783,7.379-32.583,4.642-36.931-.671s-1.654-17.1,4.723-17.984C69.614,17.284,69.007,19.438,74.95,20.323Z" transform="translate(-62.721 -20.284)"/>
            <path id="路径_27566" data-name="路径 27566" d="M41.051,9.611s7.441,11.922,2.958,18.067c.127-.163-2.894,4.714-2.958,4.795-4.611,5.748-1.4-8.282-1.4-8.282l-7.659-7.784Z"/>
            <path id="路径_27567" data-name="路径 27567" d="M2.226,14.468S-1.946,26.121,1.6,31.352c1.775,2.615,1.072-5.687,2.191-10.65.982-4.347,3.787-5.353,3.787-5.353Z"/>
          </g>
        </g>
      </g>
      <g id="组_24_副本_2" data-name="组 24 副本 2" transform="translate(167.878 72.477)">
        <rect id="图层_2-2" data-name="图层 2" class="cls-43" transform="translate(0.122 -0.403)"/>
        <g id="组_24_副本_2-2" data-name="组 24 副本 2" transform="translate(0 0.123)">
          <path id="Rounded_Rectangle_10-2" data-name="Rounded Rectangle 10" class="cls-44" d="M.965,137.581,11.02,122.139a5.858,5.858,0,1,1,9.8,6.414L10.769,144a5.858,5.858,0,1,1-9.8-6.414Z" transform="translate(-0.013 -26.941)"/>
          <path id="Rectangle_10-2" data-name="Rectangle 10" class="cls-45" d="M4.385,135.1l10.072-14.411,9.3,5.994-9.818,14.594Z" transform="translate(-0.999 -27.213)"/>
          <path id="Rounded_Rectangle_10_副本-2" data-name="Rounded Rectangle 10 副本" class="cls-49" d="M132.588,4,138.2,21.333a5.843,5.843,0,0,1-3.718,7.337,5.752,5.752,0,0,1-7.291-3.692L121.58,7.647A5.843,5.843,0,0,1,125.3.31,5.752,5.752,0,0,1,132.588,4Z" transform="translate(-27.349 -0.015)"/>
          <path id="Rectangle_10_副本-2" data-name="Rectangle 10 副本" class="cls-45" d="M133.55,9.8,138.361,26.5l-10.372,3.513L122.88,13.393Z" transform="translate(-27.707 -2.219)"/>
          <path id="形状_14-2" data-name="形状 14" class="cls-50" d="M50.725,138.17V91.23s-18.6.629-34.283,24.308L2.226,107.994S14.978,72.37,64.1,72.789H77.482c-6.271,2.515,28.639-28.5,16.724-57L110.093,11.6s14.633,39.187-15.887,72.087c0,0,6.689,20.746,2.508,54.484Z" transform="translate(-0.512 -2.626)"/>
          <g id="组_23-2" data-name="组 23" transform="translate(41.038 9.193)">
            <path id="矩形_1297" data-name="矩形 1297" class="cls-51" d="M22,0h9A22,22,0,0,1,53,22V45a0,0,0,0,1,0,0H0a0,0,0,0,1,0,0V22A22,22,0,0,1,22,0Z" transform="translate(1.084 2.281)"/>
            <path id="Ellipse_24-2" data-name="Ellipse 24" class="cls-52" d="M0,18.241a5.8,5.8,0,0,1,2.958-4.827V0H12.2V13.006a6.036,6.036,0,0,1,3.686,5.236c0,3.424-3.556,6.2-7.941,6.2S0,21.666,0,18.241Z" transform="translate(21.253 47.42)"/>
            <ellipse id="Ellipse_23-2" data-name="Ellipse 23" class="cls-49" cx="19.77" cy="21.53" rx="19.77" ry="21.53" transform="translate(9.056 10.928)"/>
            <path id="形状_13-2" data-name="形状 13" class="cls-53" d="M66.119,39.205s5.173,5.96,21.8,4.014c12.562-1.7,9.976-15.2,8.5-16.421s-19.212.365-19.212.365Z" transform="translate(-55.951 -15.141)"/>
            <path id="形状_13_副本" data-name="形状 13 副本" class="cls-51" d="M64.688,37.561s4.8,4.744,22.907,2.554c13.3-1.824,10.345-16.3,8.867-17.516s-20.321,1.46-20.321,1.46Z" transform="translate(-55.628 -14.227)"/>
          </g>
        </g>
      </g>
      <g id="组_24" data-name="组 24" transform="translate(65.05 18.224)">
        <rect id="图层_2-3" data-name="图层 2" class="cls-43" transform="translate(-0.05 -0.15)"/>
        <g id="组_24-2" data-name="组 24" transform="translate(1.029 0.944)">
          <path id="Rounded_Rectangle_10-3" data-name="Rounded Rectangle 10" class="cls-44" d="M2.41,150.322l14.1-21.566a8.2,8.2,0,0,1,13.745,8.957l-14.1,21.566A8.2,8.2,0,0,1,2.41,150.322Z" transform="translate(-1.074 4.187)"/>
          <path id="Rectangle_10-3" data-name="Rectangle 10" class="cls-45" d="M5.657,146.426,19.779,126.3l13.037,8.37L19.05,155.052Z" transform="translate(-0.908 4.232)"/>
          <path id="Rounded_Rectangle_10_副本-3" data-name="Rounded Rectangle 10 副本" class="cls-49" d="M144.021,5.9l7.872,24.2a8.126,8.126,0,0,1-15.435,5.09l-7.872-24.2A8.153,8.153,0,0,1,133.8.745,8.072,8.072,0,0,1,144.021,5.9Z" transform="translate(3.532 -0.333)"/>
          <path id="Rectangle_10_副本-3" data-name="Rectangle 10 副本" class="cls-45" d="M144.81,10.544l6.745,23.332-14.543,4.905-7.163-23.216Z" transform="translate(3.593 0.037)"/>
          <path id="形状_14-3" data-name="形状 14" class="cls-54" d="M71.393,189.182H58.529s.163-8.445,3.379-24.833,9.484-40.719,9.484-40.719-26.086.878-48.068,33.947L3.394,147.041S21.273,97.292,90.151,97.878h18.758c-8.793,3.512,40.154-39.8,23.448-79.6l22.275-5.853s20.517,54.724-22.275,100.669c0,0,9.379,28.972,3.517,76.087Z" transform="translate(-0.99 0.105)"/>
          <g id="组_23-3" data-name="组 23" transform="translate(62.194 18.39)">
            <path id="形状_11" data-name="形状 11" class="cls-55" d="M115.763,30.336s-.518-12.91-17.095-12.23S64.824,35.772,66.55,56.835c0,0-6.907,4.247-5.18,19.874,1.661,15.034,12.818,20.28,21.012,20.8,0,0,13.958,1.626,14.214,1.626,6.734,0-26.161,2.108-16.319-15.727-.141-19.574,43.883-9.156,43.883-9.156s5.451-12.8,4.978-17.477C128.3,48.419,125.38,34.841,115.763,30.336Z" transform="translate(-61.093 -18.08)"/>
            <path id="Ellipse_24-3" data-name="Ellipse 24" class="cls-52" d="M0,25.483a8.107,8.107,0,0,1,4.151-6.747V0H17.105V18.168c3.108,1.537,5.17,4.239,5.17,7.316,0,4.784-4.987,8.662-11.137,8.662S0,30.267,0,25.483Z" transform="translate(25.138 60.665)"/>
            <ellipse id="Ellipse_23-3" data-name="Ellipse 23" class="cls-49" cx="27.715" cy="30.06" rx="27.715" ry="30.06" transform="translate(8.045 9.71)"/>
            <path id="形状_13-3" data-name="形状 13" class="cls-53" d="M70.359,45.781s7.252,8.323,30.564,5.606c17.613-2.378,13.987-21.233,11.915-22.932s-26.938.51-26.938.51Z" transform="translate(-60.757 -17.727)"/>
            <path id="形状_13_副本-2" data-name="形状 13 副本" class="cls-50" d="M68.859,44.915s6.734,6.625,32.118,3.567c18.649-2.548,14.5-22.762,12.433-24.461S84.918,26.06,84.918,26.06Z" transform="translate(-60.812 -17.88)"/>
            <path id="形状_16" data-name="形状 16" class="cls-56" d="M108.753,24.94s-18.289-12-36.344,16.388" transform="translate(-60.683 -17.922)"/>
          </g>
        </g>
      </g>
    </g>
  </g>
</svg>
