<svg xmlns="http://www.w3.org/2000/svg" xmlns:xlink="http://www.w3.org/1999/xlink" width="750" height="302" viewBox="0 0 750 302">
  <defs>
    <style>
      .cls-1 {
        fill: #d731d7;
      }

      .cls-2 {
        fill: #31d7a3;
      }

      .cls-3 {
        clip-path: url(#clip-path);
      }

      .cls-4 {
        fill: #57b0d1;
      }

      .cls-5 {
        clip-path: url(#clip-path-2);
      }

      .cls-6 {
        clip-path: url(#clip-path-3);
      }

      .cls-7 {
        fill: rgba(255,255,255,0.9);
      }

      .cls-8 {
        fill: rgba(255,71,71,0.9);
      }

      .cls-9 {
        fill: rgba(255,255,255,0.5);
      }

      .cls-10, .cls-44 {
        fill: #fff;
      }

      .cls-11 {
        fill: #e1ff14;
      }

      .cls-12 {
        fill: rgba(255,255,255,0.7);
      }

      .cls-13 {
        fill: url(#radial-gradient);
      }

      .cls-14 {
        fill: #f7ecdf;
        opacity: 0.55;
      }

      .cls-15, .cls-24 {
        fill: #2d62d6;
      }

      .cls-15 {
        opacity: 0.49;
      }

      .cls-16 {
        fill: #f99d74;
      }

      .cls-17 {
        fill: #f37e52;
      }

      .cls-18, .cls-19 {
        fill: #642b20;
      }

      .cls-19 {
        stroke: #642b20;
        stroke-width: 2px;
      }

      .cls-20 {
        fill: #cee7fb;
      }

      .cls-21 {
        fill: #e84e4e;
      }

      .cls-22 {
        fill: #c32429;
      }

      .cls-23 {
        fill: #c52b2b;
      }

      .cls-25 {
        fill: #164bbb;
      }

      .cls-26 {
        fill: url(#linear-gradient);
      }

      .cls-27 {
        fill: url(#linear-gradient-2);
      }

      .cls-28 {
        fill: #eb4249;
      }

      .cls-29 {
        fill: #e94a4e;
      }

      .cls-30 {
        fill: #cc332e;
      }

      .cls-31 {
        fill: #efcd48;
      }

      .cls-32 {
        fill: #ff8635;
      }

      .cls-33 {
        fill: #ec721d;
      }

      .cls-34 {
        fill: #fdc648;
      }

      .cls-35 {
        fill: #ffaa02;
      }

      .cls-36 {
        fill: #fec749;
      }

      .cls-37 {
        fill: #ffab03;
      }

      .cls-38 {
        fill: url(#linear-gradient-3);
      }

      .cls-39 {
        fill: #fbc848;
      }

      .cls-40 {
        fill: #e6ac31;
      }

      .cls-41 {
        opacity: 0.46;
      }

      .cls-42 {
        fill: #d731b0;
      }

      .cls-43 {
        fill: url(#linear-gradient-7);
      }

      .cls-44 {
        font-size: 26px;
        font-family: PingFang SC Bold, PingFang SC;
        letter-spacing: 0.025em;
      }

      .cls-45 {
        stroke: none;
      }

      .cls-46 {
        fill: none;
      }
    </style>
    <clipPath id="clip-path">
      <rect id="矩形_9" data-name="矩形 9" class="cls-1" width="750" height="302" transform="translate(0 128)"/>
    </clipPath>
    <clipPath id="clip-path-2">
      <path id="路径_27649" data-name="路径 27649" class="cls-2" d="M0,0H750V360.566C750,376.822,735.673,390,718,390H32c-17.673,0-32-13.178-32-29.434Z" transform="translate(0 40)"/>
    </clipPath>
    <clipPath id="clip-path-3">
      <path id="路径_27565" data-name="路径 27565" class="cls-2" d="M0,0H750V397.547A32.229,32.229,0,0,1,718,430H32A32.229,32.229,0,0,1,0,397.547Z"/>
    </clipPath>
    <radialGradient id="radial-gradient" cx="0.5" cy="0.5" r="0.5" gradientTransform="translate(-0.095) scale(1.19 1)" gradientUnits="objectBoundingBox">
      <stop offset="0" stop-color="#ffbf16"/>
      <stop offset="1" stop-color="#ffd144"/>
    </radialGradient>
    <linearGradient id="linear-gradient" x1="0.357" y1="0.258" x2="0.874" y2="0.658" gradientUnits="objectBoundingBox">
      <stop offset="0" stop-color="#ff863b"/>
      <stop offset="0.564" stop-color="#f77e2e"/>
      <stop offset="0.586" stop-color="#eb7221"/>
      <stop offset="1" stop-color="#ec721d"/>
    </linearGradient>
    <linearGradient id="linear-gradient-2" x1="0.216" y1="0.318" x2="1.191" y2="0.755" gradientUnits="objectBoundingBox">
      <stop offset="0" stop-color="#c82d2b"/>
      <stop offset="0.423" stop-color="#ba1f23"/>
      <stop offset="0.425" stop-color="#c32f2b"/>
      <stop offset="1" stop-color="#bd2125"/>
    </linearGradient>
    <linearGradient id="linear-gradient-3" x1="0.5" x2="0.5" y2="1" gradientUnits="objectBoundingBox">
      <stop offset="0" stop-color="#ffc649"/>
      <stop offset="0.479" stop-color="#fec749"/>
      <stop offset="0.483" stop-color="#fbad05"/>
      <stop offset="1" stop-color="#feac02"/>
    </linearGradient>
    <linearGradient id="linear-gradient-7" x1="1" y1="0.558" x2="0" y2="0.5" gradientUnits="objectBoundingBox">
      <stop offset="0" stop-color="#fe8512"/>
      <stop offset="1" stop-color="#ffb305"/>
    </linearGradient>
  </defs>
  <g id="banner_home_2" transform="translate(0 -128)">
    <g id="蒙版组_38" data-name="蒙版组 38" class="cls-3">
      <g id="组_3185" data-name="组 3185">
        <g id="组_3032" data-name="组 3032">
          <path id="路径_27564" data-name="路径 27564" class="cls-4" d="M0,0H750V360.566C750,376.822,735.673,390,718,390H32c-17.673,0-32-13.178-32-29.434Z" transform="translate(0 40)"/>
          <g id="蒙版组_36" data-name="蒙版组 36" class="cls-5">
            <g id="组_3132" data-name="组 3132">
              <g id="组_2826" data-name="组 2826" transform="translate(404.813 131.392)">
                <path id="xing4" class="cls-7" d="M733.013,578.828l2.124,9.044,6.9,3.192-6.371,2.128-3.186,10.64-2.655-10.64-5.84-2.128,6.371-2.66Z" transform="translate(-723.988 -434.967)"/>
                <path id="xing4_拷贝" data-name="xing4 拷贝" class="cls-8" d="M422.792,322l2.124,9.043,6.9,3.192-6.371,2.128L422.261,347l-2.655-10.639-5.84-2.128,6.371-2.66Z" transform="translate(-238.381 -321.999)"/>
                <path id="xing4_拷贝_2" data-name="xing4 拷贝 2" class="cls-8" d="M623.659,658.177l1.969,8.387,6.4,2.96-5.908,1.973-2.954,9.868L620.7,671.5l-5.416-1.973,5.909-2.467Z" transform="translate(-316.842 -473.342)"/>
                <path id="xing3" class="cls-9" d="M323.192,489.325l-2.954,1.48-1.969,5.921-1.477-6.414-4.432-.987,3.447-1.48,2.954-5.92,1.477,4.934Z" transform="translate(-206.576 -409.39)"/>
                <path id="xing2" class="cls-10" d="M264.374,368.489l1.969,6.908,4.924,1.48-4.924,2.467-1.969,6.907-1.97-6.414-3.939-1.973,3.939-1.974Z" transform="translate(-186.945 -368.18)"/>
                <path id="xing2_拷贝_3" data-name="xing2 拷贝 3" class="cls-10" d="M309.081,338.125l2.124,7.448,5.309,1.6-5.309,2.66-2.124,7.448-2.124-6.916-4.247-2.128,4.247-2.128Z" transform="translate(-183.976 -338.045)"/>
                <path id="xing2_拷贝_4" data-name="xing2 拷贝 4" class="cls-11" d="M185.548,465.707l1.969,6.907,4.924,1.48-4.924,2.467-1.969,6.907-1.97-6.414-3.939-1.973,3.939-1.974Z" transform="translate(-158.426 -403.488)"/>
                <path id="xing2_拷贝" data-name="xing2 拷贝" class="cls-12" d="M301.131,428.734l.985,3.259,2.462.7-2.462,1.164-.985,3.259-.985-3.026-1.969-.931,1.969-.931Z" transform="translate(-201.422 -390.078)"/>
                <path id="xing2_拷贝_2" data-name="xing2 拷贝 2" class="cls-12" d="M550.808,515.963l.985,3.259,2.462.7-2.462,1.164-.985,3.259-.985-3.026-1.969-.931,1.969-.931Z" transform="translate(-291.917 -421.787)"/>
                <path id="xing1" class="cls-13" d="M541.248,414.257l1.477,2.96,2.462,1.48-2.462,1.48-.985,3.454-1.477-2.96L537.31,418.7l2.954-.987Z" transform="translate(-288.516 -385.097)"/>
              </g>
              <g id="组_3131" data-name="组 3131" transform="translate(-542.113 4297.825)">
                <path id="椭圆_1_拷贝_3" data-name="椭圆 1 拷贝 3" class="cls-14" d="M227.251,197.1a10.056,10.056,0,0,1-1.774.157H81.346a10.036,10.036,0,0,1-2.178-.238q-2.952.238-5.967.24A73.2,73.2,0,0,1,68.583,51.008a73.224,73.224,0,0,1,140.571,3.528,73.207,73.207,0,1,1,22.953,142.726Q229.661,197.262,227.251,197.1Z" transform="translate(1014.753 -4200.376) rotate(21)"/>
                <path id="椭圆_1_拷贝_3-2" data-name="椭圆 1 拷贝 3" class="cls-15" d="M121.126,107.211a10.008,10.008,0,0,1-2.7.37H48.91a10,10,0,0,1-2.975-.45A39.924,39.924,0,1,1,37.4,27.818a39.934,39.934,0,0,1,76.663,1.924,39.92,39.92,0,1,1,7.06,77.469Z" transform="matrix(0.995, 0.105, -0.105, 0.995, 1094.49, -4057.516)"/>
                <g id="组_3106" data-name="组 3106" transform="translate(920.659 -4151.97) rotate(16)">
                  <g id="组_3105" data-name="组 3105" transform="translate(123.45 0)">
                    <path id="路径_27613" data-name="路径 27613" class="cls-16" d="M23.014,10.241,16.824,4.389,11.873,0,0,10.241,11.873,22.282Z" transform="translate(18.817 31.583)"/>
                    <path id="路径_27614" data-name="路径 27614" class="cls-17" d="M12.019,0,7.256,17.566,0,10.243Z" transform="translate(19.675 32.466)"/>
                    <path id="路径_27615" data-name="路径 27615" class="cls-16" d="M3.688,34.575c.39,1.3,2.251,6.016,10.777,3.16S30.826,27.693,30.524,13.886,3.428-5.592,3.3,7s-.433,13.721-.433,13.721L0,22.777S.139,25.1,1.7,24.923s1.6-.909,1.6-.909S3.3,33.276,3.688,34.575Z" transform="translate(1.579 9.428)"/>
                    <path id="路径_27617" data-name="路径 27617" class="cls-18" d="M.092.9s-.83,4.933,2.485,7.668,9.756,5.509,9.756,5.509V8.569L.565,0Z" transform="translate(0 4.713)"/>
                    <path id="路径_27618" data-name="路径 27618" class="cls-18" d="M3.975,0H18.006S16.534,6.665,9.912,7.834A46.606,46.606,0,0,1,0,8.786Z" transform="translate(20.827 27.173)"/>
                    <g id="组_3104" data-name="组 3104" transform="translate(1.038 16.985)">
                      <g id="椭圆_195" data-name="椭圆 195" class="cls-19">
                        <ellipse class="cls-45" cx="4.856" cy="6.622" rx="4.856" ry="6.622"/>
                        <ellipse class="cls-46" cx="4.856" cy="6.622" rx="3.856" ry="5.622"/>
                      </g>
                      <rect id="矩形_1323" data-name="矩形 1323" class="cls-18" width="7.946" height="4.414" transform="translate(6.18 5.297)"/>
                      <ellipse id="椭圆_196" data-name="椭圆 196" class="cls-20" cx="3.09" cy="4.856" rx="3.09" ry="4.856" transform="translate(0.883 1.766)"/>
                    </g>
                    <path id="路径_27616" data-name="路径 27616" class="cls-21" d="M12.149,15.744l-.266,22.407s-.033,5.294,4.2,5.46,5.194-5.46,5.194-5.46.633-6.892,5.227-8.39A79.111,79.111,0,0,1,36.121,27.4s1.4-11.952.366-15.615S30.694-.57,21.871.029,6.555,7.288,6.555,7.288L2.16,4.192A1.575,1.575,0,0,0,.3,4.757a1.863,1.863,0,0,0,0,2l11.853,7.524Z" transform="translate(0.04)"/>
                    <path id="交叉_8" data-name="交叉 8" class="cls-22" d="M0,1.567l.1-.013C6.16.731,7.209,14.869,7.209,14.869l.308-.677.1-8.728S7.654.17,3.425,0C3.363,0,3.3,0,3.242,0A4.147,4.147,0,0,0,0,1.567Z" transform="translate(19.542 43.616) rotate(180)"/>
                    <circle id="椭圆_197" data-name="椭圆 197" class="cls-23" cx="7.505" cy="7.505" r="7.505" transform="translate(15.164 12.571)"/>
                  </g>
                  <path id="路径_27594" data-name="路径 27594" class="cls-24" d="M66.624,38.218A105.5,105.5,0,0,0,50.652,18.482C40.719,8.927,26.89,0,26.89,0L9.794,13.158S10.919,42.2,1.267,57.392s39,24.238,39,24.238L83.287,70.55Z" transform="translate(140.78 36.72)"/>
                  <path id="路径_27612" data-name="路径 27612" class="cls-25" d="M8.333,0S8.277,29.934,1.806,40.288,8.333,52.61,8.333,52.61L5.351,43.833s5.458-12.2,4.839-24.364A185.107,185.107,0,0,0,8.333,0Z" transform="translate(142.386 49.645)"/>
                  <path id="路径_27608" data-name="路径 27608" class="cls-26" d="M0,38.128S50.247-6.324,64.933.766s-15.023,59.25-15.023,59.25Z" transform="translate(289.022 57.456)"/>
                  <path id="路径_27607" data-name="路径 27607" class="cls-25" d="M38.56,30.508s-9.912,2.059-10.3-4.463S26.182,0,26.182,0s.693,26.647-21.035,32.61S37.522,46.556,37.522,46.556Z" transform="translate(160.755 80.638)"/>
                  <path id="路径_27593" data-name="路径 27593" class="cls-27" d="M0,44.956S17.238-4.722,30.813.366s-.79,41.373-.79,41.373Z" transform="translate(198.655 67.944)"/>
                  <g id="组_3102" data-name="组 3102" transform="translate(52.974 130.878)">
                    <path id="减去_29" data-name="减去 29" class="cls-28" d="M22.073,0a22.078,22.078,0,0,0-8.591,42.41A22.078,22.078,0,0,0,30.664,1.735,21.933,21.933,0,0,0,22.073,0Zm0,36.2A14.126,14.126,0,1,1,36.2,22.073,14.142,14.142,0,0,1,22.073,36.2Z" transform="translate(58.271 44.145) rotate(180)"/>
                    <rect id="矩形_1322" data-name="矩形 1322" class="cls-28" width="7.946" height="26.487" transform="translate(26.373 63.257) rotate(-161)"/>
                    <circle id="椭圆_192" data-name="椭圆 192" class="cls-29" cx="20.307" cy="20.307" r="20.307" transform="translate(0 47.676)"/>
                    <circle id="椭圆_193" data-name="椭圆 193" class="cls-30" cx="10.595" cy="10.595" r="10.595" transform="translate(9.712 57.388)"/>
                    <circle id="椭圆_194" data-name="椭圆 194" class="cls-31" cx="5.297" cy="5.297" r="5.297" transform="translate(15.009 62.685)"/>
                  </g>
                  <g id="组_3103" data-name="组 3103" transform="translate(296.395 166.128) rotate(135)">
                    <path id="减去_29-2" data-name="减去 29" class="cls-28" d="M13.243,0A13.247,13.247,0,0,0,8.089,25.446,13.247,13.247,0,0,0,18.4,1.041,13.16,13.16,0,0,0,13.243,0Zm0,21.719a8.476,8.476,0,1,1,8.476-8.476A8.485,8.485,0,0,1,13.243,21.719Z" transform="translate(0 31.116)"/>
                    <rect id="矩形_1322-2" data-name="矩形 1322" class="cls-28" width="4.85" height="16.167" transform="translate(19.47 18.991) rotate(19)"/>
                    <circle id="椭圆_192-2" data-name="椭圆 192" class="cls-29" cx="12.361" cy="12.361" r="12.361" transform="translate(10.595 0)"/>
                    <circle id="椭圆_193-2" data-name="椭圆 193" class="cls-30" cx="6.18" cy="6.18" r="6.18" transform="translate(16.775 6.18)"/>
                    <circle id="椭圆_194-2" data-name="椭圆 194" class="cls-31" cx="3.532" cy="3.532" r="3.532" transform="translate(19.424 8.829)"/>
                  </g>
                  <path id="路径_27591" data-name="路径 27591" class="cls-32" d="M210.419,8.725s114.067,11.282,122.633,42.2S144.611,107.333,90.711,97.3,12.368,88.531,4.638,70.355-.794,29.825,8.816,22.513,88.83,6.009,90.711,3.92s10.8-6.981,14.982-1.18,25.77,44.408,64.567,40.889S210.419,8.725,210.419,8.725Z" transform="translate(24.764 68.961)"/>
                  <path id="交叉_3" data-name="交叉 3" class="cls-33" d="M.167,48.179c64.1-6.568,222.443-19.306,333.084,1.162a59.588,59.588,0,0,0-4.567-20.174c-7.73-18.175-32.173-16.922-86.073-26.95C234.482.7,223.1,0,209.657,0,134.368,0-5.505,22.1.167,48.179Z" transform="translate(358.086 168.483) rotate(180)"/>
                  <path id="路径_27592" data-name="路径 27592" class="cls-34" d="M119.242,17.4S109.118-2.205,54.479.205,0,11.937,0,11.937V66.9S4.821,85.539,37.444,82.486,82.28,67.219,90.476,55.809,119.242,17.4,119.242,17.4Z" transform="translate(116.22 127.294)"/>
                  <path id="交叉_2" data-name="交叉 2" class="cls-35" d="M81.8.128C49.176,3.181,36.962,15.4,28.766,26.8S0,65.213,0,65.213s10.125,19.606,64.764,17.2c1.234-.054,2.444-.113,3.622-.174L83.319,0Q82.569.056,81.8.128Z" transform="translate(235.462 209.907) rotate(180)"/>
                  <path id="交叉_4" data-name="交叉 4" class="cls-36" d="M12.61,2.046C-1.663,28.283-1.212,65.376,1.5,91.145c2.72-2.164,72.3-11.287,81.852-18.553,9.61-7.312,11.908-29.666,4.178-47.841C80.417,8.024,59.152,7.753,13.8,0,13.383.669,12.99,1.349,12.61,2.046Z" transform="translate(116.05 164.066) rotate(180)"/>
                  <path id="交叉_7" data-name="交叉 7" class="cls-37" d="M10.669,1.246C5.154,11.384,1.837,23.144,0,35.244c31.566,1.575,62.362,4.621,90.157,9.763A59.567,59.567,0,0,0,85.59,24.833C78.451,8.048,57.06,7.833,11.374,0Q11.013.615,10.669,1.246Z" transform="translate(114.109 164.149) rotate(180)"/>
                  <circle id="椭圆_189" data-name="椭圆 189" class="cls-38" cx="11.919" cy="11.919" r="11.919" transform="translate(0 107.04)"/>
                  <path id="路径_27606" data-name="路径 27606" class="cls-24" d="M6.18,0C2.767,0,0,86.965,0,86.965S2.767,173.93,6.18,173.93s6.18-86.965,6.18-86.965S9.594,0,6.18,0Z" transform="translate(12.361 31.111)"/>
                  <path id="路径_27609" data-name="路径 27609" class="cls-39" d="M2.359.01C6.887.295,45.043,1.246,45.043,1.246S70.287,17.317,60.074,20.835,10.741,12.942,5.538,9.329-2.17-.275,2.359.01Z" transform="translate(309.816 79.797)"/>
                  <path id="减去_30" data-name="减去 30" class="cls-40" d="M7.786,0A17.168,17.168,0,0,0,2.432.666,3.545,3.545,0,0,0,.214,2.353,3.112,3.112,0,0,0,.306,4.824a3.729,3.729,0,0,1,2.126-1.51,17.143,17.143,0,0,1,5.353-.665c6.341,0,16.67,1.789,28.339,4.908,9.782,2.615,18.548,5.669,20.844,7.264a14.627,14.627,0,0,1,5.2,6.026,2.006,2.006,0,0,0,.3-1.582,8.347,8.347,0,0,0-1.715-3.5,16.885,16.885,0,0,0-3.785-3.591c-2.3-1.594-11.061-4.649-20.842-7.264C24.457,1.79,14.128,0,7.787,0h0Z" transform="translate(372.323 101.298) rotate(180)"/>
                </g>
                <g id="组_3131-2" data-name="组 3131" class="cls-41" transform="translate(1200.971 -4133.238) rotate(16)">
                  <g id="组_3105-2" data-name="组 3105" transform="translate(21.09 0)">
                    <path id="路径_27613-2" data-name="路径 27613" class="cls-16" d="M3.932,1.75,2.874.75,2.028,0,0,1.75,2.028,3.807Z" transform="translate(3.215 5.396)"/>
                    <path id="路径_27614-2" data-name="路径 27614" class="cls-17" d="M2.053,0,1.24,3,0,1.75Z" transform="translate(3.361 5.546)"/>
                    <path id="路径_27615-2" data-name="路径 27615" class="cls-16" d="M.63,5.907c.067.222.384,1.028,1.841.54A3.9,3.9,0,0,0,5.215,2.372C5.163.013.586-.955.564,1.2A21.162,21.162,0,0,1,.49,3.54L0,3.891s.024.4.29.367S.564,4.1.564,4.1.563,5.685.63,5.907Z" transform="translate(0.27 1.611)"/>
                    <path id="路径_27617-2" data-name="路径 27617" class="cls-18" d="M.016.154A1.511,1.511,0,0,0,.44,1.464a8.773,8.773,0,0,0,1.667.941V1.464L.1,0Z" transform="translate(0 0.805)"/>
                    <path id="路径_27618-2" data-name="路径 27618" class="cls-18" d="M.679,0h2.4A1.811,1.811,0,0,1,1.693,1.338,7.962,7.962,0,0,1,0,1.5Z" transform="translate(3.558 4.642)"/>
                    <g id="组_3104-2" data-name="组 3104" transform="translate(0.177 2.902)">
                      <g id="椭圆_195-2" data-name="椭圆 195" class="cls-19">
                        <ellipse class="cls-45" cx="0.83" cy="1.131" rx="0.83" ry="1.131"/>
                        <ellipse class="cls-46" cx="0.83" cy="1.131" rx="0.17" ry="0.131"/>
                      </g>
                      <rect id="矩形_1323-2" data-name="矩形 1323" class="cls-18" width="1.357" height="0.754" transform="translate(1.056 0.905)"/>
                      <ellipse id="椭圆_196-2" data-name="椭圆 196" class="cls-20" cx="0.528" cy="0.83" rx="0.528" ry="0.83" transform="translate(0.151 0.302)"/>
                    </g>
                    <path id="路径_27616-2" data-name="路径 27616" class="cls-21" d="M2.075,2.69,2.03,6.518s-.006.9.717.933.887-.933.887-.933.108-1.177.893-1.433a13.515,13.515,0,0,1,1.644-.4,12.088,12.088,0,0,0,.063-2.668A2.668,2.668,0,0,0,3.736.005,4.518,4.518,0,0,0,1.12,1.245L.369.716a.269.269,0,0,0-.319.1.318.318,0,0,0,0,.341L2.075,2.439Z" transform="translate(0.007 0)"/>
                    <path id="交叉_8-2" data-name="交叉 8" class="cls-22" d="M0,.268l.017,0C1.052.125,1.231,2.54,1.231,2.54l.053-.116L1.3.933S1.308.029.585,0H.554A.708.708,0,0,0,0,.268Z" transform="translate(3.339 7.451) rotate(180)"/>
                    <circle id="椭圆_197-2" data-name="椭圆 197" class="cls-23" cx="1.282" cy="1.282" r="1.282" transform="translate(2.591 2.148)"/>
                  </g>
                  <path id="路径_27594-2" data-name="路径 27594" class="cls-42" d="M11.382,6.529A18.023,18.023,0,0,0,8.653,3.157,31.641,31.641,0,0,0,4.594,0L1.673,2.248S1.865,7.209.217,9.8s6.662,4.141,6.662,4.141l7.35-1.893Z" transform="translate(24.05 6.273)"/>
                  <path id="路径_27612-2" data-name="路径 27612" class="cls-25" d="M1.424,0S1.414,5.114.309,6.883,1.424,8.988,1.424,8.988l-.509-1.5a10.422,10.422,0,0,0,.827-4.162A31.623,31.623,0,0,0,1.424,0Z" transform="translate(24.325 8.481)"/>
                  <path id="路径_27608-2" data-name="路径 27608" class="cls-26" d="M0,6.514S8.584-1.08,11.093.131,8.526,10.253,8.526,10.253Z" transform="translate(49.375 9.816)"/>
                  <path id="路径_27607-2" data-name="路径 27607" class="cls-25" d="M6.588,5.212s-1.693.352-1.76-.762S4.473,0,4.473,0,4.591,4.552.879,5.571,6.41,7.953,6.41,7.953Z" transform="translate(27.463 13.776)"/>
                  <path id="路径_27593-2" data-name="路径 27593" class="cls-27" d="M0,7.68S2.945-.807,5.264.062s-.135,7.068-.135,7.068Z" transform="translate(33.937 11.607)"/>
                  <g id="组_3102-2" data-name="组 3102" transform="translate(9.05 22.359)">
                    <path id="减去_29-3" data-name="减去 29" class="cls-28" d="M3.771,0A3.772,3.772,0,0,0,2.3,7.245,3.772,3.772,0,0,0,5.239.3,3.747,3.747,0,0,0,3.771,0Zm0,6.184A2.413,2.413,0,1,1,6.184,3.771,2.416,2.416,0,0,1,3.771,6.184Z" transform="translate(9.955 7.542) rotate(180)"/>
                    <rect id="矩形_1322-3" data-name="矩形 1322" class="cls-28" width="1.357" height="4.525" transform="translate(4.505 10.807) rotate(-161)"/>
                    <circle id="椭圆_192-3" data-name="椭圆 192" class="cls-29" cx="3.469" cy="3.469" r="3.469" transform="translate(0 8.145)"/>
                    <circle id="椭圆_193-3" data-name="椭圆 193" class="cls-30" cx="1.81" cy="1.81" r="1.81" transform="translate(1.659 9.804)"/>
                    <circle id="椭圆_194-3" data-name="椭圆 194" class="cls-31" cx="0.905" cy="0.905" r="0.905" transform="translate(2.564 10.709)"/>
                  </g>
                  <g id="组_3103-2" data-name="组 3103" transform="translate(50.635 28.381) rotate(135)">
                    <path id="减去_29-4" data-name="减去 29" class="cls-28" d="M2.262,0a2.263,2.263,0,0,0-.881,4.347A2.263,2.263,0,0,0,3.143.178,2.248,2.248,0,0,0,2.262,0Zm0,3.71A1.448,1.448,0,1,1,3.71,2.262,1.45,1.45,0,0,1,2.262,3.71Z" transform="translate(0 5.316)"/>
                    <rect id="矩形_1322-4" data-name="矩形 1322" class="cls-28" width="0.829" height="2.762" transform="translate(3.326 3.244) rotate(19)"/>
                    <circle id="椭圆_192-4" data-name="椭圆 192" class="cls-29" cx="2.112" cy="2.112" r="2.112" transform="translate(1.81 0)"/>
                    <circle id="椭圆_193-4" data-name="椭圆 193" class="cls-30" cx="1.056" cy="1.056" r="1.056" transform="translate(2.866 1.056)"/>
                    <circle id="椭圆_194-4" data-name="椭圆 194" class="cls-31" cx="0.603" cy="0.603" r="0.603" transform="translate(3.318 1.508)"/>
                  </g>
                  <path id="路径_27591-2" data-name="路径 27591" class="cls-32" d="M35.947,1.491S55.434,3.418,56.9,8.7,24.7,18.336,15.5,16.623s-13.384-1.5-14.7-4.6S-.136,5.1,1.506,3.846,15.175,1.027,15.5.67s1.845-1.193,2.559-.2,4.4,7.586,11.03,6.985S35.947,1.491,35.947,1.491Z" transform="translate(4.231 11.781)"/>
                  <path id="交叉_3-2" data-name="交叉 3" class="cls-33" d="M.029,8.231c10.951-1.122,38-3.3,56.9.2a10.18,10.18,0,0,0-.78-3.446c-1.321-3.1-5.5-2.891-14.7-4.6A32.892,32.892,0,0,0,35.817,0C22.955,0-.941,3.776.029,8.231Z" transform="translate(61.174 28.783) rotate(180)"/>
                  <path id="路径_27592-2" data-name="路径 27592" class="cls-34" d="M20.371,2.973S18.641-.377,9.307.035,0,2.039,0,2.039v9.389s.824,3.185,6.4,2.663,7.66-2.608,9.06-4.557S20.371,2.973,20.371,2.973Z" transform="translate(19.855 21.746)"/>
                  <path id="交叉_2-2" data-name="交叉 2" class="cls-35" d="M13.974.022C8.4.543,6.314,2.63,4.914,4.579S0,11.141,0,11.141s1.73,3.349,11.064,2.938l.619-.03L14.234,0Z" transform="translate(40.225 35.86) rotate(180)"/>
                  <path id="交叉_4-2" data-name="交叉 4" class="cls-36" d="M2.154.35C-.284,4.832-.207,11.169.256,15.571.721,15.2,12.608,13.643,14.24,12.4s2.034-5.068.714-8.173C13.738,1.371,10.105,1.324,2.357,0,2.286.114,2.219.23,2.154.35Z" transform="translate(19.825 28.028) rotate(180)"/>
                  <path id="交叉_7-2" data-name="交叉 7" class="cls-37" d="M1.823.213A17.776,17.776,0,0,0,0,6.021,118.523,118.523,0,0,1,15.4,7.689a10.176,10.176,0,0,0-.78-3.446C13.4,1.375,9.748,1.338,1.943,0Q1.881.105,1.823.213Z" transform="translate(19.494 28.043) rotate(180)"/>
                  <circle id="椭圆_189-2" data-name="椭圆 189" class="cls-38" cx="2.036" cy="2.036" r="2.036" transform="translate(0 18.286)"/>
                  <path id="路径_27606-2" data-name="路径 27606" class="cls-24" d="M1.056,0C.473,0,0,14.857,0,14.857S.473,29.713,1.056,29.713,2.112,14.857,2.112,14.857,1.639,0,1.056,0Z" transform="translate(2.112 5.315)"/>
                  <path id="路径_27609-2" data-name="路径 27609" class="cls-39" d="M.4,0C1.177.05,7.695.213,7.695.213s4.313,2.746,2.568,3.347S1.835,2.211.946,1.594-.371-.047.4,0Z" transform="translate(52.928 13.632)"/>
                  <path id="减去_30-2" data-name="减去 30" class="cls-40" d="M1.33,0A2.933,2.933,0,0,0,.416.114.606.606,0,0,0,.037.4.532.532,0,0,0,.052.824.637.637,0,0,1,.416.566,2.929,2.929,0,0,1,1.33.453a21.343,21.343,0,0,1,4.841.838A17.384,17.384,0,0,1,9.732,2.532a2.5,2.5,0,0,1,.889,1.029.343.343,0,0,0,.051-.27,1.426,1.426,0,0,0-.293-.6,2.885,2.885,0,0,0-.647-.613A17.375,17.375,0,0,0,6.172.839,21.344,21.344,0,0,0,1.33,0h0Z" transform="translate(63.606 17.305) rotate(180)"/>
                </g>
              </g>
            </g>
          </g>
          <rect id="矩形_1415" data-name="矩形 1415" class="cls-4" width="750" height="39" transform="translate(0 391)"/>
        </g>
        <path id="路径_27634" data-name="路径 27634" class="cls-10" d="M3.906-11.406v-10a12.339,12.339,0,0,0-1.875.469V-23.75A12.4,12.4,0,0,0,7.5-31.406h5a10.7,10.7,0,0,1-.781,2.188h5.938v-2.812h5.313v2.813H37.031v2.5H22.969v2.5H37.031v2.5H22.969v2.5H37.031v2.656H22.969v2.656H37.031v2.5H22.969v2.969H37.813v2.813H31.25A9.917,9.917,0,0,0,37.969.313V3.438Q28.437.937,26.25-5.625H22.969V3.594H17.656V-5.625H13.75Q11.406.938,2.031,3.438V.313A10.423,10.423,0,0,0,8.75-5.625H2.344V-8.437H17.656v-2.969Zm5-5.156v2.656h8.75v-2.656Zm0-5.156v2.5h8.75v-2.5Zm1.563-5a14.129,14.129,0,0,1-1.25,1.875l-.312.313v.313h8.75v-2.5ZM57.719,2.656V-12.031H77.406V-2.5q.156,5.313-5.312,5.156ZM56.156-25.156v-3.125h8.906v-3.906h5v3.906h9.063v3.125H70.063v6.25h7.969v3.281H57.25v-3.281h7.813v-6.25ZM43.656-6.562v-3.75a32.676,32.676,0,0,0,5.625-6.875q-1.719.156-6.25.156v-3.437a33.4,33.4,0,0,0,5.625-11.406h5A36.488,36.488,0,0,1,47.25-20.312a17.621,17.621,0,0,0,3.906-.312,26.238,26.238,0,0,0,1.406-3.437h4.375a30.148,30.148,0,0,1-8.594,13.75,34.89,34.89,0,0,0,7.5-.625v3.281A60.853,60.853,0,0,1,43.656-6.562ZM62.406-.156h7.969q2.5.156,2.344-2.656V-8.75H62.406ZM43.031.938V-2.5A56.86,56.86,0,0,0,56.313-3.75V-.469A64.7,64.7,0,0,1,43.031.938Zm61,1.719q-5.625,0-5.469-4.844V-30.469H118.25v13.75q.156,5.625-5.469,5.469h-10v8.594q-.156,2.5,2.344,2.344h8.906q2.344.156,2.188-1.875V-4.062h3.594v2.188q.313,4.844-4.844,4.531ZM84.969-.312V-29.687H96.063V-4.844q.156,4.688-4.531,4.531Zm4.063-3.125H90.75q1.562.156,1.563-1.875v-21.25H89.031Zm13.75-23.75v12.656h3.75V-27.187Zm11.25,0h-3.594v12.656H112q2.188.156,2.031-2.5ZM130.969-6.25l-.625-23.281h4.844L134.406-6.25Zm-.625,9.063V-1.562h4.844V2.813ZM166.031-23.75v-3.125h3.906v-5.312h4.688v5.313h3.438v3.125h-3.281a37.317,37.317,0,0,0,3.438,10.313v4.844a53.979,53.979,0,0,1-3.594-5.469V3.906h-4.687V-12.656a49.32,49.32,0,0,1-4.531,8.438V-9.375a50.434,50.434,0,0,0,4.375-14.375Zm36.25,27.5a52.555,52.555,0,0,1-12.187-5.469A52.555,52.555,0,0,1,177.906,3.75V.625a28.4,28.4,0,0,0,9.219-5,28.914,28.914,0,0,1-6.094-11.406h4.688a26.041,26.041,0,0,0,4.375,8.438,24.623,24.623,0,0,0,4.219-8.437h4.844q-2.344,7.5-6.094,11.406a27.9,27.9,0,0,0,9.219,5ZM179.156-25.625V-28.75h8.594v-3.281h5.313v3.281h8.75v3.125Zm-.625,9.375v-2.5q4.531-1.719,5.625-5.312h4.688Q186.656-17.031,178.531-16.25Zm23.594,0q-8.437-1.094-10.312-7.812H196.5a8.45,8.45,0,0,0,5.625,5.313Zm5.375-8.594v-3.281h9.219l.469-4.062h5.156q0,.625-.156,2.031-.156,1.25-.312,2.031h20.938v3.281H221.406q-.469,2.813-.937,5.156h19.375v3.438q-3.125,8.125-8.125,12.188A31.284,31.284,0,0,0,242.5.781V3.75a47.291,47.291,0,0,1-14.062-5.312,55.787,55.787,0,0,1-14.062,5.469V.781a43.161,43.161,0,0,0,10.938-4.844,35.518,35.518,0,0,1-6.719-9.687q-2.969,8.125-11.406,15.781V-1.875a44.64,44.64,0,0,0,9.063-22.969Zm12.031,8.594q-.469,1.25-.781,2.188h5a27.677,27.677,0,0,0,4.844,7.188,31.507,31.507,0,0,0,5.938-9.375ZM26.469,45.8a34.141,34.141,0,0,1-4.375-3.828A25.678,25.678,0,0,1,17.719,45.8V43.5A17.94,17.94,0,0,0,20.672,40q-1.969-2.844-2.406-8.422-.109,0-.328.219a1.272,1.272,0,0,0-.328.219V29.938q1.969-1.531,2.406-5.359h2.844a15.859,15.859,0,0,1-.766,2.734h4.594v2.078h-.875q-.109,6.781-2.406,10.719a32.855,32.855,0,0,0,3.063,3.5ZM1.094,49.516V47.547A3.484,3.484,0,0,0,3.5,43.719v-8.75H1.422V32.781H6.563V43.172Q6.672,46.891,10.391,47H26.578v2.078H10.391A5.58,5.58,0,0,1,5.578,47Q4.375,48.859,1.094,49.516Zm7.328-15.2v-8.2h2.406a7.875,7.875,0,0,0,.438-1.641h3.063a4.88,4.88,0,0,1-.437,1.641h3.172v5.469q.109,2.844-2.844,2.734Zm-.875,3.281v-1.75h3.609V34.75h3.172v1.094h3.609v1.75h-5.8v.438q0,.438,0,.984h5.031v3.828q.109,2.953-3.062,2.844H12.25v-1.75h.984q1.313.109,1.2-1.312v-1.75H11.922q-.328,3.172-4.156,5.141V44.047q1.75-1.75,1.641-5.578v-.875Zm-3.5-7.109A23.029,23.029,0,0,0,2.3,25.016H5.141a22.6,22.6,0,0,1,1.969,5.469Zm18.047,6.781a23.451,23.451,0,0,0,1.2-7.875H21.109a9.558,9.558,0,0,1-1.531,1.422h1.313A24.217,24.217,0,0,0,22.094,37.266Zm-11.047-4.7h2.188q1.313.109,1.2-1.2v-.437H11.047Zm0-4.812v1.531h3.391V27.75Zm27.5,21.875V36.281h15.2v9.844q.109,3.5-3.172,3.281H48.169V47.328h.984q1.531.109,1.422-1.2v-.656H41.716v4.156ZM37.559,27.75V25.891H44.45V24.469h3.281v1.422h7.328V27.75H47.731v1.641h6.563V31.25H47.731v1.859H55.5v1.859H36.9V33.109H44.45V31.25H38V29.391H44.45V27.75ZM32.091,49.188V34.641H30.013v-2.3h5.359V44.922a8.551,8.551,0,0,0,2.078-1.2v2.516A18.12,18.12,0,0,1,32.091,49.188Zm.656-18.922a18.891,18.891,0,0,0-2.078-5.359h3.172a18.762,18.762,0,0,1,2.188,5.359Zm8.969,11.594v1.75h8.859v-1.75Zm0-3.609v1.859h8.859V38.25ZM61.556,49.625V33.875a12.859,12.859,0,0,1-2.844,1.313V33.219q3.828-2.516,5.031-8.641h3.391a22.755,22.755,0,0,1-2.187,6.016V49.625Zm8.859-.219V47h1.641q1.641.109,1.531-1.312V31.141h3.391V45.8q.109,3.719-3.719,3.609Zm-4.047-15.75V31.469A9.373,9.373,0,0,0,69.978,24.8h3.281a6.574,6.574,0,0,1-.437,1.969H83.65v5.688H80.478V29.063H71.947A10.266,10.266,0,0,1,66.369,33.656Zm0,12.906V43.938q2.625-3.391,2.625-10.062h2.953Q72.275,42.734,66.369,46.563Zm17.719,0q-5.578-3.828-5.359-12.578h2.844q0,6.563,2.516,9.844Zm4.2,1.969V27.859h3.172a29.005,29.005,0,0,0,.766-3.172h3.281a29.005,29.005,0,0,1-.766,3.172h4.266V45.031q.109,3.609-3.391,3.5Zm16.516.656V47h2.3q1.75,0,1.641-1.641V29.719h-4.484a10.121,10.121,0,0,1-4.594,3.719V31.359q2.516-2.078,2.844-6.781h3.281q-.109.438-.219,1.094a6.344,6.344,0,0,1-.328,1.641h6.781V45.469q.219,3.938-3.609,3.719ZM91.459,46.453h3.063q1.422.109,1.313-1.531V38.906H91.459Zm0-16.3v6.563h4.375V30.156Zm11.484,11.375a32.593,32.593,0,0,0-1.859-7.547h2.734a30.6,30.6,0,0,1,2.3,7.547Zm18.966-8.641v-2.3h13.781v2.3Zm-4.484,16.516V25.672h22.859V45.8q.109,3.609-3.609,3.5h-2.844V47h1.531q1.531,0,1.422-1.422v-17.5H120.816V49.406Zm8.75-6.781H130q1.641,0,1.531-1.531V37.484h-5.359Zm-2.844,2.188V35.406h11.047v6.125q.109,3.391-3.609,3.281Zm21.7-2.3V40.109h11.156v-1.2a23.267,23.267,0,0,0,5.031-3.062H148.859v-2.3H166.25v2.3a22.148,22.148,0,0,1-6.234,3.609v.656h9.953v2.406h-9.953v3.172q.109,3.938-4.156,3.938h-3.391v-2.3h1.859q1.969.109,1.859-1.641V42.516Zm.547-9.406v-4.7h16.734a20.785,20.785,0,0,0,1.75-3.828h3.391a14.054,14.054,0,0,1-2.078,3.828h4.047v4.7h-3.281V30.594H148.859v2.516Zm3.281-5.359a16.694,16.694,0,0,0-1.2-3.172h3.172a16.277,16.277,0,0,1,1.313,3.172Zm7.328,0a12.584,12.584,0,0,0-1.094-3.172h3.063a10.479,10.479,0,0,1,1.313,3.172Zm17.106,9.3V34.531h25.813v2.516ZM203.087,29.5V27.2h4.047V24.469h3.391V27.2h3.719v2.3h-3.719v3.719h4.484v2.188h-3.391v3.938h3.172v2.188h-3.172v5.25a15.387,15.387,0,0,0,2.734.219h13.234v2.078H213.041a9.862,9.862,0,0,1-7.547-2.625,8.264,8.264,0,0,1-3.5,3.391V47.438q1.641-1.75,1.531-5.359V37.156h2.734V41.75a18.835,18.835,0,0,1-.109,2.078,2.346,2.346,0,0,1,.547.438,12.71,12.71,0,0,0,1.641,1.313V35.406h-6.125V33.219h4.922V29.5Zm16.625,15.2q-3.719.219-3.5-3.719V32.672h4.7q1.969.109,1.859-1.75V28.188h-7v-2.3h10.172v5.578q.219,3.609-3.719,3.5h-2.844v5.578q-.109,1.969,1.641,1.859h1.75q1.75.109,1.641-1.641v-.984h2.625V41.2q.109,3.609-3.391,3.5Zm25.528,3.172V26.984h10.172V44.266q.109,3.719-3.719,3.609Zm-14.328,1.969V47a24.181,24.181,0,0,0,2.625-7.109,55.784,55.784,0,0,0,.656-9.734H231.35v-2.3H234.3V24.469h3.172v3.391h5.8v17.5q.109,3.828-3.937,3.719h-2.406V47h1.641a1.257,1.257,0,0,0,1.422-1.422V30.156h-2.516Q237.8,43.828,230.912,49.844Zm17.5-4.047h2.3q1.641,0,1.531-1.531V29.281h-3.828Zm36.466,3.719q-9.516-5.8-12.578-14-2.844,8.094-12.578,14.109V47.109a32.443,32.443,0,0,0,10.938-17.062q-.656-2.516-1.2-5.469h3.828Q275.472,39.891,284.878,47Zm13.934-7.547V25.781h13.672V41.969h-2.953V28.078h-7.766V41.969Zm-1.531,7.766V47.656q7.219-3.281,6.781-9.625V30.047h3.063v7.984q-.328,6.344,6.453,9.625v2.078q-5.578-2.187-7.984-5.578Q303.406,47.656,297.281,49.734Zm-5.25-4.812h1.094a1.16,1.16,0,0,0,1.313-1.312V28.516h-2.406ZM289.3,47V26.328h7.766V43.609Q297.172,47,293.781,47Zm31.981-4.375-.437-16.3h3.391l-.547,16.3Zm-.437,6.344V45.906h3.391v3.063Z" transform="translate(74 209.346)"/>
        <g id="组_3033" data-name="组 3033" transform="translate(70 292.533)">
          <rect id="矩形_991" data-name="矩形 991" class="cls-43" width="188" height="60" rx="30"/>
          <text id="邀请好友" class="cls-44" transform="translate(41 40)"><tspan x="0" y="0">邀请好友</tspan></text>
        </g>
      </g>
    </g>
  </g>
</svg>
