<svg xmlns="http://www.w3.org/2000/svg" xmlns:xlink="http://www.w3.org/1999/xlink" width="750" height="302" viewBox="0 0 750 302">
  <defs>
    <style>
      .cls-1, .cls-10, .cls-53 {
        fill: #fff;
      }

      .cls-1 {
        stroke: #707070;
      }

      .cls-2 {
        fill: #31d7a3;
      }

      .cls-3 {
        clip-path: url(#clip-path);
      }

      .cls-4 {
        fill: #ff8092;
      }

      .cls-5 {
        clip-path: url(#clip-path-2);
      }

      .cls-6 {
        clip-path: url(#clip-path-3);
      }

      .cls-7 {
        fill: rgba(255,255,255,0.9);
      }

      .cls-8 {
        fill: rgba(255,71,71,0.9);
      }

      .cls-9 {
        fill: rgba(255,255,255,0.5);
      }

      .cls-11 {
        fill: #e1ff14;
      }

      .cls-12 {
        fill: rgba(255,255,255,0.7);
      }

      .cls-13 {
        fill: url(#radial-gradient);
      }

      .cls-14 {
        fill: #ffbab5;
      }

      .cls-15, .cls-48 {
        fill: #eda8a3;
      }

      .cls-16 {
        fill: #322128;
      }

      .cls-17 {
        fill: #7a071e;
      }

      .cls-18 {
        fill: #903e44;
      }

      .cls-19 {
        fill: #f2e5b8;
      }

      .cls-20 {
        fill: #faf0cf;
      }

      .cls-21 {
        fill: #ebd8a8;
      }

      .cls-22 {
        fill: url(#linear-gradient);
      }

      .cls-23 {
        fill: #9cc67e;
      }

      .cls-24 {
        fill: #c8d2fc;
      }

      .cls-25 {
        fill: #b9c4f0;
      }

      .cls-26 {
        fill: #fecbec;
      }

      .cls-27 {
        fill: #7c041c;
      }

      .cls-28 {
        fill: #f2c122;
      }

      .cls-29 {
        fill: #2b121d;
      }

      .cls-30 {
        fill: #ea6c85;
      }

      .cls-31, .cls-44 {
        fill: #c60f39;
      }

      .cls-32 {
        fill: #68484d;
      }

      .cls-33 {
        fill: #feff01;
      }

      .cls-34 {
        fill: #95954e;
      }

      .cls-35 {
        fill: #f09aa4;
      }

      .cls-36 {
        fill: #e86350;
      }

      .cls-37, .cls-50, .cls-51 {
        fill: none;
      }

      .cls-37 {
        stroke: #fff;
      }

      .cls-37, .cls-44, .cls-50, .cls-51 {
        stroke-linecap: round;
      }

      .cls-37, .cls-44, .cls-46, .cls-50, .cls-51 {
        stroke-linejoin: round;
      }

      .cls-37, .cls-46, .cls-50 {
        stroke-width: 2px;
      }

      .cls-38 {
        fill: #fffd00;
      }

      .cls-39 {
        fill: #fdb628;
      }

      .cls-40 {
        fill: #e9604e;
      }

      .cls-41 {
        fill: #ffb423;
      }

      .cls-42 {
        fill: #ed768d;
      }

      .cls-43 {
        fill: #ffff01;
      }

      .cls-44 {
        stroke: #c60f39;
      }

      .cls-45 {
        fill: #80a261;
      }

      .cls-46 {
        fill: #fcccc8;
        stroke: #fdfaf4;
      }

      .cls-47 {
        fill: #fdfaf4;
      }

      .cls-48 {
        opacity: 0.769;
      }

      .cls-49 {
        fill: #4f2e3d;
      }

      .cls-50, .cls-51 {
        stroke: #dd6f82;
      }

      .cls-51 {
        stroke-width: 3px;
      }

      .cls-52 {
        fill: rgba(226,67,95,0.72);
      }

      .cls-53 {
        font-size: 26px;
        font-family: PingFang SC Bold, PingFang SC;
        letter-spacing: 0.025em;
      }

      .cls-54 {
        filter: url(#圆角矩形_3);
      }
    </style>
    <clipPath id="clip-path">
      <rect id="矩形_1446" data-name="矩形 1446" class="cls-1" width="750" height="302" transform="translate(0 128)"/>
    </clipPath>
    <clipPath id="clip-path-2">
      <path id="路径_27649" data-name="路径 27649" class="cls-2" d="M0,0H750V360.566C750,376.822,735.673,390,718,390H32c-17.673,0-32-13.178-32-29.434Z" transform="translate(0 40)"/>
    </clipPath>
    <clipPath id="clip-path-3">
      <path id="路径_27565" data-name="路径 27565" class="cls-2" d="M0,0H750V397.547A32.229,32.229,0,0,1,718,430H32A32.229,32.229,0,0,1,0,397.547Z"/>
    </clipPath>
    <radialGradient id="radial-gradient" cx="0.5" cy="0.5" r="0.5" gradientTransform="translate(-0.095) scale(1.19 1)" gradientUnits="objectBoundingBox">
      <stop offset="0" stop-color="#ffbf16"/>
      <stop offset="1" stop-color="#ffd144"/>
    </radialGradient>
    <linearGradient id="linear-gradient" x1="0.491" y1="-0.16" x2="0.509" y2="1.16" gradientUnits="objectBoundingBox">
      <stop offset="0" stop-color="#b4d576"/>
      <stop offset="0.566" stop-color="#31787e"/>
      <stop offset="0.74" stop-color="#31787e"/>
      <stop offset="1" stop-color="#31787e"/>
    </linearGradient>
    <filter id="圆角矩形_3" x="477.255" y="8.255" width="34.368" height="52.668" filterUnits="userSpaceOnUse">
      <feOffset dx="-2" dy="1" input="SourceAlpha"/>
      <feGaussianBlur result="blur"/>
      <feFlood flood-color="#ece9db"/>
      <feComposite operator="in" in2="blur"/>
      <feComposite in="SourceGraphic"/>
    </filter>
  </defs>
  <g id="banner_home_3" transform="translate(0 -128)">
    <g id="蒙版组_39" data-name="蒙版组 39" class="cls-3">
      <g id="组_3186" data-name="组 3186">
        <g id="组_3032" data-name="组 3032">
          <rect id="矩形_1416" data-name="矩形 1416" class="cls-4" width="750" height="44" transform="translate(0 386)"/>
          <path id="路径_27564" data-name="路径 27564" class="cls-4" d="M0,0H750V360.566C750,376.822,735.673,390,718,390H32c-17.673,0-32-13.178-32-29.434Z" transform="translate(0 40)"/>
          <g id="蒙版组_36" data-name="蒙版组 36" class="cls-5">
            <g id="组_3132" data-name="组 3132">
              <g id="组_2826" data-name="组 2826" transform="translate(404.813 139.392)">
                <path id="xing4" class="cls-7" d="M733.013,578.828l2.124,9.044,6.9,3.192-6.371,2.128-3.186,10.64-2.655-10.64-5.84-2.128,6.371-2.66Z" transform="translate(-723.988 -434.967)"/>
                <path id="xing4_拷贝" data-name="xing4 拷贝" class="cls-8" d="M422.792,322l2.124,9.043,6.9,3.192-6.371,2.128L422.261,347l-2.655-10.639-5.84-2.128,6.371-2.66Z" transform="translate(-238.381 -321.999)"/>
                <path id="xing4_拷贝_2" data-name="xing4 拷贝 2" class="cls-8" d="M623.659,658.177l1.969,8.387,6.4,2.96-5.908,1.973-2.954,9.868L620.7,671.5l-5.416-1.973,5.909-2.467Z" transform="translate(-316.842 -473.342)"/>
                <path id="xing3" class="cls-9" d="M323.192,489.325l-2.954,1.48-1.969,5.921-1.477-6.414-4.432-.987,3.447-1.48,2.954-5.92,1.477,4.934Z" transform="translate(-206.576 -409.39)"/>
                <path id="xing2" class="cls-10" d="M264.374,368.489l1.969,6.908,4.924,1.48-4.924,2.467-1.969,6.907-1.97-6.414-3.939-1.973,3.939-1.974Z" transform="translate(-204.945 -369.18)"/>
                <path id="xing2_拷贝_3" data-name="xing2 拷贝 3" class="cls-10" d="M309.081,338.125l2.124,7.448,5.309,1.6-5.309,2.66-2.124,7.448-2.124-6.916-4.247-2.128,4.247-2.128Z" transform="translate(-183.976 -338.045)"/>
                <path id="xing2_拷贝_4" data-name="xing2 拷贝 4" class="cls-11" d="M185.548,465.707l1.969,6.907,4.924,1.48-4.924,2.467-1.969,6.907-1.97-6.414-3.939-1.973,3.939-1.974Z" transform="translate(-158.426 -403.488)"/>
                <path id="xing2_拷贝" data-name="xing2 拷贝" class="cls-12" d="M301.131,428.734l.985,3.259,2.462.7-2.462,1.164-.985,3.259-.985-3.026-1.969-.931,1.969-.931Z" transform="translate(-201.422 -390.078)"/>
                <path id="xing2_拷贝_2" data-name="xing2 拷贝 2" class="cls-12" d="M550.808,515.963l.985,3.259,2.462.7-2.462,1.164-.985,3.259-.985-3.026-1.969-.931,1.969-.931Z" transform="translate(-291.917 -421.787)"/>
                <path id="xing1" class="cls-13" d="M541.248,414.257l1.477,2.96,2.462,1.48-2.462,1.48-.985,3.454-1.477-2.96L537.31,418.7l2.954-.987Z" transform="translate(-288.516 -385.097)"/>
              </g>
            </g>
            <g id="组_3143" data-name="组 3143" transform="translate(7176 -6165.023)">
              <path id="形状_20" data-name="形状 20" class="cls-14" d="M809.95,259.268s-8.068-3.148-10.651-8.714c0,0-9.009-2.529-7.746,4.841,0,0,.244.854-2.421.484,0,0-8.722-4.521-11.135,4.357,0,0-.241,5.616,3.389,7.746,0,0-2.145,8.832,2.421,10.651l25.175.484Z" transform="translate(-7546.915 6165.156)"/>
              <g id="组_4" data-name="组 4" transform="translate(-6704.528 6317.006)">
                <path id="形状_20_拷贝" data-name="形状 20 拷贝" class="cls-15" d="M961.629,86.464a58.918,58.918,0,0,1,2.185-11.319c1.389-4.474,6.45-8.341,4.357-10.651,0,0-4.8-2.625-11.135,1.452a43.529,43.529,0,0,1-1.35-4.522S945.46,39.469,941.06,49.97a120.317,120.317,0,0,1,0,12.588s-15.306-8.78-15.008-2.9c0,0,15.47,15.992.968,12.1-4.237-1.136-.845,7.825,6.294,12.1,11.173,6.7,9.35,8.583,9.35,8.583Z" transform="translate(-918.305 -47.126)"/>
                <path id="形状_10" data-name="形状 10" class="cls-16" d="M1048.98,206.8s-29.8,11.746-52.771-44.057L978.3,109S948.7,124.555,911,121.588c0,0,54.093,116.6,63.906,130.234s6.043,30.551,8.23,39.215l61.97,19.85Z" transform="translate(-911 -79.044)"/>
                <path id="形状_21" data-name="形状 21" class="cls-17" d="M927,153.524S966.539,163.889,990.422,139l3.389,10.651s-22.215,18.643-62.454,13.556Z" transform="translate(-919.254 -94.52)"/>
                <path id="形状_22" data-name="形状 22" class="cls-17" d="M941,182.524l1.937,4.357s19.482,4.342,34.858-1.452a125.135,125.135,0,0,0,25.659-13.072L1002,168s-15.172,12.221-27.112,14.524S941,182.524,941,182.524Z" transform="translate(-926.476 -109.48)"/>
              </g>
              <path id="形状_7" data-name="形状 7" class="cls-18" d="M1150,236.633s-18.052-7.412-30.017,4.841c0,0-5.4,2.66-4.841,15.008,0,0,2.756,6.165-.484,7.746,0,0-23.308.154-23.723,20.818,0,0-18.246,26.591,1.937,38.731,0,0,28.922,26.839,59.549-5.81C1152.426,317.969,1189.408,264.922,1150,236.633Z" transform="translate(-7704.45 6173.267)"/>
              <g id="组_1" data-name="组 1" transform="translate(-6858 6325.659)">
                <path id="形状_17" data-name="形状 17" class="cls-19" d="M598.541,93.723l-4.357,15.008L554,70Z" transform="translate(-553.516 -68.548)"/>
                <path id="形状_15" data-name="形状 15" class="cls-20" d="M613.517,82.492,553,67l25.175,37.763Z" transform="translate(-553 -67)"/>
                <path id="形状_16" data-name="形状 16" class="cls-21" d="M599.993,91.239,554,68l.484.968,44.057,23.239Z" transform="translate(-553.516 -67.516)"/>
              </g>
              <g id="组_2" data-name="组 2" transform="translate(-6762.678 6403.775)">
                <path id="形状_14" data-name="形状 14" class="cls-22" d="M824.334,312.332s-16.223-21.743-17.913-27.112L804,277.959s.208-2.015,2.9,0,12.829,8.067,15.008,12.1l.484-1.937-3.873-3.873,1.937-1.452,2.9,2.9s2.751-.928,3.873.484c0,0,4.473-9.319,10.167-9.2l-4.357-6.294s-5.349-.538-4.357-2.9,2.355,2.23,3.873,0c0,0,1.318-1.025,1.452-1.937s1.677-2.113,1.937,0c0,0-.392,3.331.484,3.873l3.389,4.841a6.657,6.657,0,0,1,.484-4.357l-.968-4.357s-3.4-2.67-5.81-3.389c0,0,6.953.6,9.2-1.452l1.452-.484s-3.338,3.819-2.9,4.357l1.452,5.326s2.624,5.088,1.937-6.294v-1.937h2.421s2.314-5.278,5.326-4.841a3.167,3.167,0,0,1,2.9,2.421s1.227-3.3,4.357-2.9c0,0,.422-4.582.484-7.262s.484-.968.484-.968,1.121-.376.968,3.389a44.6,44.6,0,0,0,0,5.326s2.03,1.916,0,5.81c0,0,3.216-4.159,5.325-2.421,0,0,16.153,3.287,17.429-.484s3.062-8.6,4.841-9.2c0,0,1.731-.73.484,1.452,0,0-2.124,2.765-.968,5.326s3.578,7.531,2.9,10.651c0,0,3.383-2.506,3.873-.484,0,0,7.329-8.267,7.746-11.619h0s2.8-4.819,1.937.968c0,0-5.954,11.178-7.746,12.588,0,0,.323,3.253,0,3.873,0,0,9.543-9.947,11.619-10.167,0,0,.093,10.224-3.873,16.945,0,0,11.722-8.931,15.977-5.81l2.9-1.452.968,2.421-2.421.968s-1.716,8.3-5.326,13.072c0,0,3.186-1.455,5.326-.968,0,0,6.329-5.667,8.714-6.778l.968,1.452-6.778,5.81s3.8-.469,4.841-.484l-2.9,2.421a18.93,18.93,0,0,1,6.778,0c3.208.713,22.745,9.946,23.723,22.755s-71.168,55.192-71.168,55.192Z" transform="translate(-797.653 -237.46)"/>
                <g id="组_6" data-name="组 6" transform="translate(1.273 0)">
                  <path id="形状_33" data-name="形状 33" class="cls-23" d="M1035.81,396.953s11.734-20.106,25.175-20.818l-1.452-9.2L1054.691,365s-21.4,24.7-21.3,25.175-3.389,4.357-3.389,4.357Z" transform="translate(-915.51 -297.874)"/>
                  <path id="形状_34" data-name="形状 34" class="cls-23" d="M825.705,354.985s-14-23.514-31.469-30.985c0,0-3.186.756,3.873,6.778s9.2,15.008,9.2,15.008Z" transform="translate(-793.519 -276.724)"/>
                  <path id="形状_35" data-name="形状 35" class="cls-23" d="M841.048,345.835l-1.452-9.683-3.389-4.357S818.038,326.5,812,316.786c0,0,5.353-4.843,19.366,2.421,0,0-.241-19.418,9.683-24.207,0,0,10.111,8.116,1.452,35.826C842.5,330.826,842.447,341.379,841.048,345.835Z" transform="translate(-803.052 -261.764)"/>
                  <path id="形状_39" data-name="形状 39" class="cls-23" d="M905.393,308.269c.141-.483-.894-26.565-15.977-44.541,0,0-2.552-1.157-.968,1.452,0,0,9.524,16.592,9.2,25.659,0,0-2.614-4.173-3.873-4.841,0,0-1.785,5.944,0,10.167l1.937,9.683S905.252,308.752,905.393,308.269Z" transform="translate(-842.222 -245.5)"/>
                  <path id="形状_40" data-name="形状 40" class="cls-23" d="M936.2,259.586s8.737-24.462-13.072-27.6c0,0-7.8-.855-8.714-4.357,0,0-2.562-3.452-2.421.968,0,0,1.719,8.065,6.778,10.167s3.388,7.5,2.421,10.167-1.46,12.83,3.873,13.556S936.2,259.586,936.2,259.586Z" transform="translate(-854.633 -226.35)"/>
                  <path id="形状_36" data-name="形状 36" class="cls-23" d="M902.725,410.169s-4.776-10.9-2.421-21.786c0,0,14.965-4.6,21.3,12.1Z" transform="translate(-848.269 -309.637)"/>
                  <path id="形状_37" data-name="形状 37" class="cls-23" d="M950.446,330.883s-3.585-25.912.484-40.184,6.1-32.137,22.271-39.7c0,0-24.627,32.223-15.492,65.359l3.873,10.167Z" transform="translate(-873.718 -239.066)"/>
                  <path id="形状_38" data-name="形状 38" class="cls-23" d="M968.167,346.8a66.393,66.393,0,0,1-.968-17.429s-8.869-12.468-9.2-20.818c0,0,8.86-3.022,16.461,7.262,0,0,10.531-21.122,30.985-20.818,0,0-29.6,10.383-26.144,29.533l1.937,1.937s-1.584-14.2,8.23-20.818a77.262,77.262,0,0,1,1.937,20.818s-12.163,2.591-10.167,13.556Z" transform="translate(-878.368 -261.76)"/>
                </g>
                <path id="形状_12" data-name="形状 12" class="cls-24" d="M998.187,438.391S1008.4,403.9,1066.451,374c0,0,13.437,28.239-68.748,76.978A40.222,40.222,0,0,1,998.187,438.391Z" transform="translate(-897.433 -302.517)"/>
                <path id="形状_13" data-name="形状 13" class="cls-24" d="M844.683,443.217S784.624,372.694,791.428,343c0,0,71.151,32.254,81.336,90.05l3.389,23.239Z" transform="translate(-790.89 -286.525)"/>
                <path id="形状_11" data-name="形状 11" class="cls-25" d="M907.123,502.841s-49.2-61.684-55.647-80.911c0,0-2.886-2.626,5.326-5.326,0,0,49.932-39.669,62.454-42.6,0,0,54.45,44.637,49.382,70.2l-45.217,57.011s-4.074,3.783-8.149,4.191S907.123,502.841,907.123,502.841Z" transform="translate(-821.89 -302.517)"/>
              </g>
              <path id="形状_8" data-name="形状 8" class="cls-26" d="M1186.494,396.831s-10.7-20.822-40.668-12.1c0,0-15.348,4.354-13.072,13.072C1132.755,397.8,1159.015,405.255,1186.494,396.831Z" transform="translate(-7729.803 6096.826)"/>
              <g id="组_3" data-name="组 3" transform="translate(-6744.715 6489.044)">
                <path id="形状_20-2" data-name="形状 20" class="cls-14" d="M859.95,510.268s-8.068-3.148-10.651-8.714c0,0-9.009-2.529-7.746,4.841,0,0,.244.854-2.421.484,0,0-8.722-4.521-11.135,4.357,0,0-.241,5.616,3.389,7.746,0,0-2.145,8.832,2.421,10.651a44.2,44.2,0,0,0,13.148,2.84,32.68,32.68,0,0,0,12.027-2.355Z" transform="translate(-827.993 -448.043)"/>
                <path id="形状_9" data-name="形状 9" class="cls-16" d="M1045.911,416.284s-21.8-25.443-38.731-7.262c0,0-25.908,58.136-113.773,44.057l-.968.484s-1.628,20.7-1.452,25.175l41.407-.1,153.7-.381s-17.636-20.207-17.429-46.962S1045.911,416.284,1045.911,416.284Z" transform="translate(-860.482 -402.473)"/>
                <path id="路径_27500" data-name="路径 27500" class="cls-16" d="M1010.409,555.81c-36.926,24.517-119.436,21.815-119.436,21.815v-20.27Z" transform="translate(-860.482 -481.573)"/>
                <path id="形状_18" data-name="形状 18" class="cls-27" d="M922,510s1.326,41.152,2.421,43.525h9.2s-4.37-27.12-2.421-41.749Z" transform="translate(-876.488 -457.942)"/>
                <path id="形状_19" data-name="形状 19" class="cls-27" d="M953,512s.816,37.644,2.9,42.118h4.357s-3.843-34.277-2.421-42.118Z" transform="translate(-889.465 -458.973)"/>
                <path id="路径_27501" data-name="路径 27501" class="cls-16" d="M41.377,5.487S25.228,46.929,14.884,83.622A589.014,589.014,0,0,0,0,152.264s20.239,35.989,52.18,40.656a302.842,302.842,0,0,0,62.006,2.047l61.392-18.053S136.389,23.357,119.756,7.6,41.377,5.487,41.377,5.487Z" transform="translate(98.021 80.804) rotate(-11)"/>
              </g>
              <g id="组_11" data-name="组 11" transform="translate(-6608.406 6379.874)">
                <path id="形状_4" data-name="形状 4" class="cls-14" d="M1174.64,239.983s-24.318-.29-39.7,29.048c0,0-.374,1.257-.484,1.937-.8,4.906-2.767,25.167,14.04,33.406,0,0,15.06,9.42,28.08-.968s16.656-33.412,13.072-46.477S1179.862,239.676,1174.64,239.983Z" transform="translate(-1122.13 -209.473)"/>
                <path id="形状_5" data-name="形状 5" class="cls-14" d="M1224,226" transform="translate(-1168.586 -202.268)"/>
                <path id="形状_6" data-name="形状 6" class="cls-18" d="M1199.337,225.443s-20.156-7.408-16.945,11.135c0,0-.061,7.732,5.325,10.651,0,0,4.207,17.627,8.23,20.334,0,0,4.76,13.563-2.9,20.818,0,0-4.938,5.978-6.778,8.715,0,0-13.358,7-10.651,22.27,0,0,.787,18.607,23.723,14.04,0,0,6.14,17.235,22.271,10.651.516,0,9.283-6.441,9.2-11.619,0,0,14.4-11.558.968-32.922a19.592,19.592,0,0,1-2.905-17.429c3.109-10.17,9.645-28.362-13.556-48.414C1215.314,233.673,1207.4,227.412,1199.337,225.443Z" transform="translate(-1143.439 -201.227)"/>
                <g id="组_12" data-name="组 12" transform="translate(44.763 0)">
                  <path id="形状_2" data-name="形状 2" class="cls-16" d="M1202.484,176.99s30.668,13.062,43.089,15.492c0,0,17.842,31.337,21.786,33.89,0,0-13.741-3.115-17.913-4.841,0,0-2.557,5.755-6.294,7.746,0,0-3.15-17.687-30.016-27.6,0,0,1.315-4.433,3.389-5.81,0,0-13.545-16.145-14.524-18.4C1202,177.474,1202.044,176.9,1202.484,176.99Z" transform="translate(-1202 -176.981)"/>
                  <path id="形状_3" data-name="形状 3" class="cls-28" d="M1281.937,217.714s.422-6.749,2.9-5.81.727,5.331.484,6.778-2.586,11.074-1.452,30.985c0,0,.156,9.711,1.936,12.588s6.282,9.217,6.294,10.651h1.453s7.007,18.132,6.778,21.3c0,0-.752,2.161-1.937,2.421v-1.937s-.754,3.147-2.9,3.873a25.631,25.631,0,0,0,0-3.873,17.923,17.923,0,0,1-2.421.968,16.6,16.6,0,0,0,.484-1.937s-.288-2.239-1.453,2.421c0,0-1.083,2.127-.968.968s.765-4.455.484-5.81c0,0-.777.585-.484-1.452s.809-9.788.484-10.651l-1.937-3.873.484-.484a26.155,26.155,0,0,0-3.389-5.81s-6.323-6.447-5.81-24.691S1281.937,217.714,1281.937,217.714Z" transform="translate(-1242.721 -194.95)"/>
                </g>
                <path id="形状_56" data-name="形状 56" class="cls-29" d="M1113.115,547.866s26.672-11.542,30.175-17.033c0,0-33.135,35.667-33.749,37.743Z" transform="translate(-1109.541 -359.519)"/>
              </g>
              <g id="组_7" data-name="组 7" transform="translate(-6646.088 6446.329)">
                <path id="形状_45_拷贝_2" data-name="形状 45 拷贝 2" class="cls-30" d="M10.293,38.358c.022-.856-.26-9.177,3.237-15.063-3.6-.564-8.914-3.107-13.53-11.77,0,0-.053-1.316.87-1.26.832.051,8.736.06,14.468,3.47-.788-3.158-.827-7.469.947-13.213,0,0,.9-.965,1.507-.27.567.646,6.465,6.6,7.871,13.321,2.934-2.1,7.93-3.835,16.114-2.555,0,0,1.084.749.484,1.453-.567.666-5.782,7.59-12.4,9.829C32.433,24.7,35,28.954,35.925,36.379c0,0-.421,1.248-1.263.865-.779-.354-8.538-3.338-12.594-8.848-1.273,3.25-4.2,7.151-10.485,10.788,0,0-.041,0-.108,0C11.161,39.187,10.274,39.119,10.293,38.358Z" transform="translate(0 0)"/>
                <g id="组_9" data-name="组 9" transform="translate(7.043 5.414)">
                  <g id="组_8" data-name="组 8" transform="translate(14.4 8.992)">
                    <path id="形状_46" data-name="形状 46" class="cls-31" d="M1076,348.841s8.229-4.819,13.556-4.841" transform="translate(-1076 -344)"/>
                    <path id="形状_46_拷贝" data-name="形状 46 拷贝" class="cls-31" d="M1076.544,352.551s7.681-.136,11.355-2.356" transform="translate(-1076.281 -347.196)"/>
                  </g>
                  <g id="组_8_拷贝" data-name="组 8 拷贝" transform="translate(10.281)">
                    <path id="形状_46-2" data-name="形状 46" class="cls-31" d="M1070.31,339.566s-3.5-8.872-2.7-14.139" transform="translate(-1067.491 -325.427)"/>
                    <path id="形状_46_拷贝-2" data-name="形状 46 拷贝" class="cls-31" d="M1073.825,341.916s1.046-7.611-.582-11.582" transform="translate(-1070.458 -327.959)"/>
                  </g>
                  <g id="组_8_拷贝_2" data-name="组 8 拷贝 2" transform="translate(13.542 14.451)">
                    <path id="形状_46-3" data-name="形状 46" class="cls-31" d="M1074.811,355.276s7.28,4.266,9.6,8.368" transform="translate(-1074.529 -355.276)"/>
                    <path id="形状_46_拷贝-3" data-name="形状 46 拷贝" class="cls-31" d="M1074.228,356.155s3.429,5.869,6.731,7.744" transform="translate(-1074.228 -355.73)"/>
                  </g>
                  <g id="组_8_拷贝_3" data-name="组 8 拷贝 3" transform="translate(6.583 17.252)">
                    <path id="形状_46-4" data-name="形状 46" class="cls-31" d="M1066.208,361.32s-1.616,8.067-4.659,11.511" transform="translate(-1060.728 -361.195)"/>
                    <path id="形状_46_拷贝-4" data-name="形状 46 拷贝" class="cls-31" d="M1064.85,361.062s-4.319,5.027-5,8.667" transform="translate(-1059.854 -361.062)"/>
                  </g>
                  <g id="组_8_拷贝_4" data-name="组 8 拷贝 4" transform="translate(0 11.745)">
                    <path id="形状_46-5" data-name="形状 46" class="cls-31" d="M1058.606,354.371s-8.2.677-12.351-1.295" transform="translate(-1046.255 -351.435)"/>
                    <path id="形状_46_拷贝-5" data-name="形状 46 拷贝" class="cls-31" d="M1061.392,352.124s-6.025-2.761-9.711-2.406" transform="translate(-1049.055 -349.686)"/>
                  </g>
                </g>
                <ellipse id="椭圆_1" data-name="椭圆 1" class="cls-32" cx="2.484" cy="2.271" rx="2.484" ry="2.271" transform="translate(17.992 18.124)"/>
              </g>
              <path id="形状_42" data-name="形状 42" class="cls-33" d="M1005.184,343.669s.826-9.161,7.746-8.715c0,0,7.248-1.05,8.715,7.262,0,0,7,1.752,6.778,5.326s-1.867,5.569-2.9,5.81c0,0,3.164,6.625-1.937,8.715,0,0-4.534,1.692-7.262,0,0,0-5.317,7.375-11.619-.484a4.735,4.735,0,0,1-.484-3.389s-7.161-2.937-6.294-7.746C997.922,350.447,998.077,344.06,1005.184,343.669Z" transform="translate(-7660.33 6121.423)"/>
              <circle id="椭圆_3" data-name="椭圆 3" class="cls-34" cx="2.696" cy="2.696" r="2.696" transform="translate(-6649.094 6469.452)"/>
              <path id="形状_43" data-name="形状 43" class="cls-33" d="M882.1,329.078s.887-4.785-1.936-6.294c0,0-5.245-1.126-5.81,1.937,0,0-5.753-3.182-8.715,1.452,0,0-1.659,4.176.484,5.326,0,0-5.042,6.466,1.937,9.2,0,0,4.748,4.445,8.23,1.452,0,0,9.362-.851,8.23-6.294C884.521,335.856,887.623,329.933,882.1,329.078Z" transform="translate(-7591.47 6127.783)"/>
              <path id="形状_44" data-name="形状 44" class="cls-35" d="M930.767,287.881s-10.38,3.259-16.945-11.619c0,0-.6-3.59.484-4.357,0,0,5.893,1.664,6.778,5.326,0,0-.894-6.483,2.421-9.683,0,0,3.462-3.109,3.873.968,0,0,1.2,9.463.484,11.135s1.144,2.106,1.936-1.452,1.735-5.841,1.452-8.715c0,0,1.889-4.661,2.905-2.9,0,0,3.177,1.234,2.9,7.746,0,0-.318,4.784-.968,5.81,0,0,1.231.871,3.389-2.9s5.63-11.943,7.262-4.841a12.448,12.448,0,0,1-2.421,9.683s3.514-1.844,4.841-1.452a14.835,14.835,0,0,1,2.421-1.937s2.117,2.281.968,4.841c0,0-12.452,12.359-20.818,4.357Z" transform="translate(-7616.897 6156.877)"/>
              <path id="形状_41" data-name="形状 41" class="cls-36" d="M901.134,328.256s7.978-4.326,12.1,3.389c0,0,2.887,6.178-1.937,10.167,0,0,5.981,16.335-8.714,15.492,0,0-5.439,10.1-12.1,6.778,0,0-3.9.079-3.873-5.326a10.374,10.374,0,0,1-12.1-3.389s-2.312-5.857,3.389-8.23a8.723,8.723,0,0,1-.484-10.651s.946-5.449,8.23-4.841c0,0,1.68-6.76,6.778-6.778C892.419,324.867,899.431,323.74,901.134,328.256Z" transform="translate(-7596.463 6126.669)"/>
              <g id="组_10" data-name="组 10" transform="translate(-6708.93 6462.671)">
                <path id="形状_49" data-name="形状 49" class="cls-37" d="M913.858,353.81s-.892-1.635,1.936-5.81" transform="translate(-908.003 -348)"/>
                <path id="形状_49_拷贝" data-name="形状 49 拷贝" class="cls-37" d="M914.172,360.023s.607-1.76,5.6-2.482" transform="translate(-908.234 -352.921)"/>
                <path id="形状_49_拷贝_2" data-name="形状 49 拷贝 2" class="cls-37" d="M901.907,358.479s1.431-.544,4.515,2.226" transform="translate(-901.907 -353.383)"/>
                <path id="形状_49_拷贝_3" data-name="形状 49 拷贝 3" class="cls-37" d="M914.809,365.073s1.491.347,2.5,4.367" transform="translate(-908.563 -356.807)"/>
                <path id="形状_49_拷贝_4" data-name="形状 49 拷贝 4" class="cls-37" d="M908.913,365.073s-1.491.347-2.5,4.367" transform="translate(-904.229 -356.807)"/>
              </g>
              <path id="形状_50" data-name="形状 50" class="cls-37" d="M950.452,346s.727,2.622-1.452,3.873" transform="translate(-7635.13 6115.703)"/>
              <path id="形状_50_拷贝" data-name="形状 50 拷贝" class="cls-37" d="M940.9,385.832s-1.437,2.311-3.833,1.554" transform="translate(-7628.972 6095.155)"/>
              <path id="形状_50_拷贝_3" data-name="形状 50 拷贝 3" class="cls-37" d="M876.948,383.591a2.741,2.741,0,0,1-1.132-3.037" transform="translate(-7597.305 6097.878)"/>
              <path id="形状_50_拷贝_4" data-name="形状 50 拷贝 4" class="cls-37" d="M881.775,362a2.337,2.337,0,0,1-.98-2.6" transform="translate(-7599.883 6108.789)"/>
              <path id="形状_50_拷贝_5" data-name="形状 50 拷贝 5" class="cls-37" d="M903.987,334.06a1.943,1.943,0,0,1,2.246-.537" transform="translate(-7611.911 6122.235)"/>
              <path id="形状_50_拷贝_2" data-name="形状 50 拷贝 2" class="cls-37" d="M909.81,401.452S906.1,402.914,904,400" transform="translate(-7611.917 6087.846)"/>
              <ellipse id="椭圆_2" data-name="椭圆 2" class="cls-38" cx="2.696" cy="3.369" rx="2.696" ry="3.369" transform="translate(-6705.701 6466.756)"/>
              <path id="形状_48" data-name="形状 48" class="cls-39" d="M857.777,278.556s-4.177.39-4.841-6.778c0,0-.665-5.037,2.421-6.778,0,0,5.8,1.447,4.841,12.1C860.2,277.1,858.688,278.673,857.777,278.556Z" transform="translate(-7585.543 6157.487)"/>
              <path id="形状_48_拷贝" data-name="形状 48 拷贝" class="cls-40" d="M865.6,253.521s-7.632.712-8.846-12.385c0,0-1.216-9.2,4.423-12.385,0,0,10.6,2.645,8.846,22.115C870.027,250.867,867.269,253.735,865.6,253.521Z" transform="translate(-7587.489 6176.187)"/>
              <path id="形状_48_拷贝_2" data-name="形状 48 拷贝 2" class="cls-40" d="M824.465,304.457s-5.937,1.947-9.272-8.243c0,0-2.632-7.095,1.275-10.644,0,0,8.906.184,11.033,15.977C827.5,301.547,825.827,304.326,824.465,304.457Z" transform="translate(-7565.657 6146.876)"/>
              <rect id="圆角矩形_1" data-name="圆角矩形 1" class="cls-33" width="5.391" height="6.739" rx="2.696" transform="translate(-6686.832 6414.192)"/>
              <rect id="圆角矩形_1_拷贝_2" data-name="圆角矩形 1 拷贝 2" class="cls-30" width="5.391" height="6.739" rx="2.696" transform="translate(-6635.616 6419.584)"/>
              <rect id="圆角矩形_1_拷贝" data-name="圆角矩形 1 拷贝" class="cls-41" width="5.391" height="6.739" rx="2.696" transform="translate(-6744.787 6408.802)"/>
              <path id="圆角矩形_2" data-name="圆角矩形 2" class="cls-35" d="M920.9,237.13a2.9,2.9,0,0,1,3.552,2.063l.248.936a2.9,2.9,0,1,1-5.615,1.49l-.248-.936A2.9,2.9,0,0,1,920.9,237.13Z" transform="translate(-7619.522 6171.915)"/>
              <path id="圆角矩形_2_拷贝" data-name="圆角矩形 2 拷贝" class="cls-30" d="M823.9,251.522a3.456,3.456,0,0,1,4.737,1.745l.556,1.143a3.889,3.889,0,0,1-1.4,5.112,3.456,3.456,0,0,1-4.737-1.744l-.556-1.143A3.889,3.889,0,0,1,823.9,251.522Z" transform="translate(-7569.656 6164.643)"/>
              <path id="圆角矩形_2_拷贝_2" data-name="圆角矩形 2 拷贝 2" class="cls-40" d="M1015.458,248.7a3.944,3.944,0,0,1,1.1,5.654l-.786,1.219a4.438,4.438,0,0,1-5.817,1.66,3.944,3.944,0,0,1-1.1-5.654l.786-1.219A4.438,4.438,0,0,1,1015.458,248.7Z" transform="translate(-7665.632 6166.159)"/>
              <path id="圆角矩形_2_拷贝_3" data-name="圆角矩形 2 拷贝 3" class="cls-42" d="M1058.685,295.664a3.55,3.55,0,0,1-2.289,4.651l-1.227.446a3.994,3.994,0,0,1-5.071-1.977,3.55,3.55,0,0,1,2.289-4.651l1.227-.446A3.994,3.994,0,0,1,1058.685,295.664Z" transform="translate(-7687.151 6142.824)"/>
              <path id="形状_47" data-name="形状 47" class="cls-43" d="M882.907,285.321s3.548-2.336,6.294,1.937a3.5,3.5,0,0,1,.968,4.357s-1.073,4.435-6.294.484C883.875,292.1,880.128,288.234,882.907,285.321Z" transform="translate(-7600.506 6147.334)"/>
              <g id="组_8_拷贝_6" data-name="组 8 拷贝 6" transform="translate(-6691.664 6439.341)">
                <path id="形状_46-6" data-name="形状 46" class="cls-44" d="M951.379,308.461s5.153-.588,8.253-1.3" transform="translate(-944.694 -303.603)"/>
                <path id="形状_46_拷贝-6" data-name="形状 46 拷贝" class="cls-44" d="M951.2,307.18a30.881,30.881,0,0,1,5.726-3.022" transform="translate(-944.604 -302.053)"/>
                <path id="形状_46_拷贝_2" data-name="形状 46 拷贝 2" class="cls-44" d="M950.093,305.357a46.365,46.365,0,0,1,2.781-4.2" transform="translate(-944.031 -300.502)"/>
                <g id="组_8_拷贝_5" data-name="组 8 拷贝 5" transform="translate(0 0)">
                  <path id="形状_46-7" data-name="形状 46" class="cls-44" d="M943.852,305.079s-4.77-2.371-6.28-4.634" transform="translate(-937.572 -300.137)"/>
                  <path id="形状_46_拷贝-7" data-name="形状 46 拷贝" class="cls-44" d="M947.655,305.024s-.907-3.659-2.573-5.214" transform="translate(-941.446 -299.81)"/>
                </g>
              </g>
              <path id="形状_51" data-name="形状 51" class="cls-45" d="M851.357,229.023s-3.133,2.721-4.357-1.937c0,0,1.35-12.01,10.651-11.135,0,0-5.113,3.7-3.873,7.746C853.778,223.7,854.559,228.8,851.357,229.023Z" transform="translate(-7582.513 6182.813)"/>
              <path id="形状_52" data-name="形状 52" class="cls-45" d="M827.945,262.894s-4.477-5.446-16.945-3.389c0,0,4.934,9.624,15.008,8.715C826.008,268.22,830.274,267.188,827.945,262.894Z" transform="translate(-7563.941 6160.562)"/>
              <path id="形状_53" data-name="形状 53" class="cls-45" d="M719,142s.5,7.23,9.683,12.1c0,0,2.523.619,3.389,8.23,0,0,4.667,28.8,23.723,25.659,0,0,3.95-3.246-2.421-19.366,0,0-13.362-22.921-28.08-22.755C725.294,145.873,720.547,144.109,719,142Z" transform="translate(-7516.482 6220.938)"/>
              <path id="形状_53_拷贝" data-name="形状 53 拷贝" class="cls-45" d="M1253.02,6.185s-1.327,3.52,1.948,7.806c0,0,1.056.838-.182,4.616,0,0-4.033,14.6,5.637,17.24,0,0,2.566-.676,3.05-9.66,0,0-1.342-13.706-8.321-16.813C1255.151,9.375,1253.293,7.515,1253.02,6.185Z" transform="translate(-7792.825 6296)"/>
              <path id="形状_54" data-name="形状 54" class="cls-45" d="M843.925,59s-1.282,5.193,9.683,12.588,2.314,13.691.484,13.072S836.577,72.074,843.925,59Z" transform="translate(-7579.922 6263.755)"/>
              <path id="形状_54_拷贝" data-name="形状 54 拷贝" class="cls-45" d="M1136.5,84.625s1.414,4.861,13.9,5.714,8.39,10.114,6.6,10.475S1136.686,98.818,1136.5,84.625Z" transform="translate(-7731.855 6250.536)"/>
              <g id="组_13" data-name="组 13" transform="translate(-6695.636 6302.292)">
                <g class="cls-54" transform="matrix(1, 0, 0, 1, -480.36, -9.27)">
                  <path id="圆角矩形_3-2" data-name="圆角矩形 3" class="cls-46" d="M931.191,21.778l13.356-4.907c1.457-.535,3.084.539,3.634,2.4l11.151,37.721c.55,1.86-.185,3.8-1.642,4.337l-13.356,4.907c-1.457.535-3.084-.539-3.634-2.4L929.549,26.116C929,24.256,929.734,22.314,931.191,21.778Z" transform="translate(-449 -7.46)"/>
                </g>
                <path id="矩形_2" data-name="矩形 2" class="cls-47" d="M940.225,21.933l5.8-2.132a1.193,1.193,0,0,1,1.454.959l.125.424a1.392,1.392,0,0,1-.657,1.735l-5.8,2.132a1.192,1.192,0,0,1-1.453-.96l-.125-.424A1.392,1.392,0,0,1,940.225,21.933Z" transform="translate(-934.591 -18.287)"/>
                <path id="形状_57" data-name="形状 57" class="cls-48" d="M3.257,31.44a3.873,3.873,0,0,1-.7-1.637S1.352,17.589,3.914,14.5c0,0,.158-.12.445-.292C2.245,13.426.5,11,.088,7.937c-.53-3.976,1.4-7.514,4.318-7.9s5.709,2.519,6.239,6.494a8.119,8.119,0,0,1-1.673,6.442c2.678.123,5.947,1.805,8.57,7.853l1.113,3.3s.411,1.5,0,2.078S4.4,31.44,4.4,31.44a1.405,1.405,0,0,1-.64.182A.733.733,0,0,1,3.257,31.44Z" transform="translate(9.949 16.619)"/>
              </g>
              <g id="组_14" data-name="组 14" transform="translate(-6588.065 6428.271)">
                <path id="椭圆_4" data-name="椭圆 4" class="cls-49" d="M1189.621,288.752c.808.713.629,2.238-.4,3.405s-2.52,1.537-3.328.824-.629-2.237.4-3.405S1188.813,288.039,1189.621,288.752Z" transform="translate(-1169.007 -282.849)"/>
                <path id="椭圆_4_拷贝" data-name="椭圆 4 拷贝" class="cls-49" d="M1162.771,277.288c.76.67.591,2.1-.376,3.2s-2.367,1.444-3.127.774-.591-2.1.376-3.2S1162.011,276.618,1162.771,277.288Z" transform="translate(-1155.289 -276.947)"/>
                <path id="形状_58" data-name="形状 58" class="cls-50" d="M1153.223,304s-4.332,2.844.968,4.841" transform="translate(-1151.556 -290.902)"/>
                <path id="形状_59" data-name="形状 59" class="cls-51" d="M1152,331s2.192,5.861,11.619,1.452" transform="translate(-1151.785 -304.831)"/>
              </g>
              <path id="椭圆_5" data-name="椭圆 5" class="cls-52" d="M1186.144,312.115c3.029,1.7,4.528,4.787,3.348,6.884s-4.593,2.415-7.622.711-4.528-4.787-3.348-6.884S1183.115,310.41,1186.144,312.115Z" transform="translate(-7753.324 6133.749)"/>
              <g id="组_1_拷贝_2" data-name="组 1 拷贝 2" transform="translate(-6546.302 6507.409)">
                <path id="形状_17-2" data-name="形状 17" class="cls-19" d="M1272.957,465.793l-4.73,11.926L1238.4,442.937Z" transform="translate(-1238.121 -441.712)"/>
                <path id="形状_15-2" data-name="形状 15" class="cls-20" d="M1286.071,457.781l-48.251-17.374,17.634,32.822Z" transform="translate(-1237.82 -440.407)"/>
                <path id="形状_16-2" data-name="形状 16" class="cls-21" d="M1274.337,463.876,1238.559,441.3l.32.829,34.2,22.422Z" transform="translate(-1238.201 -440.869)"/>
              </g>
            </g>
          </g>
          <path id="路径_27660" data-name="路径 27660" class="cls-10" d="M20.469.938V-28.75H36.563V-3.906q.312,5.156-5,4.844ZM2.5-27.187v-3.281h9.375a18.425,18.425,0,0,0,6.719-.937v3.594a28.03,28.03,0,0,1-5.781.625v5H18.75v3.281H12.969a26.01,26.01,0,0,0,5.469,9.063v4.219a32.509,32.509,0,0,1-5.625-6.25V3.594H8.281V-10.312A41.449,41.449,0,0,1,1.875-2.031V-6.406a40.5,40.5,0,0,0,6.094-12.5H2.344v-3.281H8.281v-5ZM25.156-1.875H30q2.031,0,2.031-2.187V-25.469H25.156ZM42.875-15v-3.437h3.438V-30.469H75.375v12.031h3.906V-15H75.375v8.75h2.5v3.438h-2.5v.938q.156,5.313-5.781,5.156h-5V.156h3.594q2.344.156,2.188-1.875V-2.812H51.781q-5.625.156-5.469-5.469V-15Zm8.438,5.781q-.156,3.125,2.813,2.969h16.25V-15H51.313Zm0-17.812v8.594H70.375v-8.594ZM59.75-7.812a17.253,17.253,0,0,0-2.187-5.781H62.25a19.635,19.635,0,0,1,2.5,5.781Zm-.625-12.031a16.423,16.423,0,0,0-1.875-5.781h4.688a20.607,20.607,0,0,1,2.188,5.781ZM84.031-23.75v-3.125h3.906v-5.312h4.688v5.313h3.438v3.125H92.781a37.317,37.317,0,0,0,3.438,10.313v4.844a53.978,53.978,0,0,1-3.594-5.469V3.906H87.938V-12.656a49.319,49.319,0,0,1-4.531,8.438V-9.375A50.434,50.434,0,0,0,87.781-23.75Zm36.25,27.5a52.555,52.555,0,0,1-12.187-5.469A52.555,52.555,0,0,1,95.906,3.75V.625a28.4,28.4,0,0,0,9.219-5,28.914,28.914,0,0,1-6.094-11.406h4.688a26.041,26.041,0,0,0,4.375,8.438,24.622,24.622,0,0,0,4.219-8.437h4.844q-2.344,7.5-6.094,11.406a27.9,27.9,0,0,0,9.219,5ZM97.156-25.625V-28.75h8.594v-3.281h5.313v3.281h8.75v3.125Zm-.625,9.375v-2.5q4.531-1.719,5.625-5.312h4.688Q104.656-17.031,96.531-16.25Zm23.594,0q-8.437-1.094-10.312-7.812H114.5a8.45,8.45,0,0,0,5.625,5.313Zm4.438,2.031v-3.594h36.875v3.594ZM167.125-25v-3.281h5.781v-3.906h4.844v3.906h5.313V-25H177.75v5.313h6.406v3.125h-4.844v5.625h4.531v3.125h-4.531v7.5A21.982,21.982,0,0,0,183.219,0h18.906V2.969H181.344q-6.875.156-10.781-3.75a11.806,11.806,0,0,1-5,4.844V.625q2.344-2.5,2.188-7.656v-7.031h3.906V-7.5a26.907,26.907,0,0,1-.156,2.969,3.352,3.352,0,0,1,.781.625,18.158,18.158,0,0,0,2.344,1.875V-16.562h-8.75v-3.125h7.031V-25Zm23.75,21.719q-5.313.312-5-5.312V-20.469h6.719q2.813.156,2.656-2.5v-3.906h-10v-3.281h14.531v7.969q.312,5.156-5.312,5h-4.062v7.969q-.156,2.813,2.344,2.656h2.5q2.5.156,2.344-2.344v-1.406h3.75v2.031q.156,5.156-4.844,5ZM211.25,3.125V-12.656h27.5v10q.156,5.938-5.469,5.781Zm32.344-20.156q-.781-.312-2.344-.781-3.594-1.25-5-1.875v2.969h-22.5v-2.812q-3.75,1.406-7.344,2.5v-3.281q10.938-4.219,15.625-12.187h5.938q4.219,7.5,15.625,12.188ZM216.25-.156h15.156q2.344.156,2.188-2.656V-9.375H216.25ZM225-27.5a30.361,30.361,0,0,1-10,7.344h20.313A31.613,31.613,0,0,1,225-27.5ZM249.438-20V-30.937h18.906v6.25q.313,5-4.844,4.688h-1.875v2.031h8.594v2.813H247.875v-2.812h8.75V-20Zm.469,14.688v-8.125h18.125v3.906q.156,4.375-4.531,4.219h-1.875V-.625q.313,4.688-4.844,4.375h-2.812V.781h1.25q2.031.156,1.875-1.406V-5.312Zm20,9.219V.625a18.824,18.824,0,0,0,10.156-12.031h4.688Q281.781,0,269.906,3.906Zm.156-12.5v-3.125a17.076,17.076,0,0,0,9.063-10.312h4.688Q280.687-11.719,270.063-8.594Zm0-10.781v-2.969a14.158,14.158,0,0,0,7.656-8.906h5Q279.281-21.719,270.063-19.375ZM247.719,2.813V.156a6.582,6.582,0,0,0,3.75-4.219h3.906Q254.125,1.25,247.719,2.813Zm6.406-10.781h7.813q1.875.156,1.719-1.562v-1.25h-9.531ZM269.438,2.656q-5.625-1.719-6.25-6.719h3.75a5.129,5.129,0,0,0,2.5,4.219ZM253.813-28.437v1.875h10.156v-1.875Zm0,5.781h8.125q2.031,0,2.031-1.719H253.813ZM303.875-7.187V-30.312h19.531V-7.187h-4.219V-27.031H308.094V-7.187ZM301.688,3.906V.938Q312-3.75,311.375-12.812V-24.219h4.375v11.406q-.469,9.063,9.219,13.75V3.906Q317,.781,313.563-4.062,310.437.937,301.688,3.906Zm-7.5-6.875h1.563a1.657,1.657,0,0,0,1.875-1.875V-26.406h-3.437ZM290.281,0V-29.531h11.094V-4.844Q301.531,0,296.688,0Z" transform="translate(73 209)"/>
          <path id="路径_27661" data-name="路径 27661" class="cls-10" d="M9.406,1.422V-.766h6.234V-22.312h3.719v7.547H25.7v2.406H19.359V-.766h7.219V1.422ZM3.828.656V-12.359H1.2v-2.3H7.219V-3.609a29.2,29.2,0,0,0,3.828-2.078v2.734A21,21,0,0,1,3.828.656ZM4.7-16.625A18.842,18.842,0,0,0,2.734-22.2H5.906a17.681,17.681,0,0,1,1.969,5.578ZM32.856,2.625v-15.75a12.859,12.859,0,0,1-2.844,1.313v-1.969q3.828-2.516,5.031-8.641h3.391a22.755,22.755,0,0,1-2.187,6.016V2.625Zm8.859-.219V0h1.641Q45,.109,44.888-1.312V-15.859h3.391V-1.2q.109,3.719-3.719,3.609Zm-4.047-15.75v-2.187A9.373,9.373,0,0,0,41.278-22.2h3.281a6.574,6.574,0,0,1-.437,1.969H54.95v5.688H51.778v-3.391H43.247A10.266,10.266,0,0,1,37.669-13.344Zm0,12.906V-3.062q2.625-3.391,2.625-10.062h2.953Q43.575-4.266,37.669-.437Zm17.719,0q-5.578-3.828-5.359-12.578h2.844q0,6.563,2.516,9.844Zm4.2,1.969V-19.141h3.172a29,29,0,0,0,.766-3.172h3.281a29.005,29.005,0,0,1-.766,3.172h4.266V-1.969q.109,3.609-3.391,3.5ZM76.1,2.188V0h2.3q1.75,0,1.641-1.641V-17.281H75.556a10.121,10.121,0,0,1-4.594,3.719v-2.078q2.516-2.078,2.844-6.781h3.281q-.109.438-.219,1.094a6.344,6.344,0,0,1-.328,1.641h6.781V-1.531q.219,3.938-3.609,3.719ZM62.759-.547h3.062q1.422.109,1.313-1.531V-8.094H62.759Zm0-16.3v6.563h4.375v-6.562ZM74.244-5.469a32.594,32.594,0,0,0-1.859-7.547h2.734a30.6,30.6,0,0,1,2.3,7.547ZM90.256,2.625V-10.609h19.687V-.875q.109,3.391-3.5,3.281H103.6V.328h1.422q1.422.109,1.313-1.312v-.547H93.866V2.625ZM88.178-19.141v-1.969H98.241v-1.531h3.609v1.531h10.172v1.969H101.85v1.531h8.969v1.969H101.85v1.75h10.719v1.859H87.522v-1.859H98.241v-1.75H89.381v-1.969h8.859v-1.531ZM93.866-5.031v1.641h12.469V-5.031Zm0-3.5v1.641h12.469V-8.531Zm23.559-10.609v-2.078h9.188v-1.312h3.719v1.313h9.734v2.078h-9.734a4.7,4.7,0,0,1-.109.875,2.845,2.845,0,0,1-.109.875h9.078v1.969h-9.406q-.328.984-.766,1.969h12.141v2.078h-6.781a16.271,16.271,0,0,0,6.891,4.156v2.188q-1.094-.328-2.953-.984A13.42,13.42,0,0,0,137-6.453v5.031q.109,3.5-3.391,3.391H120.6V-6.562q-1.969.766-4.266,1.641V-7.109a21.6,21.6,0,0,0,7.219-4.266h-7.109v-2.078h8.75q.437-.984.766-1.969h-7.547v-1.969h7.984a6.381,6.381,0,0,0,.219-1.75ZM123.988,0h8.094q1.641,0,1.531-1.531v-.656h-9.625Zm0-6.562v2.188h9.625V-6.562Zm3.719-4.812a15.065,15.065,0,0,1-3.172,2.734h8.859a19.745,19.745,0,0,1-2.844-2.734Zm17.872-6.891v-2.406h24.281v2.406h-9.078a40.116,40.116,0,0,1-2.516,4.7h1.094v16.3h-3.719v-12.8a42.008,42.008,0,0,1-10.609,7.547v-2.3q8.641-6.016,11.484-13.453Zm24.281,15.2a58.287,58.287,0,0,0-9.078-6.562v-2.734A37.182,37.182,0,0,1,169.859-7Zm6.059,5.141V-9.953h20.563v8.313q.219,3.938-3.719,3.719ZM185.981-10.5v-2.078a6.915,6.915,0,0,0,2.734-6.344h-2.625v-2.187h11.594v6.563q.109,3.609-3.172,3.391h-2.625v-2.078h1.422q1.313.109,1.2-1.422v-4.266h-2.734Q192-12.906,185.981-10.5Zm-3.172-1.094a12.974,12.974,0,0,0-.328-1.422,41.039,41.039,0,0,1-7.328,2.406V-21.437h5.25a18.22,18.22,0,0,0,4.813-.656v2.3a15.929,15.929,0,0,1-4.375.656h-2.516v4.922a20.016,20.016,0,0,0,3.719-.875,13.422,13.422,0,0,0-.437-1.312,8.586,8.586,0,0,1-.437-1.2h2.625a31.259,31.259,0,0,1,1.859,6.016ZM179.2,0h5.25V-2.953H179.2Zm12.359,0q1.75,0,1.641-1.641V-2.953h-5.25V0ZM193.2-7.766h-5.25v2.844h5.25Zm-14,0v2.844h5.25V-7.766Zm31.216-7.875v-5.578h6.234v-1.312h3.172v1.313h6.234v2.844q.109,2.844-2.953,2.734h-3.281v1.313h7.547v1.859H209.1v-1.859h7.547v-1.312Zm-8.2,18.266V.656a3.5,3.5,0,0,0,2.3-3.719v-8.969h-2.3v-2.187h5.469v10.5q.109,3.5,3.828,3.719h15.969V2.078H211.509q-3.5.109-4.922-2.078A6.639,6.639,0,0,1,202.212,2.625Zm8.313-7.219v-6.562h15.422v6.563h-3.172V-9.3H213.7v4.7Zm16.3,3.938q-6.562-.875-8.641-3.172-2.3,2.3-8.531,3.172v-1.75q7.328-1.641,6.891-4.922v-.984h3.391v.984q-.547,3.172,6.891,4.922ZM205.494-16.516a25.951,25.951,0,0,0-1.75-5.469h2.844a17.271,17.271,0,0,1,2.078,5.469Zm7.875-.875h3.281v-2.078h-3.281Zm9.844-2.078h-3.391v2.078h2.188q1.313,0,1.2-1.2ZM237.584-5.141V-7.219q1.422-1.641,1.313-5.359v-7.766h9.516v-2.187h2.734v2.188h1.531v-2.187h2.188v2.188h1.2v1.969h-4.922q.109,3.719.438,6.344a16.689,16.689,0,0,0,1.75-4.922h2.406a16.378,16.378,0,0,1-3.5,7.766q.656,1.75,1.641,1.75.875,0,.875-1.641h1.859q.109,3.828-2.844,3.609a3.534,3.534,0,0,1-3.281-1.969q-1.094.766-2.516,1.75V-7.875a.315.315,0,0,0,.219-.109,13.089,13.089,0,0,0,1.422-1.422,2.521,2.521,0,0,0-.219-.875,44.377,44.377,0,0,1-.875-8.094h-6.891v5.469Q241.959-7.328,237.584-5.141Zm.875-8.969a4.165,4.165,0,0,0-1.094-.437,3.39,3.39,0,0,1-.656-.219v17.5h-2.953V-22.531h2.953v5.359q.766.109,1.75.328Zm6.781,16.188q-3.172.109-3.062-2.625V-5.141h2.844v3.828Q244.912.328,246.444.109h2.516q1.422.109,1.313-.875v-.766h2.188v.984q.109,2.734-2.734,2.625Zm-2.953-8.75v-6.562h5.688V-9.3q.109,2.734-2.625,2.625Zm-11.7-1.422a76.446,76.446,0,0,0,.656-9.625h1.75a89.206,89.206,0,0,1-.437,9.625Zm23.3,9.406a33.455,33.455,0,0,0-1.531-6.344h2.406a32.312,32.312,0,0,1,1.75,6.344Zm-16.625,0a22.676,22.676,0,0,0,1.531-6.453h2.3a28.407,28.407,0,0,1-1.312,6.453Zm4.922-16.078v-1.859h5.8v1.859ZM247.866-1.75a16.615,16.615,0,0,0-.984-3.391h2.406a11.793,11.793,0,0,1,1.2,3.391Zm-3.609-6.672h.875q.984,0,.875-.875v-2.187h-1.75Z" transform="translate(75 257)"/>
        </g>
        <g id="组_3033" data-name="组 3033" transform="translate(70 292.533)">
          <rect id="矩形_991" data-name="矩形 991" class="cls-25" width="188" height="60" rx="30"/>
          <text id="立即使用" class="cls-53" transform="translate(41 40)"><tspan x="0" y="0">立即使用</tspan></text>
        </g>
      </g>
    </g>
  </g>
</svg>
