<svg xmlns="http://www.w3.org/2000/svg" xmlns:xlink="http://www.w3.org/1999/xlink" width="750" height="302" viewBox="0 0 750 302">
  <defs>
    <style>
      .cls-1 {
        fill: #d731d7;
      }

      .cls-2 {
        fill: #31d7a3;
      }

      .cls-3 {
        clip-path: url(#clip-path);
      }

      .cls-4 {
        fill: #4dd2af;
      }

      .cls-5 {
        fill: url(#linear-gradient);
      }

      .cls-6 {
        clip-path: url(#clip-path-2);
      }

      .cls-7 {
        fill: #f9c4a3;
      }

      .cls-8 {
        fill: #565f82;
      }

      .cls-9 {
        fill: #536a70;
      }

      .cls-10 {
        fill: #f67b54;
      }

      .cls-11 {
        fill: #f5c1a0;
      }

      .cls-12 {
        fill: #53adaa;
      }

      .cls-13 {
        fill: #f7ecdf;
      }

      .cls-14 {
        fill: #5bbab8;
      }

      .cls-15 {
        fill: #61747b;
      }

      .cls-16 {
        fill: #f5c0a0;
      }

      .cls-17 {
        fill: #6c486e;
      }

      .cls-18 {
        fill: #8f432c;
      }

      .cls-19 {
        fill: #0c6661;
      }

      .cls-20 {
        fill: rgba(255,255,255,0.9);
      }

      .cls-21 {
        fill: rgba(255,71,71,0.9);
      }

      .cls-22 {
        fill: rgba(255,255,255,0.5);
      }

      .cls-23, .cls-35 {
        fill: #fff;
      }

      .cls-24 {
        fill: #e1ff14;
      }

      .cls-25 {
        fill: rgba(255,255,255,0.7);
      }

      .cls-26 {
        fill: url(#radial-gradient);
      }

      .cls-27 {
        fill: #b31d1d;
      }

      .cls-28 {
        fill: #1c1f2b;
      }

      .cls-29 {
        fill: #232636;
      }

      .cls-30 {
        fill: #303030;
        opacity: 0.17;
      }

      .cls-31 {
        fill: #383d54;
      }

      .cls-32 {
        fill: #fb9250;
      }

      .cls-33 {
        fill: #ff984a;
      }

      .cls-34 {
        fill: url(#linear-gradient-2);
      }

      .cls-35 {
        font-size: 26px;
        font-family: PingFang SC Bold, PingFang SC;
        letter-spacing: 0.025em;
      }
    </style>
    <clipPath id="clip-path">
      <rect id="矩形_9" data-name="矩形 9" class="cls-1" width="750" height="302" transform="translate(0 128)"/>
    </clipPath>
    <linearGradient id="linear-gradient" x1="0.5" x2="0.5" y2="1" gradientUnits="objectBoundingBox">
      <stop offset="0" stop-color="#31d7a3"/>
      <stop offset="1" stop-color="#57d1b4"/>
      <stop offset="1" stop-color="#196c27"/>
    </linearGradient>
    <clipPath id="clip-path-2">
      <path id="路径_27565" data-name="路径 27565" class="cls-2" d="M0,0H750V360.566C750,376.822,735.673,390,718,390H32c-17.673,0-32-13.178-32-29.434Z" transform="translate(0 40)"/>
    </clipPath>
    <radialGradient id="radial-gradient" cx="0.5" cy="0.5" r="0.5" gradientTransform="translate(-0.095) scale(1.19 1)" gradientUnits="objectBoundingBox">
      <stop offset="0" stop-color="#ffbf16"/>
      <stop offset="1" stop-color="#ffd144"/>
    </radialGradient>
    <linearGradient id="linear-gradient-2" x1="1" y1="0.558" x2="0" y2="0.5" gradientUnits="objectBoundingBox">
      <stop offset="0" stop-color="#fe8512"/>
      <stop offset="1" stop-color="#ffb305"/>
    </linearGradient>
  </defs>
  <g id="banner_home_1" transform="translate(0 -128)">
    <g id="蒙版组_40" data-name="蒙版组 40" class="cls-3">
      <g id="组_3187" data-name="组 3187">
        <g id="组_3032" data-name="组 3032">
          <rect id="矩形_1414" data-name="矩形 1414" class="cls-4" width="750" height="47" transform="translate(0 383)"/>
          <path id="减去_35" data-name="减去 35" class="cls-5" d="M6343,3223H5657a31.421,31.421,0,0,1-12.456-2.55,31.883,31.883,0,0,1-10.171-6.955,32.587,32.587,0,0,1-9.372-22.949V2833h750v357.546a32.585,32.585,0,0,1-9.373,22.949,31.882,31.882,0,0,1-10.172,6.955A31.42,31.42,0,0,1,6343,3223Z" transform="translate(-5625 -2793)"/>
          <g id="蒙版组_30" data-name="蒙版组 30" class="cls-6">
            <g id="组_3031" data-name="组 3031" transform="translate(419 136.214)">
              <g id="组_3026" data-name="组 3026" transform="translate(53.643 247.207)">
                <path id="路径_27547" data-name="路径 27547" class="cls-7" d="M210.99,599.383l-1.757-113.5L194.3,485s4.392,3.519,4.392,20.237,3.514,94.146,3.514,94.146L182,602.022v7.039l22.841-1.76,5.271-1.76Z" transform="translate(-171.226 -485)"/>
                <path id="路径_27548" data-name="路径 27548" class="cls-8" d="M200.715,615s-28.99-.88-30.747,7.919c0,0-1.757,2.64,4.392,3.519s30.747,0,30.747,0a4.635,4.635,0,0,0,4.392-3.519,38.741,38.741,0,0,0,.878-7.919S203.35,621.156,200.715,615Z" transform="translate(-169.736 -500.614)"/>
              </g>
              <g id="组_3027" data-name="组 3027" transform="translate(135.575 234.009)">
                <path id="路径_27549" data-name="路径 27549" class="cls-7" d="M264,595.74l1.757-124.773L280.691,470s-4.392,3.869-4.392,22.246-3.514,103.493-3.514,103.493l20.205,2.9v7.738l-22.841-1.935-5.271-1.934Z" transform="translate(-263.122 -470)"/>
                <path id="路径_27550" data-name="路径 27550" class="cls-8" d="M272.663,614s28.99-.88,30.747,7.919c0,0,1.757,2.64-4.392,3.519s-30.747,0-30.747,0a4.635,4.635,0,0,1-4.392-3.519A38.741,38.741,0,0,1,263,614S270.028,620.156,272.663,614Z" transform="translate(-263 -487.296)"/>
              </g>
              <path id="路径_27551" data-name="路径 27551" class="cls-9" d="M166,447.677s44.8-48.393,125.624-25.516c0,0-7.028,22-57.98,31.675S166,447.677,166,447.677Z" transform="translate(-115.639 -229.506)"/>
              <path id="路径_27552" data-name="路径 27552" class="cls-10" d="M185,480.339V435.465s40.41-25.516,93.12-16.717c0,0,3.514,43.993,3.514,46.633,0,0-15.813,15.838-39.532,6.159,0,0,.878-11.438-.878-14.958,0,0,0-7.039-14.056-3.519,0,0-4.392.88-4.392,7.919V473.3S204.327,490.9,185,480.339Z" transform="translate(-117.947 -229.612)"/>
              <path id="路径_27553" data-name="路径 27553" class="cls-11" d="M205,285.318s.878,16.717,21.084,13.2,14.934-20.237,14.934-20.237a69.107,69.107,0,0,1-9.663,1.76c-7.028.88-7.028-4.4-7.028-4.4V273H217.3a7.392,7.392,0,0,1,2.635,7.039c-.384,1.924-2.635,2.64-7.906,3.519A46.448,46.448,0,0,0,205,285.318Z" transform="translate(-120.378 -212.325)"/>
              <path id="路径_27554" data-name="路径 27554" class="cls-12" d="M276.751,283.276s-26.355-7.919-47.438-4.4c0,0-4.392,15.838-14.056,16.717s-16.691-3.519-15.813-11.438c0,0-60.616,14.958-85.213,70.389s40.41,11.438,40.41,11.438l4.392,65.11s53.588-44.873,125.624-24.636C284.657,406.457,286.414,333.429,276.751,283.276Zm-151.1,76.548c8.785-21.117,23.719-32.555,26.355-29.915s2.635,2.64,2.635,22.876C154.641,352.786,116.867,380.941,125.651,359.824Z" transform="translate(-108.673 -212.922)"/>
              <path id="路径_27555" data-name="路径 27555" class="cls-13" d="M357.919,229.014,160.368,204.119a9.957,9.957,0,0,0-11.119,8.647L136.3,315.85a9.967,9.967,0,0,0,8.634,11.136L342.485,351.88a9.955,9.955,0,0,0,11.118-8.646l12.95-103.084A9.966,9.966,0,0,0,357.919,229.014Zm-117.99,14.74-8.444,67.222a9.956,9.956,0,0,1-11.119,8.646l-53.222-6.706a9.966,9.966,0,0,1-8.634-11.136l8.444-67.222a9.956,9.956,0,0,1,11.119-8.646l53.222,6.706A9.967,9.967,0,0,1,239.93,243.755Z" transform="translate(-112.02 -204.04)"/>
              <ellipse id="椭圆_167" data-name="椭圆 167" class="cls-11" cx="9.422" cy="9.679" rx="9.422" ry="9.679" transform="translate(90.574 43.958)"/>
              <g id="组_3028" data-name="组 3028" transform="translate(45.969 109.343)">
                <path id="路径_27556" data-name="路径 27556" class="cls-12" d="M190.869,348.4l-4.392-4.4L161,360.717v13.2S189.99,351.919,190.869,348.4Z" transform="translate(-161 -330.197)"/>
                <path id="路径_27557" data-name="路径 27557" class="cls-11" d="M190,342.115l4.392,4.4s11.42-7.039,14.056-7.919c0,0,.878-1.76-1.757-.88l-2.635.88h-.879l3.514-3.519s1.757-1.76,0-1.76l-4.392,2.64s-.878,0,.878-1.76,2.635-4.4.879-3.519-4.392,4.4-4.392,4.4v-.88l2.635-4.4s0-2.64-1.757-.88-7.906,8.8-7.906,8.8l-2.635-.88Z" transform="translate(-164.524 -328.313)"/>
              </g>
              <g id="组_3029" data-name="组 3029" transform="translate(241.885 39.504)">
                <path id="路径_27558" data-name="路径 27558" class="cls-14" d="M394.938,269.669s19.436-1.15,16.69-10.783a5.205,5.205,0,0,0-4.66-3.767c-2.21-.137-5.679.264-10.88,2.285Z" transform="translate(-385.343 -249.678)"/>
                <path id="路径_27581" data-name="路径 27581" class="cls-15" d="M3.519,0c1.943,0,3.518.981,3.516,2.195s-1.578,2.2-3.521,2.2S0,3.413,0,2.2,1.575,0,3.519,0Z" transform="translate(15.932 12.984) rotate(-57.175)"/>
                <path id="路径_27559" data-name="路径 27559" class="cls-16" d="M402.4,262.623l-7.726-1.514a.883.883,0,0,0-.593.086,11.174,11.174,0,0,1-3.991,1.255.907.907,0,0,1-.221-1.8l.106-.017s2.706-.629,1.038-1.669l-6.122-.576s-1.2-.119-.792-.958c.068-.139-.025.1,0,0,.131-.508.368-.849,1.832-.712l5.247.495s.958-.794-.792-.959l-4.273-.4a.984.984,0,0,0-.191,0c-.363.04-1.685.1-1.576-1.052.082-.875.847-.8,1.831-.711,1.887.177,4.313.662,5.248.494.365-.066.082-.876.082-.876l-5.083-2.245s-.838-.472-.792-.958c.082-.876,1.057-.785,1.831-.712,1.652.156,7.125,1.458,7.735,1.6a.757.757,0,0,0,.119.019l.222.021a.9.9,0,0,0,.957-1.133c-.187-.713-.167-1.444.753-1.358,1.581.149,4.837,5.511,5.448,6.539a.848.848,0,0,0,.259.274c.65.442,3.037,2.2,2.136,3.646l-1.748,2.81A.9.9,0,0,1,402.4,262.623Z" transform="translate(-384.016 -248.938)"/>
              </g>
              <path id="路径_27560" data-name="路径 27560" class="cls-17" d="M207.785,248.293s-2.635,12.318-8.785,8.8c0,0,6.149,5.279,8.785,5.279s9.663-5.279,11.42-9.678l5.271,2.64,4.392,7.039,2.83-2.834a5.307,5.307,0,0,0,.419-7.023l-5.756-7.337a4.729,4.729,0,0,0-2.888-1.732C220.125,242.838,212.991,242.427,207.785,248.293Z" transform="translate(-119.649 -208.734)"/>
              <rect id="矩形_1293" data-name="矩形 1293" class="cls-17" width="92.564" height="3.538" rx="1.769" transform="matrix(0.991, 0.132, -0.132, 0.991, 141.506, 42.762)"/>
              <rect id="矩形_1294" data-name="矩形 1294" class="cls-17" width="92.564" height="3.538" rx="1.769" transform="matrix(0.991, 0.132, -0.132, 0.991, 139.749, 55.081)"/>
              <rect id="矩形_1295" data-name="矩形 1295" class="cls-17" width="43.105" height="3.528" rx="1.764" transform="matrix(0.991, 0.132, -0.132, 0.991, 135.292, 87.627)"/>
              <rect id="矩形_1296" data-name="矩形 1296" class="cls-17" width="43.105" height="3.528" rx="1.764" transform="matrix(0.991, 0.132, -0.132, 0.991, 133.599, 99.954)"/>
              <path id="路径_27561" data-name="路径 27561" class="cls-18" d="M253.691,418S194.663,432.5,185,453.372V436.667S229.262,413.66,253.691,418Z" transform="translate(-117.947 -229.678)"/>
              <path id="路径_27562" data-name="路径 27562" class="cls-19" d="M190.869,350l7.028.88-36.018,29.036-.5.3L161,374.636Z" transform="translate(-115.031 -221.575)"/>
              <path id="路径_27563" data-name="路径 27563" class="cls-19" d="M240,355.582l60.193,14.583-.283-7.291Z" transform="translate(-124.631 -222.246)"/>
            </g>
          </g>
          <g id="组_2826" data-name="组 2826" transform="translate(360.407 133.392)">
            <path id="xing4" class="cls-20" d="M733.013,578.828l2.124,9.044,6.9,3.192-6.371,2.128-3.186,10.64-2.655-10.64-5.84-2.128,6.371-2.66Z" transform="translate(-723.988 -434.967)"/>
            <path id="xing4_拷贝" data-name="xing4 拷贝" class="cls-21" d="M422.792,322l2.124,9.043,6.9,3.192-6.371,2.128L422.261,347l-2.655-10.639-5.84-2.128,6.371-2.66Z" transform="translate(-238.381 -321.999)"/>
            <path id="xing4_拷贝_2" data-name="xing4 拷贝 2" class="cls-21" d="M623.659,658.177l1.969,8.387,6.4,2.96-5.908,1.973-2.954,9.868L620.7,671.5l-5.416-1.973,5.909-2.467Z" transform="translate(-316.842 -473.342)"/>
            <path id="xing3" class="cls-22" d="M323.192,489.325l-2.954,1.48-1.969,5.921-1.477-6.414-4.432-.987,3.447-1.48,2.954-5.92,1.477,4.934Z" transform="translate(-206.576 -409.39)"/>
            <path id="xing2" class="cls-23" d="M264.374,368.489l1.969,6.908,4.924,1.48-4.924,2.467-1.969,6.907-1.97-6.414-3.939-1.973,3.939-1.974Z" transform="translate(-186.945 -368.18)"/>
            <path id="xing2_拷贝_3" data-name="xing2 拷贝 3" class="cls-23" d="M309.081,338.125l2.124,7.448,5.309,1.6-5.309,2.66-2.124,7.448-2.124-6.916-4.247-2.128,4.247-2.128Z" transform="translate(-183.976 -338.045)"/>
            <path id="xing2_拷贝_4" data-name="xing2 拷贝 4" class="cls-24" d="M185.548,465.707l1.969,6.907,4.924,1.48-4.924,2.467-1.969,6.907-1.97-6.414-3.939-1.973,3.939-1.974Z" transform="translate(-158.426 -403.488)"/>
            <path id="xing2_拷贝" data-name="xing2 拷贝" class="cls-25" d="M301.131,428.734l.985,3.259,2.462.7-2.462,1.164-.985,3.259-.985-3.026-1.969-.931,1.969-.931Z" transform="translate(-201.422 -390.078)"/>
            <path id="xing2_拷贝_2" data-name="xing2 拷贝 2" class="cls-25" d="M550.808,515.963l.985,3.259,2.462.7-2.462,1.164-.985,3.259-.985-3.026-1.969-.931,1.969-.931Z" transform="translate(-291.917 -421.787)"/>
            <path id="xing1" class="cls-26" d="M541.248,414.257l1.477,2.96,2.462,1.48-2.462,1.48-.985,3.454-1.477-2.96L537.31,418.7l2.954-.987Z" transform="translate(-288.516 -385.097)"/>
          </g>
          <g id="组_3036" data-name="组 3036" transform="matrix(0.985, -0.174, 0.174, 0.985, 389.414, 140.879)">
            <path id="路径_357" data-name="路径 357" class="cls-27" d="M5.386,20.2a.623.623,0,0,1-.166-.019c-.15-.038-3.674-.956-4.852-3.776-.686-1.643-.429-3.542.765-5.647C4.569,4.7.808,1.174.769,1.139A.661.661,0,0,1,.718.218a.632.632,0,0,1,.9-.053c.046.042,4.572,4.275.62,11.246-.981,1.731-1.215,3.239-.695,4.484.93,2.228,3.95,3.013,3.981,3.021a.653.653,0,0,1,.468.79A.643.643,0,0,1,5.386,20.2Z" transform="translate(7.563 9.447)"/>
            <path id="路径_358" data-name="路径 358" class="cls-28" d="M4.276,3.588,1.658,4.907,0,1.491A1.83,1.83,0,0,1,1.007.21,1.768,1.768,0,0,1,2.617.172Z" transform="translate(15.076 19.612)"/>
            <path id="路径_359" data-name="路径 359" class="cls-29" d="M39.625-.016,25.269,21.393-.008,19.961,8.457,9.882l7.034-8.8Z" transform="translate(2.132 21.91)"/>
            <path id="路径_360" data-name="路径 360" class="cls-30" d="M25.27,19.97-.007,18.538,8.458,8.459l7.11-8.465Z" transform="translate(2.132 23.333)"/>
            <path id="路径_361" data-name="路径 361" class="cls-31" d="M31.855,12.285s-8.12.653-14.479,3.7A36.718,36.718,0,0,0,5.953,25.341L1.2,15.56-.005,13.075s3.4-5.191,11.594-9.323C20.2-.588,25.9.019,25.9.019L27.1,2.5Z" transform="translate(9.207 25.775)"/>
            <path id="路径_362" data-name="路径 362" class="cls-30" d="M17.378,12.231A36.718,36.718,0,0,0,5.954,21.585L1.2,11.8,0,9.318S3.392,4.128,11.59,0Z" transform="translate(9.206 29.531)"/>
            <path id="路径_363" data-name="路径 363" class="cls-31" d="M24.762,1.315.634,2.741,0,1.3,24.063-.01Z" transform="translate(16.995 20.58)"/>
            <path id="路径_364" data-name="路径 364" class="cls-28" d="M16.226,1.391l-.679-1.4L-.007,18.465.677,19.99,9.142,9.911l7.11-8.465" transform="translate(1.447 21.882)"/>
            <path id="路径_365" data-name="路径 365" class="cls-32" d="M3.279,0c1.1,1.47,1.251,3.229.345,3.93S1.1,4.007,0,2.537l1.64-1.269Z" transform="translate(5.508 7.112)"/>
            <path id="路径_366" data-name="路径 366" class="cls-30" d="M0,1.268,1.64,0c1.1,1.47,1.251,3.229.345,3.93Z" transform="translate(7.148 7.112)"/>
            <path id="路径_367" data-name="路径 367" class="cls-32" d="M0,3.653,1.409,2.562l1.4,1.25L2,2.1l.295-.228.328-.254L5,3.979,3.541.912,4.721,0S8.035,3.423,7.878,4.783A4.031,4.031,0,0,1,6.232,7.014,3.921,3.921,0,0,1,3.68,8.032C2.351,7.822,0,3.653,0,3.653Z" transform="translate(0 0)"/>
            <path id="路径_368" data-name="路径 368" class="cls-30" d="M0,1.877l.328-.254L2.706,3.98,1.246.913,2.426,0S5.74,3.424,5.583,4.784A3.92,3.92,0,0,1,3.941,6.957Z" transform="translate(2.295 -0.001)"/>
            <path id="路径_369" data-name="路径 369" class="cls-27" d="M0,2.841,3.672,0,5.106,1.92,1.433,4.763Z" transform="translate(3.944 4.988)"/>
            <path id="路径_370" data-name="路径 370" class="cls-33" d="M0,1.482,1.916,0,3.35,1.921,1.433,3.4Z" transform="translate(5.7 4.987)"/>
            <path id="路径_371" data-name="路径 371" class="cls-28" d="M25.917.809c.9,1.857-4.146,6.275-11.276,9.869S1,15.68.1,13.823,4.245,7.548,11.375,3.954,25.015-1.047,25.917.809Z" transform="translate(15.155 37.381)"/>
          </g>
        </g>
        <path id="路径_27635" data-name="路径 27635" class="cls-23" d="M13.125-10.469V-13.75h7.969v-10H15.469v-3.281h5.625v-5h5v5h9.063V-13.75h2.813v3.281H26.563Q28.125-4.375,36.875.313V3.75Q27.187,0,23.75-5.625,20.781.469,12.813,3.75V.313q6.719-4.687,7.969-10.781ZM6.563,3.75V-32.031h4.531v7.813a17.559,17.559,0,0,1,3.438.313v3.75a4.843,4.843,0,0,0-.937-.312q-1.563-.313-2.5-.469V3.75Zm23.906-27.5H26.094v10h4.375ZM1.563-11.562A107.883,107.883,0,0,0,2.5-25.156H5.313a76.29,76.29,0,0,1-.625,13.594ZM45.375-23.75v-3.437H58.344v-5h5.313v5H76.625v3.438H63.656v7.969H78.969v3.438H60.219A35.917,35.917,0,0,1,51.781-1.719q11.094,0,18.75-.781l-.469-.937a33.718,33.718,0,0,0-2.187-4.531h4.531a53.218,53.218,0,0,1,5,11.25H72.563L71.625.469A153.371,153.371,0,0,1,49.75,1.875H46.469V-1.719a36.886,36.886,0,0,0,7.656-10.625H42.875v-3.437H58.344V-23.75Zm73.969,27.5q-9.688-8.437-11.406-18.594Q106.063-4.531,96.375,3.75V0q9.219-12.031,8.906-29.219v-2.5h5.313v2.5Q110.281-12.187,119.344,0ZM87.625,2.188v-20H83.719v-3.281h8.75V-3.906q1.25-.625,4.219-2.344-2.188,1.406.625-.312v3.906A42.047,42.047,0,0,1,87.625,2.188Zm.938-26.25a46.231,46.231,0,0,0-2.656-7.812h4.531a44.447,44.447,0,0,1,2.813,7.813Zm48.031-2.812v-3.281h24.063v3.281h-8.125v9.688h7.031v3.281h-7.031V-.781h8.75V2.188H134.719V-.781h3.906V-21.25h4.531V-.781h4.375V-26.875ZM128,2.188v-20h-3.281v-3.281h7.969V-4.062A19.951,19.951,0,0,0,136.75-6.25v3.594A28.1,28.1,0,0,1,128,2.188Zm1.406-26.094a32.284,32.284,0,0,0-2.812-7.812h4.375a36.78,36.78,0,0,1,2.969,7.813Zm36.625.156v-3.125h3.906v-5.312h4.688v5.313h3.438v3.125h-3.281a37.317,37.317,0,0,0,3.438,10.313v4.844a53.979,53.979,0,0,1-3.594-5.469V3.906h-4.687V-12.656a49.32,49.32,0,0,1-4.531,8.438V-9.375a50.434,50.434,0,0,0,4.375-14.375Zm36.25,27.5a52.555,52.555,0,0,1-12.187-5.469A52.555,52.555,0,0,1,177.906,3.75V.625a28.4,28.4,0,0,0,9.219-5,28.914,28.914,0,0,1-6.094-11.406h4.688a26.041,26.041,0,0,0,4.375,8.438,24.623,24.623,0,0,0,4.219-8.437h4.844q-2.344,7.5-6.094,11.406a27.9,27.9,0,0,0,9.219,5ZM179.156-25.625V-28.75h8.594v-3.281h5.313v3.281h8.75v3.125Zm-.625,9.375v-2.5q4.531-1.719,5.625-5.312h4.688Q186.656-17.031,178.531-16.25Zm23.594,0q-8.437-1.094-10.312-7.812H196.5a8.45,8.45,0,0,0,5.625,5.313Zm5.375-8.594v-3.281h9.219l.469-4.062h5.156q0,.625-.156,2.031-.156,1.25-.312,2.031h20.938v3.281H221.406q-.469,2.813-.937,5.156h19.375v3.438q-3.125,8.125-8.125,12.188A31.284,31.284,0,0,0,242.5.781V3.75a47.291,47.291,0,0,1-14.062-5.312,55.787,55.787,0,0,1-14.062,5.469V.781a43.161,43.161,0,0,0,10.938-4.844,35.518,35.518,0,0,1-6.719-9.687q-2.969,8.125-11.406,15.781V-1.875a44.64,44.64,0,0,0,9.063-22.969Zm12.031,8.594q-.469,1.25-.781,2.188h5a27.677,27.677,0,0,0,4.844,7.188,31.507,31.507,0,0,0,5.938-9.375Zm-206.953,44V25.563H26.688V27.75H21.219q-.109.437-.219,1.2l-.328,1.641h5.141v12.8H23.078V32.781H16.188V43.391H13.453v-12.8H17.5a16.606,16.606,0,0,0,.438-2.844Zm-1.094,22.2a47.564,47.564,0,0,0-9.078-5.578V41.969a6.78,6.78,0,0,0,1.313.438q.875.328,2.625,1.094a19.586,19.586,0,0,0,2.516-5.25h-7V36.063H6.234a25.18,25.18,0,0,0-.875-4.375h2.3a14.654,14.654,0,0,1,1.313,4.375H12.25V38.25A20.168,20.168,0,0,1,8.641,44.7q1.313.875,2.844,1.859Zm1.094-.219V47.656q5.906-2.406,5.578-8.094V34.094h2.953v5.578q-.219,5.469,5.469,7.984v2.078q-5.031-1.531-6.891-4.594Q17.609,48.2,12.578,49.734Zm.328-14.984a14.2,14.2,0,0,1-5.8-6.125,13.742,13.742,0,0,1-6.016,6.234V32.672a16.854,16.854,0,0,0,4.484-7.984H8.531a18.954,18.954,0,0,0,4.375,7.984Zm17.434-6.781v-2.3H42.809v2.3h-1.2V42.078l1.859-.437v2.188l-1.859.547v5.359H38.653V45.141a69.714,69.714,0,0,1-8.641,1.313V43.719a4.705,4.705,0,0,0,.875-.109h.875V27.969ZM55.278,49.844A28.375,28.375,0,0,1,49.044,44.7a33.919,33.919,0,0,1-6.234,5.141V47.328a23.463,23.463,0,0,0,4.484-4.922q-2.516-4.047-3.5-11.922h3.172a33.543,33.543,0,0,0,2.078,8.75,30.855,30.855,0,0,0,2.3-10.391H43.466v-2.3H54.622v2.3q-.875,9.078-3.937,13.563a30.806,30.806,0,0,0,4.594,4.7ZM34.716,43.281l1.969-.328q1.313-.109,1.969-.219v-3.5H34.716Zm0-9.734v3.5h3.938v-3.5Zm0-5.578v3.391h3.938V27.969ZM65.056,34.2v-1.75h8.969a40.251,40.251,0,0,0,8.859-.656v1.859a52.581,52.581,0,0,1-7.437.547v1.2h6.672v1.969q.109,2.953-2.844,2.844H75.447v1.2h7.875v5.141q.109,3.063-3.062,2.953H77.853V47.875h1.2q1.312.109,1.2-1.094V43.172H75.447v1.859a5.948,5.948,0,0,0,1.641-.219,2.58,2.58,0,0,0-.328-1.094h1.75a26.172,26.172,0,0,1,1.2,3.609H77.744l-.219-.875a53.451,53.451,0,0,1-8.75.656v-1.75q1.969,0,3.5-.109V43.172H68.009v6.563H64.838V41.422h7.438v-1.2H65.713V35.406h6.563V34.2ZM58.931,49.734V47.328q2.187-1.859,1.969-6.016V25.453H82.994v2.625q.109,3.281-3.172,3.172H64.072v9.625Q64.4,47.109,58.931,49.734Zm5.141-22.2v1.75H78.728q1.094,0,1.094-1.2v-.547Zm15.094,9.406H75.447v1.641h2.625q1.2.109,1.094-1.094Zm-10.5,1.641h3.609V36.938H68.666ZM89.6,28.406V25.891h21.109v2.516H102.4V35.3h10.281V37.7H102.4v8.313a3.124,3.124,0,0,1-3.391,3.391H94.85V47h2.3q1.531,0,1.422-1.312V37.7H87.522V35.3H98.569V28.406Zm29.356,21.219V33.875a12.859,12.859,0,0,1-2.844,1.313V33.219q3.828-2.516,5.031-8.641h3.391a22.755,22.755,0,0,1-2.187,6.016V49.625Zm8.859-.219V47h1.641q1.641.109,1.531-1.312V31.141h3.391V45.8q.109,3.719-3.719,3.609Zm-4.047-15.75V31.469a9.373,9.373,0,0,0,3.609-6.672h3.281a6.574,6.574,0,0,1-.437,1.969H141.05v5.688h-3.172V29.063h-8.531A10.266,10.266,0,0,1,123.769,33.656Zm0,12.906V43.938q2.625-3.391,2.625-10.062h2.953Q129.675,42.734,123.769,46.563Zm17.719,0q-5.578-3.828-5.359-12.578h2.844q0,6.563,2.516,9.844Zm4.2,1.969V27.859h3.172a29,29,0,0,0,.766-3.172h3.281a29,29,0,0,1-.766,3.172h4.266V45.031q.109,3.609-3.391,3.5Zm16.516.656V47h2.3q1.75,0,1.641-1.641V29.719h-4.484a10.121,10.121,0,0,1-4.594,3.719V31.359q2.516-2.078,2.844-6.781h3.281q-.109.438-.219,1.094a6.344,6.344,0,0,1-.328,1.641h6.781V45.469q.219,3.938-3.609,3.719Zm-13.344-2.734h3.063q1.422.109,1.313-1.531V38.906h-4.375Zm0-16.3v6.563h4.375V30.156Zm11.484,11.375a32.593,32.593,0,0,0-1.859-7.547h2.734a30.6,30.6,0,0,1,2.3,7.547ZM188.716,49.3V47.109h1.422q1.75.109,1.641-1.422V42.734q-5.359,3.719-17.828,6.781V47.328q9.3-2.406,14.438-5.687H173.731v-2.3h3.063V26.656h5.8q.328-.984.656-2.187h3.719q-.328,1.2-.656,2.188h8.75V36.719l.984-.766h3.391a32,32,0,0,1-4.375,4.266v5.359q.109,3.828-3.828,3.719Zm-8.641-12.141v2.188h11.7V37.156Zm0-4.266v2.3h11.7v-2.3Zm0-4.047v2.078h11.7V28.844Zm37.669,20.344V47h1.75q1.859,0,1.75-1.641V37.375h-4.156q.328,8.969-7.547,12.25V47.438q4.375-3.063,4.266-10.062h-2.3v-2.3q-1.094.656-2.3,1.313v-2.3a13.269,13.269,0,0,0,4.922-9.078h3.391q-.875,7-5.906,10.063h13.016V45.25q.109,4.047-3.937,3.938Zm-13.016.438V33.984a10.363,10.363,0,0,1-2.734,1.2V33.219q3.938-2.516,5.031-8.641h3.391a21.932,21.932,0,0,1-2.3,6.234V49.625Zm22.75-13.234a13.038,13.038,0,0,1-8.312-11.375h3.391a14.131,14.131,0,0,0,4.922,9.078Zm3.434.328V34.313h8.969V24.359h3.828v3.609h10.172v2.406H243.709v3.938h12.578v2.406Zm8.859,13.125V37.594H243.6v12.25Zm14.547-3.391a38.485,38.485,0,0,0-9.734-4.7V39.125a30.471,30.471,0,0,1,9.734,3.609Zm15.794-4.484V25.781h13.672V41.969h-2.953V28.078h-7.766V41.969Zm-1.531,7.766V47.656q7.219-3.281,6.781-9.625V30.047h3.063v7.984q-.328,6.344,6.453,9.625v2.078q-5.578-2.187-7.984-5.578Q274.706,47.656,268.581,49.734Zm-5.25-4.812h1.094a1.16,1.16,0,0,0,1.313-1.312V28.516h-2.406ZM260.6,47V26.328h7.766V43.609Q268.472,47,265.081,47Zm31.981-4.375-.437-16.3h3.391l-.547,16.3Zm-.437,6.344V45.906h3.391v3.063Z" transform="translate(74 209.346)"/>
        <g id="组_3033" data-name="组 3033" transform="translate(70 292.533)">
          <rect id="矩形_991" data-name="矩形 991" class="cls-34" width="188" height="60" rx="30"/>
          <text id="实名认证" class="cls-35" transform="translate(41 40)"><tspan x="0" y="0">实名认证</tspan></text>
        </g>
      </g>
    </g>
  </g>
</svg>
