<svg xmlns="http://www.w3.org/2000/svg" width="300" height="210" viewBox="0 0 300 210"><defs><style>.cls-6{fill:#fff}.cls-11{fill:#fcffff}.cls-12{fill:#268aed}</style><clipPath id="clip-path"><path id="_1338" data-name="1338" transform="translate(358.367 179.257)" stroke="#707070" fill="#fff" d="M0 0h300v210H0z"/></clipPath><filter x="7.305" y="115.485" width="81.194" height="81.194" filterUnits="userSpaceOnUse"><feOffset dy="1"/><feGaussianBlur stdDeviation="1.5" result="blur"/><feFlood flood-color="#b40808" flood-opacity=".216"/><feComposite operator="in" in2="blur"/><feComposite in="SourceGraphic"/></filter></defs><g id="_61" data-name="61" transform="translate(-358.367 -179.257)" clip-path="url(#clip-path)"><g id="_3328" data-name="3328" transform="translate(358 178.85)"><rect id="_copy_4" data-name="copy 4" width="269.876" height="159.936" rx="7" transform="rotate(-7 275.562 -92.92)" opacity=".16" fill="#fff"/><path d="M14.757 0h240.327a14.74 14.74 0 0 1 14.757 14.724v130.409a14.74 14.74 0 0 1-14.757 14.724H14.757A14.74 14.74 0 0 1 0 145.133V14.724A14.74 14.74 0 0 1 14.757 0z" transform="translate(0 27.457)" fill="#8096cb"/><rect id="-2" class="cls-6" width="84.325" height="8.413" rx="2" transform="translate(27.406 73.731)"/><rect id="_copy" data-name="copy" class="cls-6" width="84.325" height="8.413" rx="2" transform="translate(27.406 103.178)"/><rect id="_copy_2" data-name="copy 2" class="cls-6" width="107.515" height="8.413" rx="2" transform="translate(27.406 134.729)"/><g transform="translate(12.172 119.392)"><path id="_4" data-name="4" d="M0 .97v24.852l15.9-5.709L31 25.822V0z" transform="translate(22.613 65.378)" fill="#f6bf15"/><g transform="translate(-11.8 -118.99)" filter="url(#)"><path id="-2" class="cls-6" d="M39.08 71.355a4.177 4.177 0 0 0-4.419 0l-1.469.915a4.181 4.181 0 0 1-5.556-1.043L26.6 69.842a4.183 4.183 0 0 0-4.12-1.6l-1.7.32a4.19 4.19 0 0 1-4.806-2.987L15.5 63.9a4.2 4.2 0 0 0-3.265-2.988l-1.7-.317a4.2 4.2 0 0 1-3.408-4.525l.161-1.728a4.212 4.212 0 0 0-1.97-3.97l-1.47-.912A4.216 4.216 0 0 1 2.3 44l.772-1.553a4.22 4.22 0 0 0-.408-4.416l-1.042-1.382A4.218 4.218 0 0 1 2.144 31l1.279-1.168a4.217 4.217 0 0 0 1.209-4.266L4.157 23.9a4.211 4.211 0 0 1 2.519-5.079l1.613-.625a4.2 4.2 0 0 0 2.663-3.54l.158-1.728A4.2 4.2 0 0 1 15.287 9.1h1.729a4.189 4.189 0 0 0 3.757-2.33l.769-1.554a4.184 4.184 0 0 1 5.271-2.05l1.612.628a4.179 4.179 0 0 0 4.343-.815l1.277-1.17a4.179 4.179 0 0 1 5.652 0l1.277 1.17a4.179 4.179 0 0 0 4.343.815l1.612-.628A4.184 4.184 0 0 1 52.2 5.215l.769 1.554A4.189 4.189 0 0 0 56.725 9.1h1.729a4.2 4.2 0 0 1 4.177 3.822l.158 1.728a4.2 4.2 0 0 0 2.663 3.54l1.613.625a4.211 4.211 0 0 1 2.519 5.085l-.475 1.669a4.217 4.217 0 0 0 1.209 4.266L71.6 31a4.218 4.218 0 0 1 .522 5.649l-1.043 1.384a4.22 4.22 0 0 0-.408 4.416L71.44 44a4.216 4.216 0 0 1-1.547 5.457l-1.471.912a4.212 4.212 0 0 0-1.97 3.97l.161 1.728a4.2 4.2 0 0 1-3.406 4.533l-1.7.317a4.2 4.2 0 0 0-3.265 2.983l-.472 1.67a4.19 4.19 0 0 1-4.806 2.987l-1.7-.32a4.183 4.183 0 0 0-4.12 1.6l-1.044 1.39a4.181 4.181 0 0 1-5.556 1.043z" transform="translate(11.03 118.28)"/></g><path d="M27.344 0A27.344 27.344 0 1 1 0 27.344 27.344 27.344 0 0 1 27.344 0z" transform="translate(8.91 9.027)" fill="#ffa205"/><path id="_3" data-name="3" d="M22.613 34.082l11.272 10.7 16.134-16.825" fill="none" stroke="#fff" stroke-linecap="round" stroke-linejoin="round" stroke-miterlimit="10" stroke-width="6"/></g><path id="-2" d="M89.969 23.728C84.853 10.087 66.672 0 45.027 0 23.27 0 5.012 10.191.006 23.939c-.887 2.438 90.901 2.29 89.963-.211z" transform="translate(152.084 129.471)" fill="#e8f3ff"/><path class="cls-11" d="M0 0h16.865a73.316 73.316 0 0 0-.8 7.85 48.529 48.529 0 0 0 .8 6.874H0a57.045 57.045 0 0 0 .883-7.362A57.045 57.045 0 0 0 0 0z" transform="translate(189.732 120.005)"/><path id="_2" data-name="2" class="cls-12" d="M11.483 2.5L7.632 0S0 4.881 0 6.874s1.894 6.288 3.472 6.288S11.483 2.5 11.483 2.5z" transform="translate(198.165 127.855)"/><path id="_2_copy" data-name="2 copy" class="cls-12" d="M-5.447 2.5L-1.6 0s7.636 4.881 7.636 6.874-1.894 6.288-3.472 6.288S-5.447 2.5-5.447 2.5z" transform="translate(192.017 127.855)"/><ellipse id="_1" data-name="1" class="cls-11" cx="23.189" cy="28.344" rx="23.189" ry="28.344" transform="translate(174.975 67.421)"/><path d="M28.065 0C56.787 0 56.14 29.336 52.343 34.819c0 0-2.759-8.466-3.566-10.079 0 0-3.464 4.328-5.073 4.478 0 0-.862-7.3-1.191-7.66S31.76 31.024 23.938 32.069c0 0 2.07-7.855 1.133-9.092 0 0-10.137 8.678-12.082 8.494 0 0 .875-3.771.053-4.029S8.1 37.6 5.061 37.6 0 27.709 0 25.343-.658 0 28.065 0z" transform="translate(169.823 60.653)" fill="#2e3552"/></g></g></svg>